<?xml version="1.0" standalone="no"?>
<!DOCTYPE svg PUBLIC "-//W3C//DTD SVG 1.1//EN" "http://www.w3.org/Graphics/SVG/1.1/DTD/svg11.dtd" >
<svg xmlns="http://www.w3.org/2000/svg" xmlns:xlink="http://www.w3.org/1999/xlink" version="1.1">
<metadata>
Created by FontForge 20170731 at Tue Sep 12 15:23:53 2023
 By Aleksey,,,
</metadata>
<defs>
<font id="Ten87SansV7Regular" horiz-adv-x="0" >
  <font-face 
    font-family="Ten87 Sans V7"
    font-weight="400"
    font-stretch="normal"
    units-per-em="2048"
    panose-1="0 0 0 0 0 0 0 0 0 0"
    ascent="1638"
    descent="-410"
    x-height="1014"
    cap-height="1403"
    bbox="-102 -434 1887 1698"
    underline-thickness="102"
    underline-position="-307"
    unicode-range="U+000A-2014"
  />
<missing-glyph horiz-adv-x="1079" 
d="M102 1434h875v-1434h-875v1434zM160 1393l379 -633l381 633h-760zM514 717l-369 614v-1231zM541 674l-379 -631h758zM565 717l371 -621v1239z" />
    <glyph glyph-name=".notdef" horiz-adv-x="1079" 
d="M102 1434h875v-1434h-875v1434zM160 1393l379 -633l381 633h-760zM514 717l-369 614v-1231zM541 674l-379 -631h758zM565 717l371 -621v1239z" />
    <glyph glyph-name=".null" 
 />
    <glyph glyph-name=".null" 
 />
    <glyph glyph-name="nonmarkingreturn" horiz-adv-x="682" 
 />
    <glyph glyph-name="controlLF" unicode="&#xa;" 
 />
    <glyph glyph-name="controlCR" unicode="&#xd;" 
 />
    <glyph glyph-name="space" unicode=" " horiz-adv-x="581" 
 />
    <glyph glyph-name="exclam" unicode="!" horiz-adv-x="415" 
d="M313 105q0 -43 -30.5 -74t-74.5 -31t-75 31t-31 74v10q0 43 31 74.5t75 31.5q43 0 74 -31t31 -75v-10zM303 1403v-1002h-191v1002h191z" />
    <glyph glyph-name="quotedbl" unicode="&#x22;" horiz-adv-x="661" 
d="M290 1016h-188v426h188v-426zM559 1016h-188v426h188v-426z" />
    <glyph glyph-name="quotedbl" unicode="&#x201d;" horiz-adv-x="661" 
d="M290 1016h-188v426h188v-426zM559 1016h-188v426h188v-426z" />
    <glyph glyph-name="quotedbl" unicode="&#x201c;" horiz-adv-x="661" 
d="M290 1016h-188v426h188v-426zM559 1016h-188v426h188v-426z" />
    <glyph glyph-name="dollar" unicode="$" horiz-adv-x="1130" 
d="M838 1015h190v-1407q0 -17 -12.5 -29.5t-29.5 -12.5h-914v177h723q17 0 30 12.5t13 29.5v326q0 14 -13.5 19.5t-23.5 -5.5q-103 -112 -264 -112q-88 0 -166.5 31t-141.5 92t-100 161t-37 227t36 227t98.5 161t141 92t169.5 31q83 0 151.5 -30t112.5 -78q10 -11 23.5 -5.5
t13.5 19.5v74zM563 173q109 0 192 97t83 254q0 159 -78.5 255t-186.5 96h-20q-115 0 -193 -87t-78 -264q0 -178 73.5 -264.5t187.5 -86.5h20z" />
    <glyph glyph-name="ampersand" unicode="&#x26;" horiz-adv-x="1167" 
d="M1163 501l-177 -178q-14 -14 -15.5 -33t10.5 -35l182 -239h-234l-69 94q-13 18 -36 20.5t-40 -11.5q-65 -55 -156.5 -87t-179.5 -32q-188 0 -307 116q-118 118 -118 307q0 291 258 441q-106 145 -106 273q0 122 88 210q92 89 231 89q145 0 232 -87q87 -84 87 -194
q0 -225 -247 -355l247 -325q14 -19 38 -20.5t40 15.5l152 151zM494 1251q-55 0 -89 -34.5t-34 -87.5q0 -70 41 -141q13 -23 38 -29t48 7q118 73 118 173q0 53 -33 82.5t-89 29.5zM446 192q140 0 232 77q15 12 16.5 33.5t-10.5 36.5l-251 329q-16 20 -41.5 23t-45.5 -13
q-123 -103 -123 -265q0 -99 63 -160t160 -61z" />
    <glyph glyph-name="quotesingle" unicode="'" horiz-adv-x="274" 
d="M233 1016h-192v436h192v-436z" />
    <glyph glyph-name="quotesingle" unicode="&#x2019;" horiz-adv-x="274" 
d="M233 1016h-192v436h192v-436z" />
    <glyph glyph-name="quotesingle" unicode="&#x2018;" horiz-adv-x="274" 
d="M233 1016h-192v436h192v-436z" />
    <glyph glyph-name="parenleft" unicode="(" horiz-adv-x="645" 
d="M102 -287v1985h441v-170h-190q-25 0 -42.5 -17.5t-17.5 -42.5v-1524q0 -25 17.5 -42.5t42.5 -17.5h190v-171h-441z" />
    <glyph glyph-name="parenright" unicode=")" horiz-adv-x="645" 
d="M543 1698v-1985h-441v171h191q25 0 42.5 17.5t17.5 42.5v1524q0 25 -17.5 42.5t-42.5 17.5h-191v170h441z" />
    <glyph glyph-name="plus" unicode="+" horiz-adv-x="1355" 
d="M816 651h488v-170h-488q-21 0 -35.5 -14.5t-14.5 -35.5v-492h-197v492q0 21 -14.5 35.5t-35.5 14.5h-488v170h488q21 0 35.5 15t14.5 36v492h197v-492q0 -21 14.5 -36t35.5 -15z" />
    <glyph glyph-name="comma" unicode="," horiz-adv-x="428" 
d="M85 247h240v-281q0 -118 -63 -179t-177 -61h-71v130h71q120 0 120 120v30h-120v241z" />
    <glyph glyph-name="hyphen" unicode="-" horiz-adv-x="1748" 
d="M102 541v170h1544v-170h-1544z" />
    <glyph glyph-name="period" unicode="." horiz-adv-x="444" 
d="M223 241q49 0 84.5 -35.5t35.5 -85.5t-35.5 -85t-84.5 -35q-50 0 -85.5 35.5t-35.5 84.5q0 50 36 85.5t85 35.5z" />
    <glyph glyph-name="slash" unicode="/" horiz-adv-x="987" 
d="M102 0l542 1404h240l-535 -1404h-247z" />
    <glyph glyph-name="zero" unicode="0" horiz-adv-x="1306" 
d="M654 1441q263 0 407 -185.5t144 -535.5t-144 -536t-407 -186t-407.5 186t-144.5 536t144.5 535.5t407.5 185.5zM644 1271q-48 0 -93.5 -15t-92.5 -54.5t-81 -100t-56 -158.5t-22 -223q0 -68 6 -127q3 -25 27.5 -33.5t42.5 9.5l506 505q19 19 20 46t-16 47
q-89 104 -221 104h-20zM664 168q48 0 93.5 15.5t92.5 55t81 99.5t56 158.5t22 223.5q0 58 -7 126q-3 26 -27.5 34.5t-42.5 -9.5l-505 -506q-19 -19 -20 -46t16 -47q89 -104 221 -104h20z" />
    <glyph glyph-name="one" unicode="1" horiz-adv-x="716" 
d="M463 1419h151v-1403h-193v1018q0 29 -26.5 40t-47.5 -9l-245 -237v240z" />
    <glyph glyph-name="two" unicode="2" horiz-adv-x="1153" 
d="M462 196h589v-180h-949v212l454 431q20 19 61 56t64.5 58.5t55.5 57.5t49.5 65t31.5 67.5t16 78.5q4 93 -63.5 160t-162.5 67h-30q-115 0 -188 -76.5t-73 -192.5h-201q1 154 84.5 264.5t224.5 153t308 6.5q130 -28 214.5 -130t83.5 -233q-1 -75 -25.5 -144t-73 -132
t-94.5 -110.5t-114 -111.5q-15 -13 -22 -20l-276 -255q-26 -25 -13 -58.5t49 -33.5z" />
    <glyph glyph-name="three" unicode="3" horiz-adv-x="1167" 
d="M812 724q111 -27 182 -114t71 -223q0 -169 -134.5 -280t-340.5 -111q-205 0 -336.5 104.5t-151.5 282.5h195q21 -103 96 -160t187 -57h20q112 0 190 64t78 167q0 108 -71 172t-183 64h-121v169h121q107 0 175.5 69t68.5 167q0 106 -73 168.5t-185 62.5h-20
q-101 0 -176.5 -63.5t-84.5 -157.5h-191q9 169 143.5 280t328.5 111q188 0 321.5 -108.5t133.5 -262.5q0 -130 -67.5 -219.5t-175.5 -124.5z" />
    <glyph glyph-name="four" unicode="4" horiz-adv-x="1306" 
d="M1070 505h135v-170h-220v-319h-193v319h-690v192l692 892h191v-829q0 -35 25 -60t60 -25zM792 590v435q0 31 -29 40.5t-48 -14.5l-370 -476q-17 -21 -5 -45.5t39 -24.5h328q35 0 60 25t25 60z" />
    <glyph glyph-name="five" unicode="5" horiz-adv-x="1191" 
d="M652 894q190 0 311.5 -118.5t125.5 -298.5q2 -130 -62.5 -240.5t-176 -174.5t-242.5 -66q-133 -2 -242.5 40.5t-181.5 133.5t-82 217h197q13 -104 94 -162.5t195 -58.5h20q123 0 202.5 80.5t81.5 203.5q2 113 -79 193.5t-195 80.5h-20q-71 0 -141 -36t-110 -101h-194
l170 832h752v-180h-573q-14 0 -25.5 -9t-14.5 -23l-68 -318q-5 -26 16 -41.5t44 -2.5q91 49 198 49z" />
    <glyph glyph-name="six" unicode="6" horiz-adv-x="1245" 
d="M660 938q193 0 323 -127.5t130 -333.5q0 -214 -139 -347.5t-352 -133.5q-237 0 -378.5 178.5t-141.5 496.5q0 165 48 309.5t128.5 244.5t189.5 157t228 57q181 0 299 -95t148 -266h-197q-23 87 -84.5 138t-153.5 51h-20q-134 0 -235 -102t-146 -278q-8 -32 20 -50.5
t53 2.5q118 99 280 99zM636 168q115 0 197.5 84.5t82.5 214.5q0 132 -82 216.5t-198 84.5h-20q-115 0 -202 -87t-87 -212q0 -124 87.5 -212.5t201.5 -88.5h20z" />
    <glyph glyph-name="seven" unicode="7" horiz-adv-x="1177" 
d="M102 1419h973v-190q-270 -164 -399.5 -447.5t-129.5 -725.5v-40h-197v58q0 373 110 648.5t310 442.5q22 19 12 46.5t-39 27.5h-640v180z" />
    <glyph glyph-name="eight" unicode="8" horiz-adv-x="1138" 
d="M772 725q110 -28 187.5 -124.5t77.5 -220.5q0 -176 -129.5 -286.5t-337.5 -110.5t-338 110.5t-130 286.5q0 124 77.5 220.5t187.5 124.5q-106 39 -171.5 127t-65.5 204q0 164 123 267.5t317 103.5t316.5 -103.5t122.5 -267.5q0 -116 -65.5 -204t-171.5 -127zM325 1036
q0 -100 65 -166t169 -66h21q104 0 169 66t65 166q0 98 -64.5 159.5t-169.5 61.5h-21q-105 0 -169.5 -61.5t-64.5 -159.5zM580 154q113 0 186.5 66t73.5 170q0 106 -73.5 174.5t-186.5 68.5h-21q-113 0 -186.5 -68.5t-73.5 -174.5q0 -104 73.5 -170t186.5 -66h21z" />
    <glyph glyph-name="nine" unicode="9" horiz-adv-x="1245" 
d="M624 1439q237 0 378 -178t141 -497q0 -165 -47.5 -309.5t-128.5 -244.5t-189.5 -157t-227.5 -57q-181 0 -299.5 95t-148.5 266h197q23 -87 84.5 -138t153.5 -51h21q134 0 234.5 101.5t145.5 277.5q8 32 -20.5 51t-53.5 -3q-118 -98 -278 -98q-193 0 -323.5 127.5
t-130.5 333.5q0 214 139.5 347.5t352.5 133.5zM630 667q115 0 201.5 87t86.5 212q0 124 -87 212.5t-201 88.5h-20q-116 0 -198.5 -84.5t-82.5 -214.5q0 -132 82.5 -216.5t198.5 -84.5h20z" />
    <glyph glyph-name="less" unicode="&#x3c;" horiz-adv-x="1593" 
d="M102 525v189l529 529l123 -124l-320 -319q-24 -24 -10.5 -56t47.5 -32h1020v-181h-1022q-35 0 -48 -32t12 -56l321 -319l-123 -124z" />
    <glyph glyph-name="greater" unicode="&#x3e;" horiz-adv-x="1593" 
d="M1491 718v-189l-529 -529l-122 124l319 319q24 24 11 56t-47 32h-1021v181h1022q35 0 48.5 32t-11.5 56l-321 319l123 124z" />
    <glyph glyph-name="question" unicode="?" horiz-adv-x="751" 
d="M338 1403q174 0 279.5 -102.5t105.5 -275.5q0 -110 -54.5 -196.5t-135 -129.5t-167.5 -43q-59 0 -68 -47v-210h-200v427h230q90 0 144 54.5t54 144.5q0 91 -57 144.5t-161 53.5h-249v180h279zM201 200q40 0 67.5 -27.5t27.5 -67.5v-10q0 -40 -27.5 -67.5t-67.5 -27.5
t-68 27.5t-28 67.5v10q0 40 28 67.5t68 27.5z" />
    <glyph glyph-name="at" unicode="@" horiz-adv-x="1869" 
d="M1136 636q23 7 23 38l1 1v1q0 2 -0.5 4t-0.5 4v1q-4 98 -59.5 151.5t-150.5 53.5h-10q-85 0 -143 -39t-67 -111h-191q9 138 122 224.5t283 86.5q129 0 223 -53.5t139 -138.5t45 -189v-471q0 -7 6 -13t13 -6q5 1 6 1q76 15 138.5 144t62.5 300q0 265 -168.5 428
t-452.5 163q-135 0 -255.5 -48t-211 -133.5t-143 -213t-52.5 -277.5q0 -326 189.5 -513.5t502.5 -187.5h491v-171h-501q-186 0 -344 55.5t-276.5 162t-185.5 274t-67 380.5q0 155 47 291t129 235.5t190.5 172t232.5 108.5t254 36q170 0 321 -60t258 -162.5t169.5 -243
t62.5 -296.5q0 -157 -55.5 -295.5t-147.5 -220t-195 -81.5h-21h-167q-6 30 -7 59q-2 23 -22.5 31t-37.5 -8q-104 -102 -264 -102q-143 0 -237 84.5t-94 212.5q0 66 23 118.5t58.5 86t85.5 57t97.5 34t100.5 15.5l246 19h1l2 1h2h2zM889 169q112 0 191.5 79t79.5 191
q0 21 -15.5 35.5t-36.5 12.5l-199 -16q-90 -8 -145.5 -49.5t-55.5 -108.5q0 -62 46 -103t115 -41h20z" />
    <glyph glyph-name="A" unicode="A" horiz-adv-x="1384" 
d="M1047 329q-12 32 -46 32h-602q-34 0 -46 -32l-128 -329h-205l556 1403h256l552 -1403h-209zM725 1154q-7 17 -25 17t-25 -17l-225 -576q-5 -13 3 -25t22 -12h450q14 0 22 12t3 25z" />
    <glyph glyph-name="A" unicode="&#xc5;" horiz-adv-x="1384" 
d="M1047 329q-12 32 -46 32h-602q-34 0 -46 -32l-128 -329h-205l556 1403h256l552 -1403h-209zM725 1154q-7 17 -25 17t-25 -17l-225 -576q-5 -13 3 -25t22 -12h450q14 0 22 12t3 25z" />
    <glyph glyph-name="A" unicode="&#xc4;" horiz-adv-x="1384" 
d="M1047 329q-12 32 -46 32h-602q-34 0 -46 -32l-128 -329h-205l556 1403h256l552 -1403h-209zM725 1154q-7 17 -25 17t-25 -17l-225 -576q-5 -13 3 -25t22 -12h450q14 0 22 12t3 25z" />
    <glyph glyph-name="A" unicode="&#xc3;" horiz-adv-x="1384" 
d="M1047 329q-12 32 -46 32h-602q-34 0 -46 -32l-128 -329h-205l556 1403h256l552 -1403h-209zM725 1154q-7 17 -25 17t-25 -17l-225 -576q-5 -13 3 -25t22 -12h450q14 0 22 12t3 25z" />
    <glyph glyph-name="A" unicode="&#xc2;" horiz-adv-x="1384" 
d="M1047 329q-12 32 -46 32h-602q-34 0 -46 -32l-128 -329h-205l556 1403h256l552 -1403h-209zM725 1154q-7 17 -25 17t-25 -17l-225 -576q-5 -13 3 -25t22 -12h450q14 0 22 12t3 25z" />
    <glyph glyph-name="A" unicode="&#xc1;" horiz-adv-x="1384" 
d="M1047 329q-12 32 -46 32h-602q-34 0 -46 -32l-128 -329h-205l556 1403h256l552 -1403h-209zM725 1154q-7 17 -25 17t-25 -17l-225 -576q-5 -13 3 -25t22 -12h450q14 0 22 12t3 25z" />
    <glyph glyph-name="A" unicode="&#xc0;" horiz-adv-x="1384" 
d="M1047 329q-12 32 -46 32h-602q-34 0 -46 -32l-128 -329h-205l556 1403h256l552 -1403h-209zM725 1154q-7 17 -25 17t-25 -17l-225 -576q-5 -13 3 -25t22 -12h450q14 0 22 12t3 25z" />
    <glyph glyph-name="B" unicode="B" horiz-adv-x="1247" 
d="M102 0v1403h612q171 0 286 -100.5t115 -269.5q0 -116 -62.5 -199t-166.5 -122q119 -20 189 -108t70 -223q0 -170 -120 -275.5t-291 -105.5h-632zM684 802q105 0 167.5 57t62.5 154t-62.5 153.5t-167.5 56.5h-332q-20 0 -34.5 -14.5t-14.5 -34.5v-323q0 -20 14.5 -34.5
t34.5 -14.5h332zM694 180q114 0 182 58.5t68 162.5t-68 162.5t-182 58.5h-342q-20 0 -34.5 -15t-14.5 -35v-342q0 -20 14.5 -35t34.5 -15h342z" />
    <glyph glyph-name="C" unicode="C" horiz-adv-x="1386" 
d="M262 702q0 -153 51 -274t155 -194.5t245 -73.5h20q141 0 241.5 76t109.5 205h200q-7 -139 -84 -245t-201.5 -161t-275.5 -55t-276.5 55t-209.5 151.5t-130 229t-46 286.5t46 286.5t130 229t209.5 151.5t276.5 55t275.5 -55.5t201.5 -161.5t84 -245h-200
q-9 129 -109.5 205t-241.5 76h-20q-141 0 -245 -73t-155 -194t-51 -274z" />
    <glyph glyph-name="C" unicode="&#xc7;" horiz-adv-x="1386" 
d="M262 702q0 -153 51 -274t155 -194.5t245 -73.5h20q141 0 241.5 76t109.5 205h200q-7 -139 -84 -245t-201.5 -161t-275.5 -55t-276.5 55t-209.5 151.5t-130 229t-46 286.5t46 286.5t130 229t209.5 151.5t276.5 55t275.5 -55.5t201.5 -161.5t84 -245h-200
q-9 129 -109.5 205t-241.5 76h-20q-141 0 -245 -73t-155 -194t-51 -274z" />
    <glyph glyph-name="D" unicode="D" horiz-adv-x="1357" 
d="M102 0v1403h502q297 0 474 -187t177 -514t-177 -514.5t-474 -187.5h-502zM584 180q227 0 349 134t122 388t-122 387.5t-349 133.5h-232q-20 0 -34.5 -14.5t-14.5 -34.5v-944q0 -20 14.5 -35t34.5 -15h232z" />
    <glyph glyph-name="E" unicode="E" horiz-adv-x="1247" 
d="M102 0v1403h1023v-180h-773q-20 0 -34.5 -14.5t-14.5 -34.5v-313q0 -20 14.5 -34.5t34.5 -14.5h653v-180h-653q-20 0 -34.5 -15t-14.5 -35v-352q0 -20 14.5 -35t34.5 -15h793v-180h-1043z" />
    <glyph glyph-name="E" unicode="&#xcb;" horiz-adv-x="1247" 
d="M102 0v1403h1023v-180h-773q-20 0 -34.5 -14.5t-14.5 -34.5v-313q0 -20 14.5 -34.5t34.5 -14.5h653v-180h-653q-20 0 -34.5 -15t-14.5 -35v-352q0 -20 14.5 -35t34.5 -15h793v-180h-1043z" />
    <glyph glyph-name="E" unicode="&#xca;" horiz-adv-x="1247" 
d="M102 0v1403h1023v-180h-773q-20 0 -34.5 -14.5t-14.5 -34.5v-313q0 -20 14.5 -34.5t34.5 -14.5h653v-180h-653q-20 0 -34.5 -15t-14.5 -35v-352q0 -20 14.5 -35t34.5 -15h793v-180h-1043z" />
    <glyph glyph-name="E" unicode="&#xc9;" horiz-adv-x="1247" 
d="M102 0v1403h1023v-180h-773q-20 0 -34.5 -14.5t-14.5 -34.5v-313q0 -20 14.5 -34.5t34.5 -14.5h653v-180h-653q-20 0 -34.5 -15t-14.5 -35v-352q0 -20 14.5 -35t34.5 -15h793v-180h-1043z" />
    <glyph glyph-name="E" unicode="&#xc8;" horiz-adv-x="1247" 
d="M102 0v1403h1023v-180h-773q-20 0 -34.5 -14.5t-14.5 -34.5v-313q0 -20 14.5 -34.5t34.5 -14.5h653v-180h-653q-20 0 -34.5 -15t-14.5 -35v-352q0 -20 14.5 -35t34.5 -15h793v-180h-1043z" />
    <glyph glyph-name="F" unicode="F" horiz-adv-x="1187" 
d="M102 0v1403h983v-180h-734q-20 0 -34 -14t-14 -34v-355q0 -20 14 -34t34 -14h634v-181h-634q-20 0 -34 -14t-14 -34v-543h-201z" />
    <glyph glyph-name="G" unicode="G" horiz-adv-x="1427" 
d="M743 717h582v-717h-181v96q0 15 -14 21t-25 -4q-57 -55 -148 -94t-214 -39q-205 0 -362 95t-240 263t-79 382q3 152 64 287.5t161.5 230.5t238.5 145t289 38q228 -19 356.5 -149.5t143.5 -329.5h-201q-15 144 -109 222.5t-252 78.5h-20q-214 0 -342.5 -144t-128.5 -397
t128.5 -397.5t342.5 -144.5h20q181 0 286 97t105 238q0 16 -11 27t-27 11h-363v184z" />
    <glyph glyph-name="H" unicode="H" horiz-adv-x="1337" 
d="M102 0v1403h201v-562q0 -20 14.5 -34.5t34.5 -14.5h613q20 0 35 14.5t15 34.5v562h200v-1403h-200v562q0 20 -15 35t-35 15h-613q-20 0 -34.5 -15t-14.5 -35v-562h-201z" />
    <glyph glyph-name="I" unicode="I" horiz-adv-x="425" 
d="M102 0v1403h201v-1403h-201z" />
    <glyph glyph-name="I" unicode="&#xcf;" horiz-adv-x="425" 
d="M102 0v1403h201v-1403h-201z" />
    <glyph glyph-name="I" unicode="&#xce;" horiz-adv-x="425" 
d="M102 0v1403h201v-1403h-201z" />
    <glyph glyph-name="I" unicode="&#xcd;" horiz-adv-x="425" 
d="M102 0v1403h201v-1403h-201z" />
    <glyph glyph-name="I" unicode="&#xcc;" horiz-adv-x="425" 
d="M102 0v1403h201v-1403h-201z" />
    <glyph glyph-name="J" unicode="J" horiz-adv-x="862" 
d="M560 1403h200v-1403h-658v184h372q35 0 60.5 25t25.5 60v1134z" />
    <glyph glyph-name="K" unicode="K" horiz-adv-x="1368" 
d="M571 647q-9 14 -25.5 15.5t-27.5 -10.5l-189 -192q-26 -26 -26 -65v-395h-201v1403h201v-611q0 -23 21.5 -32t37.5 7l633 636h260l-531 -540q-14 -14 -15.5 -34t9.5 -36l547 -793h-250z" />
    <glyph glyph-name="L" unicode="L" horiz-adv-x="1183" 
d="M102 1403h201v-1166q0 -23 17 -40t40 -17h765v-180h-1023v1403z" />
    <glyph glyph-name="M" unicode="M" horiz-adv-x="1718" 
d="M356 1072q-8 22 -30.5 18t-22.5 -27v-1063h-201v1403h333l393 -1138q7 -19 26.5 -19t25.5 19l385 1138h331v-1403h-200v1064q0 15 -11.5 23t-24.5 4t-18 -18l-359 -1073h-257z" />
    <glyph glyph-name="N" unicode="N" horiz-adv-x="1337" 
d="M102 1403h281l595 -1061q11 -20 34 -14t23 29v1046h200v-1403h-280l-595 1061q-11 20 -34 14t-23 -29v-1046h-201v1403z" />
    <glyph glyph-name="N" unicode="&#xd1;" horiz-adv-x="1337" 
d="M102 1403h281l595 -1061q11 -20 34 -14t23 29v1046h200v-1403h-280l-595 1061q-11 20 -34 14t-23 -29v-1046h-201v1403z" />
    <glyph glyph-name="O" unicode="O" horiz-adv-x="1425" 
d="M723 1424q143 0 264.5 -50t209.5 -141.5t138 -228t50 -302.5t-50 -302.5t-138 -228t-209.5 -141.5t-264.5 -50t-264.5 50t-209.5 141.5t-138 228t-50 302.5t50 302.5t138 228t209.5 141.5t264.5 50zM713 160h20q200 0 325.5 145.5t125.5 396.5t-125.5 396t-325.5 145h-20
q-200 0 -325.5 -145t-125.5 -396t125.5 -396.5t325.5 -145.5z" />
    <glyph glyph-name="O" unicode="&#xd8;" horiz-adv-x="1425" 
d="M723 1424q143 0 264.5 -50t209.5 -141.5t138 -228t50 -302.5t-50 -302.5t-138 -228t-209.5 -141.5t-264.5 -50t-264.5 50t-209.5 141.5t-138 228t-50 302.5t50 302.5t138 228t209.5 141.5t264.5 50zM713 160h20q200 0 325.5 145.5t125.5 396.5t-125.5 396t-325.5 145h-20
q-200 0 -325.5 -145t-125.5 -396t125.5 -396.5t325.5 -145.5z" />
    <glyph glyph-name="O" unicode="&#xd6;" horiz-adv-x="1425" 
d="M723 1424q143 0 264.5 -50t209.5 -141.5t138 -228t50 -302.5t-50 -302.5t-138 -228t-209.5 -141.5t-264.5 -50t-264.5 50t-209.5 141.5t-138 228t-50 302.5t50 302.5t138 228t209.5 141.5t264.5 50zM713 160h20q200 0 325.5 145.5t125.5 396.5t-125.5 396t-325.5 145h-20
q-200 0 -325.5 -145t-125.5 -396t125.5 -396.5t325.5 -145.5z" />
    <glyph glyph-name="O" unicode="&#xd5;" horiz-adv-x="1425" 
d="M723 1424q143 0 264.5 -50t209.5 -141.5t138 -228t50 -302.5t-50 -302.5t-138 -228t-209.5 -141.5t-264.5 -50t-264.5 50t-209.5 141.5t-138 228t-50 302.5t50 302.5t138 228t209.5 141.5t264.5 50zM713 160h20q200 0 325.5 145.5t125.5 396.5t-125.5 396t-325.5 145h-20
q-200 0 -325.5 -145t-125.5 -396t125.5 -396.5t325.5 -145.5z" />
    <glyph glyph-name="O" unicode="&#xd4;" horiz-adv-x="1425" 
d="M723 1424q143 0 264.5 -50t209.5 -141.5t138 -228t50 -302.5t-50 -302.5t-138 -228t-209.5 -141.5t-264.5 -50t-264.5 50t-209.5 141.5t-138 228t-50 302.5t50 302.5t138 228t209.5 141.5t264.5 50zM713 160h20q200 0 325.5 145.5t125.5 396.5t-125.5 396t-325.5 145h-20
q-200 0 -325.5 -145t-125.5 -396t125.5 -396.5t325.5 -145.5z" />
    <glyph glyph-name="O" unicode="&#xd3;" horiz-adv-x="1425" 
d="M723 1424q143 0 264.5 -50t209.5 -141.5t138 -228t50 -302.5t-50 -302.5t-138 -228t-209.5 -141.5t-264.5 -50t-264.5 50t-209.5 141.5t-138 228t-50 302.5t50 302.5t138 228t209.5 141.5t264.5 50zM713 160h20q200 0 325.5 145.5t125.5 396.5t-125.5 396t-325.5 145h-20
q-200 0 -325.5 -145t-125.5 -396t125.5 -396.5t325.5 -145.5z" />
    <glyph glyph-name="O" unicode="&#xd2;" horiz-adv-x="1425" 
d="M723 1424q143 0 264.5 -50t209.5 -141.5t138 -228t50 -302.5t-50 -302.5t-138 -228t-209.5 -141.5t-264.5 -50t-264.5 50t-209.5 141.5t-138 228t-50 302.5t50 302.5t138 228t209.5 141.5t264.5 50zM713 160h20q200 0 325.5 145.5t125.5 396.5t-125.5 396t-325.5 145h-20
q-200 0 -325.5 -145t-125.5 -396t125.5 -396.5t325.5 -145.5z" />
    <glyph glyph-name="P" unicode="P" horiz-adv-x="1185" 
d="M102 1403h592q201 0 326 -113t125 -312t-125 -312t-326 -113h-341q-21 0 -35.5 -14.5t-14.5 -35.5v-503h-201v1403zM664 734q136 0 208 62.5t72 181.5q0 120 -72 182.5t-208 62.5h-311q-21 0 -35.5 -14.5t-14.5 -35.5v-389q0 -21 14.5 -35.5t35.5 -14.5h311z" />
    <glyph glyph-name="Q" unicode="Q" horiz-adv-x="1527" 
d="M867 -55v-86q0 -20 15 -34.5t35 -14.5h338v-191h-579v366q-258 30 -416 220.5t-158 496.5q0 166 50 302.5t138 228t209.5 141.5t264.5 50t264.5 -50t209.5 -141.5t138 -228t50 -302.5q0 -289 -142 -476t-378 -233q-17 -3 -28 -17t-11 -31zM303 702q0 -251 125.5 -396.5
t325.5 -145.5h20q200 0 325.5 145.5t125.5 396.5t-125.5 396t-325.5 145h-20q-200 0 -325.5 -145t-125.5 -396z" />
    <glyph glyph-name="R" unicode="R" horiz-adv-x="1247" 
d="M102 0v1403h602q195 0 318 -107t123 -273q0 -131 -65 -227.5t-166 -127.5q118 0 164.5 -45t46.5 -152v-471h-201v421q0 59 -41 99.5t-99 40.5h-429q-22 0 -37 -14.5t-15 -36.5v-510h-201zM674 742q124 0 197 71t73 179q0 112 -71 171.5t-199 59.5h-319q-22 0 -37 -15
t-15 -37v-377q0 -22 15 -37t37 -15h319z" />
    <glyph glyph-name="S" unicode="S" horiz-adv-x="1275" 
d="M993 982q-7 119 -93.5 190t-215.5 71h-20q-129 0 -210 -62t-81 -156q0 -79 51 -128.5t142 -68.5l224 -44q383 -76 383 -405q0 -184 -142 -291.5t-377 -107.5q-253 0 -399 120.5t-153 350.5h201q0 -139 98 -215t261 -76h20q136 0 213.5 60t77.5 151q0 85 -54.5 136
t-166.5 74l-225 47q-354 72 -354 395q0 170 139 285.5t362 115.5q233 0 372 -119t147 -323h-200z" />
    <glyph glyph-name="T" unicode="T" horiz-adv-x="1284" 
d="M481 1173q0 20 -15 35t-35 15h-451v180h1202v-180h-451q-20 0 -35 -15t-15 -35v-1173h-200v1173z" />
    <glyph glyph-name="U" unicode="U" horiz-adv-x="1267" 
d="M634 -30q-263 0 -397.5 140t-134.5 381v902h201v-882q0 -174 82 -267.5t239 -93.5h20q157 0 239 93.5t82 267.5v882h200v-902q0 -239 -137 -380t-394 -141z" />
    <glyph glyph-name="U" unicode="&#xdc;" horiz-adv-x="1267" 
d="M634 -30q-263 0 -397.5 140t-134.5 381v902h201v-882q0 -174 82 -267.5t239 -93.5h20q157 0 239 93.5t82 267.5v882h200v-902q0 -239 -137 -380t-394 -141z" />
    <glyph glyph-name="U" unicode="&#xdb;" horiz-adv-x="1267" 
d="M634 -30q-263 0 -397.5 140t-134.5 381v902h201v-882q0 -174 82 -267.5t239 -93.5h20q157 0 239 93.5t82 267.5v882h200v-902q0 -239 -137 -380t-394 -141z" />
    <glyph glyph-name="U" unicode="&#xda;" horiz-adv-x="1267" 
d="M634 -30q-263 0 -397.5 140t-134.5 381v902h201v-882q0 -174 82 -267.5t239 -93.5h20q157 0 239 93.5t82 267.5v882h200v-902q0 -239 -137 -380t-394 -141z" />
    <glyph glyph-name="U" unicode="&#xd9;" horiz-adv-x="1267" 
d="M634 -30q-263 0 -397.5 140t-134.5 381v902h201v-882q0 -174 82 -267.5t239 -93.5h20q157 0 239 93.5t82 267.5v882h200v-902q0 -239 -137 -380t-394 -141z" />
    <glyph glyph-name="V" unicode="V" horiz-adv-x="1497" 
d="M582 0l-562 1403h213l438 -1102q13 -31 47 -31t46 31l419 1102h211l-551 -1403h-261z" />
    <glyph glyph-name="W" unicode="W" horiz-adv-x="1988" 
d="M1019 1069q-5 19 -25 19t-24 -19l-256 -1069h-271l-341 1403h209l250 -1079q5 -20 25 -20t25 19l261 1080h263l253 -1085q5 -20 25 -20t25 20l240 1085h209l-341 -1403h-271z" />
    <glyph glyph-name="X" unicode="X" horiz-adv-x="1370" 
d="M693 486q-18 26 -49 26t-49 -26l-344 -486h-231l464 655q21 29 21 65t-21 65l-433 618h234l314 -447q18 -26 49 -26t49 26l316 447h230l-435 -616q-21 -30 -20.5 -65.5t20.5 -65.5l460 -656h-235z" />
    <glyph glyph-name="Y" unicode="Y" horiz-adv-x="1345" 
d="M743 0h-201v539q0 44 -22 79l-479 785h233l320 -529q19 -31 54.5 -31t54.5 31l316 529h225l-479 -785q-22 -35 -22 -79v-539z" />
    <glyph glyph-name="Y" unicode="&#x178;" horiz-adv-x="1345" 
d="M743 0h-201v539q0 44 -22 79l-479 785h233l320 -529q19 -31 54.5 -31t54.5 31l316 529h225l-479 -785q-22 -35 -22 -79v-539z" />
    <glyph glyph-name="Y" unicode="&#xdd;" horiz-adv-x="1345" 
d="M743 0h-201v539q0 44 -22 79l-479 785h233l320 -529q19 -31 54.5 -31t54.5 31l316 529h225l-479 -785q-22 -35 -22 -79v-539z" />
    <glyph glyph-name="Z" unicode="Z" horiz-adv-x="1277" 
d="M102 0v178l757 962q20 26 5.5 54.5t-46.5 28.5h-696v180h1033v-178l-756 -961q-20 -26 -6 -55t46 -29h736v-180h-1073z" />
    <glyph glyph-name="bracketleft" unicode="[" horiz-adv-x="636" 
d="M102 -287v1943h432v-166h-186q-24 0 -41.5 -17.5t-17.5 -41.5v-1492q0 -24 17.5 -41.5t41.5 -17.5h186v-167h-432z" />
    <glyph glyph-name="backslash" unicode="\" horiz-adv-x="987" 
d="M343 1404l541 -1404h-246l-536 1404h241z" />
    <glyph glyph-name="bracketright" unicode="]" horiz-adv-x="636" 
d="M534 1656v-1943h-432v167h187q24 0 41.5 17.5t17.5 41.5v1492q0 24 -17.5 41.5t-41.5 17.5h-187v166h432z" />
    <glyph glyph-name="asciicircum" unicode="^" horiz-adv-x="1447" 
d="M628 1389h189l528 -529l-124 -122l-319 319q-24 24 -56 11t-32 -47v-1021h-180v1022q0 35 -32 48t-56 -12l-319 -320l-125 122z" />
    <glyph glyph-name="underscore" unicode="_" horiz-adv-x="1716" 
d="M1614 0h-1512v167h1512v-167z" />
    <glyph glyph-name="a" unicode="a" horiz-adv-x="993" 
d="M916 232q0 -151 10 -221h-180q-8 38 -10 106q0 11 -10 14.5t-17 -5.5q-44 -59 -121.5 -97t-172.5 -38q-142 0 -236.5 84.5t-94.5 212.5q0 66 23 118.5t58.5 86t85.5 57t97.5 34t100.5 15.5l277 22v32q0 104 -56.5 162t-154.5 58h-10q-85 0 -143.5 -39t-67.5 -111h-190
q9 138 122 224.5t283 86.5q192 0 299.5 -109.5t107.5 -271.5v-421zM726 422v35q0 7 -5 12t-12 4l-234 -19q-90 -8 -145.5 -49.5t-55.5 -108.5q0 -62 46 -103t115 -41h20q112 0 191.5 79t79.5 191z" />
    <glyph glyph-name="a" unicode="&#xe5;" horiz-adv-x="993" 
d="M916 232q0 -151 10 -221h-180q-8 38 -10 106q0 11 -10 14.5t-17 -5.5q-44 -59 -121.5 -97t-172.5 -38q-142 0 -236.5 84.5t-94.5 212.5q0 66 23 118.5t58.5 86t85.5 57t97.5 34t100.5 15.5l277 22v32q0 104 -56.5 162t-154.5 58h-10q-85 0 -143.5 -39t-67.5 -111h-190
q9 138 122 224.5t283 86.5q192 0 299.5 -109.5t107.5 -271.5v-421zM726 422v35q0 7 -5 12t-12 4l-234 -19q-90 -8 -145.5 -49.5t-55.5 -108.5q0 -62 46 -103t115 -41h20q112 0 191.5 79t79.5 191z" />
    <glyph glyph-name="a" unicode="&#xe4;" horiz-adv-x="993" 
d="M916 232q0 -151 10 -221h-180q-8 38 -10 106q0 11 -10 14.5t-17 -5.5q-44 -59 -121.5 -97t-172.5 -38q-142 0 -236.5 84.5t-94.5 212.5q0 66 23 118.5t58.5 86t85.5 57t97.5 34t100.5 15.5l277 22v32q0 104 -56.5 162t-154.5 58h-10q-85 0 -143.5 -39t-67.5 -111h-190
q9 138 122 224.5t283 86.5q192 0 299.5 -109.5t107.5 -271.5v-421zM726 422v35q0 7 -5 12t-12 4l-234 -19q-90 -8 -145.5 -49.5t-55.5 -108.5q0 -62 46 -103t115 -41h20q112 0 191.5 79t79.5 191z" />
    <glyph glyph-name="a" unicode="&#xe3;" horiz-adv-x="993" 
d="M916 232q0 -151 10 -221h-180q-8 38 -10 106q0 11 -10 14.5t-17 -5.5q-44 -59 -121.5 -97t-172.5 -38q-142 0 -236.5 84.5t-94.5 212.5q0 66 23 118.5t58.5 86t85.5 57t97.5 34t100.5 15.5l277 22v32q0 104 -56.5 162t-154.5 58h-10q-85 0 -143.5 -39t-67.5 -111h-190
q9 138 122 224.5t283 86.5q192 0 299.5 -109.5t107.5 -271.5v-421zM726 422v35q0 7 -5 12t-12 4l-234 -19q-90 -8 -145.5 -49.5t-55.5 -108.5q0 -62 46 -103t115 -41h20q112 0 191.5 79t79.5 191z" />
    <glyph glyph-name="a" unicode="&#xe2;" horiz-adv-x="993" 
d="M916 232q0 -151 10 -221h-180q-8 38 -10 106q0 11 -10 14.5t-17 -5.5q-44 -59 -121.5 -97t-172.5 -38q-142 0 -236.5 84.5t-94.5 212.5q0 66 23 118.5t58.5 86t85.5 57t97.5 34t100.5 15.5l277 22v32q0 104 -56.5 162t-154.5 58h-10q-85 0 -143.5 -39t-67.5 -111h-190
q9 138 122 224.5t283 86.5q192 0 299.5 -109.5t107.5 -271.5v-421zM726 422v35q0 7 -5 12t-12 4l-234 -19q-90 -8 -145.5 -49.5t-55.5 -108.5q0 -62 46 -103t115 -41h20q112 0 191.5 79t79.5 191z" />
    <glyph glyph-name="a" unicode="&#xe1;" horiz-adv-x="993" 
d="M916 232q0 -151 10 -221h-180q-8 38 -10 106q0 11 -10 14.5t-17 -5.5q-44 -59 -121.5 -97t-172.5 -38q-142 0 -236.5 84.5t-94.5 212.5q0 66 23 118.5t58.5 86t85.5 57t97.5 34t100.5 15.5l277 22v32q0 104 -56.5 162t-154.5 58h-10q-85 0 -143.5 -39t-67.5 -111h-190
q9 138 122 224.5t283 86.5q192 0 299.5 -109.5t107.5 -271.5v-421zM726 422v35q0 7 -5 12t-12 4l-234 -19q-90 -8 -145.5 -49.5t-55.5 -108.5q0 -62 46 -103t115 -41h20q112 0 191.5 79t79.5 191z" />
    <glyph glyph-name="a" unicode="&#xe0;" horiz-adv-x="993" 
d="M916 232q0 -151 10 -221h-180q-8 38 -10 106q0 11 -10 14.5t-17 -5.5q-44 -59 -121.5 -97t-172.5 -38q-142 0 -236.5 84.5t-94.5 212.5q0 66 23 118.5t58.5 86t85.5 57t97.5 34t100.5 15.5l277 22v32q0 104 -56.5 162t-154.5 58h-10q-85 0 -143.5 -39t-67.5 -111h-190
q9 138 122 224.5t283 86.5q192 0 299.5 -109.5t107.5 -271.5v-421zM726 422v35q0 7 -5 12t-12 4l-234 -19q-90 -8 -145.5 -49.5t-55.5 -108.5q0 -62 46 -103t115 -41h20q112 0 191.5 79t79.5 191z" />
    <glyph glyph-name="b" unicode="b" horiz-adv-x="1157" 
d="M604 1034q195 0 323 -140.5t128 -381.5q0 -243 -119.5 -382t-311.5 -139q-91 0 -176.5 36t-132.5 92q-6 7 -14 4t-8 -12v-100h-191v1404h191v-500q0 -9 8.5 -12t14.5 4q46 57 122.5 92t165.5 35zM594 152q118 0 194 93t76 267t-76 267.5t-194 93.5h-20q-54 0 -103.5 -23
t-89.5 -66.5t-64 -114t-24 -157.5q0 -170 83.5 -265t197.5 -95h20z" />
    <glyph glyph-name="c" unicode="c" horiz-adv-x="1071" 
d="M567 152q83 0 140 53t71 137h190q-15 -162 -126.5 -256.5t-284.5 -94.5q-150 0 -260.5 69t-165.5 186t-55 266t55 266t165.5 186.5t260.5 69.5q173 0 284.5 -94.5t126.5 -256.5h-190q-14 84 -71 137t-140 53h-20q-135 0 -208 -104t-73 -257t73 -256.5t208 -103.5h20z" />
    <glyph glyph-name="c" unicode="&#xe7;" horiz-adv-x="1071" 
d="M567 152q83 0 140 53t71 137h190q-15 -162 -126.5 -256.5t-284.5 -94.5q-150 0 -260.5 69t-165.5 186t-55 266t55 266t165.5 186.5t260.5 69.5q173 0 284.5 -94.5t126.5 -256.5h-190q-14 84 -71 137t-140 53h-20q-135 0 -208 -104t-73 -257t73 -256.5t208 -103.5h20z" />
    <glyph glyph-name="d" unicode="d" horiz-adv-x="1120" 
d="M827 1415h191v-1404h-191v80q0 14 -12.5 19t-22.5 -5q-49 -51 -129.5 -82.5t-165.5 -31.5q-192 0 -311.5 139t-119.5 382q0 241 128 381.5t323 140.5q83 0 155.5 -30.5t119.5 -81.5q9 -10 22 -5t13 19v479zM547 152q54 0 103 23t89 66t64 113.5t24 157.5t-24 157.5
t-64 114t-89 66.5t-103 23h-20q-118 0 -194.5 -93.5t-76.5 -267.5t76.5 -267t194.5 -93h20z" />
    <glyph glyph-name="e" unicode="e" horiz-adv-x="991" 
d="M266 482q-16 0 -26.5 -12t-8.5 -28q18 -140 100 -215t179 -75h12q80 0 140.5 40t74.5 116h190q-23 -150 -139 -233.5t-278 -83.5q-95 0 -179 33t-150.5 96.5t-105 165.5t-38.5 229t40.5 229.5t108.5 165t152 94.5t176 30q174 -4 294.5 -132.5t120.5 -304.5v-115h-663z
M251 680q-5 -17 5.5 -32t28.5 -15h414q16 0 27 12t9 28q-15 102 -76 151t-145 49h-20q-78 0 -144.5 -46.5t-98.5 -146.5z" />
    <glyph glyph-name="e" unicode="&#xeb;" horiz-adv-x="991" 
d="M266 482q-16 0 -26.5 -12t-8.5 -28q18 -140 100 -215t179 -75h12q80 0 140.5 40t74.5 116h190q-23 -150 -139 -233.5t-278 -83.5q-95 0 -179 33t-150.5 96.5t-105 165.5t-38.5 229t40.5 229.5t108.5 165t152 94.5t176 30q174 -4 294.5 -132.5t120.5 -304.5v-115h-663z
M251 680q-5 -17 5.5 -32t28.5 -15h414q16 0 27 12t9 28q-15 102 -76 151t-145 49h-20q-78 0 -144.5 -46.5t-98.5 -146.5z" />
    <glyph glyph-name="e" unicode="&#xea;" horiz-adv-x="991" 
d="M266 482q-16 0 -26.5 -12t-8.5 -28q18 -140 100 -215t179 -75h12q80 0 140.5 40t74.5 116h190q-23 -150 -139 -233.5t-278 -83.5q-95 0 -179 33t-150.5 96.5t-105 165.5t-38.5 229t40.5 229.5t108.5 165t152 94.5t176 30q174 -4 294.5 -132.5t120.5 -304.5v-115h-663z
M251 680q-5 -17 5.5 -32t28.5 -15h414q16 0 27 12t9 28q-15 102 -76 151t-145 49h-20q-78 0 -144.5 -46.5t-98.5 -146.5z" />
    <glyph glyph-name="e" unicode="&#xe9;" horiz-adv-x="991" 
d="M266 482q-16 0 -26.5 -12t-8.5 -28q18 -140 100 -215t179 -75h12q80 0 140.5 40t74.5 116h190q-23 -150 -139 -233.5t-278 -83.5q-95 0 -179 33t-150.5 96.5t-105 165.5t-38.5 229t40.5 229.5t108.5 165t152 94.5t176 30q174 -4 294.5 -132.5t120.5 -304.5v-115h-663z
M251 680q-5 -17 5.5 -32t28.5 -15h414q16 0 27 12t9 28q-15 102 -76 151t-145 49h-20q-78 0 -144.5 -46.5t-98.5 -146.5z" />
    <glyph glyph-name="e" unicode="&#xe8;" horiz-adv-x="991" 
d="M266 482q-16 0 -26.5 -12t-8.5 -28q18 -140 100 -215t179 -75h12q80 0 140.5 40t74.5 116h190q-23 -150 -139 -233.5t-278 -83.5q-95 0 -179 33t-150.5 96.5t-105 165.5t-38.5 229t40.5 229.5t108.5 165t152 94.5t176 30q174 -4 294.5 -132.5t120.5 -304.5v-115h-663z
M251 680q-5 -17 5.5 -32t28.5 -15h414q16 0 27 12t9 28q-15 102 -76 151t-145 49h-20q-78 0 -144.5 -46.5t-98.5 -146.5z" />
    <glyph glyph-name="f" unicode="f" horiz-adv-x="798" 
d="M465 1237q-18 0 -30.5 -12.5t-12.5 -30.5v-137q0 -18 12.5 -30t30.5 -12h238v-157h-238q-18 0 -30.5 -12.5t-12.5 -30.5v-804h-191v804q0 18 -12 30.5t-30 12.5h-148v157h148q18 0 30 12t12 30v358h522v-178h-288z" />
    <glyph glyph-name="g" unicode="g" horiz-adv-x="1097" 
d="M803 1014h190v-1003q0 -193 -131.5 -317t-359.5 -124q-205 0 -327.5 86t-137.5 225h190q15 -73 87 -111.5t178 -38.5h20q134 0 212.5 74t78.5 226v78q0 14 -13.5 19.5t-23.5 -5.5q-103 -112 -264 -112q-89 0 -167.5 31t-141.5 92t-99.5 161t-36.5 227q0 128 36 227.5
t98 160.5t141 92.5t170 31.5q83 0 151.5 -30t112.5 -78q10 -11 23.5 -5.5t13.5 19.5v74zM528 172q109 0 192 96.5t83 254.5q0 159 -78.5 254.5t-186.5 95.5h-20q-116 0 -193.5 -87t-77.5 -263q0 -178 73.5 -264.5t187.5 -86.5h20z" />
    <glyph glyph-name="h" unicode="h" horiz-adv-x="1077" 
d="M614 1034q171 0 266 -95t95 -256v-672h-191v642q0 91 -64 155.5t-156 64.5q-111 0 -191 -81.5t-80 -218.5v-562h-191v1404h191v-463q0 -19 17.5 -26t30.5 6q104 102 273 102z" />
    <glyph glyph-name="i" unicode="i" horiz-adv-x="397" 
d="M284 10h-190v1003h190v-1003zM189 1414q43 0 74 -31t31 -75v-10q0 -44 -31 -74.5t-74 -30.5t-74 30.5t-31 74.5v10q0 44 31 75t74 31z" />
    <glyph glyph-name="i" unicode="&#xef;" horiz-adv-x="397" 
d="M284 10h-190v1003h190v-1003zM189 1414q43 0 74 -31t31 -75v-10q0 -44 -31 -74.5t-74 -30.5t-74 30.5t-31 74.5v10q0 44 31 75t74 31z" />
    <glyph glyph-name="i" unicode="&#xee;" horiz-adv-x="397" 
d="M284 10h-190v1003h190v-1003zM189 1414q43 0 74 -31t31 -75v-10q0 -44 -31 -74.5t-74 -30.5t-74 30.5t-31 74.5v10q0 44 31 75t74 31z" />
    <glyph glyph-name="i" unicode="&#xed;" horiz-adv-x="397" 
d="M284 10h-190v1003h190v-1003zM189 1414q43 0 74 -31t31 -75v-10q0 -44 -31 -74.5t-74 -30.5t-74 30.5t-31 74.5v10q0 44 31 75t74 31z" />
    <glyph glyph-name="i" unicode="&#xec;" horiz-adv-x="397" 
d="M284 10h-190v1003h190v-1003zM189 1414q43 0 74 -31t31 -75v-10q0 -44 -31 -74.5t-74 -30.5t-74 30.5t-31 74.5v10q0 44 31 75t74 31z" />
    <glyph glyph-name="j" unicode="j" horiz-adv-x="569" 
d="M228 -142v1155h191v-1382h-521v178h282q20 0 34 14.5t14 34.5zM324 1414q44 0 74.5 -31t30.5 -74v-10q0 -43 -30.5 -74t-74.5 -31t-75 31t-31 74v10q0 43 31 74t75 31z" />
    <glyph glyph-name="k" unicode="k" horiz-adv-x="1054" 
d="M623 580l412 -569h-234l-320 447q-8 11 -20.5 12t-21.5 -8l-101 -98q-14 -14 -14 -35v-318h-191v1404h191v-768q0 -19 17 -26t30 6l394 387h250l-386 -370q-13 -13 -15 -31t9 -33z" />
    <glyph glyph-name="l" unicode="l" horiz-adv-x="438" 
d="M293 11h-191v1404h191v-1404z" />
    <glyph glyph-name="m" unicode="m" horiz-adv-x="1718" 
d="M1255 1034q171 0 266 -95t95 -256v-672h-190v642q0 91 -64.5 155.5t-156.5 64.5q-97 0 -173.5 -82.5t-76.5 -217.5v-562h-191v642q0 91 -64.5 155.5t-156.5 64.5q-97 0 -173.5 -82.5t-76.5 -217.5v-562h-191v1003h191v-33q0 -26 23.5 -37t43.5 6q99 84 234 84
q200 0 299 -135q12 -17 32 -17.5t33 15.5q108 137 297 137z" />
    <glyph glyph-name="n" unicode="n" horiz-adv-x="1067" 
d="M614 1034q171 0 266 -95t95 -256v-672h-191v642q0 91 -64 155.5t-156 64.5q-111 0 -191 -81.5t-80 -218.5v-562h-191v1003h191v-61q0 -19 17.5 -26.5t31.5 6.5q103 101 272 101z" />
    <glyph glyph-name="n" unicode="&#xf1;" horiz-adv-x="1067" 
d="M614 1034q171 0 266 -95t95 -256v-672h-191v642q0 91 -64 155.5t-156 64.5q-111 0 -191 -81.5t-80 -218.5v-562h-191v1003h191v-61q0 -19 17.5 -26.5t31.5 6.5q103 101 272 101z" />
    <glyph glyph-name="o" unicode="o" horiz-adv-x="1036" 
d="M508 1034q206 0 343.5 -146t137.5 -376t-137.5 -375.5t-343.5 -145.5t-343.5 145.5t-137.5 375.5t137.5 376t343.5 146zM518 152q124 0 202.5 95.5t78.5 264.5t-78.5 265t-202.5 96h-20q-124 0 -202.5 -96t-78.5 -265t78.5 -264.5t202.5 -95.5h20z" />
    <glyph glyph-name="o" unicode="&#xf8;" horiz-adv-x="1036" 
d="M508 1034q206 0 343.5 -146t137.5 -376t-137.5 -375.5t-343.5 -145.5t-343.5 145.5t-137.5 375.5t137.5 376t343.5 146zM518 152q124 0 202.5 95.5t78.5 264.5t-78.5 265t-202.5 96h-20q-124 0 -202.5 -96t-78.5 -265t78.5 -264.5t202.5 -95.5h20z" />
    <glyph glyph-name="o" unicode="&#xf6;" horiz-adv-x="1036" 
d="M508 1034q206 0 343.5 -146t137.5 -376t-137.5 -375.5t-343.5 -145.5t-343.5 145.5t-137.5 375.5t137.5 376t343.5 146zM518 152q124 0 202.5 95.5t78.5 264.5t-78.5 265t-202.5 96h-20q-124 0 -202.5 -96t-78.5 -265t78.5 -264.5t202.5 -95.5h20z" />
    <glyph glyph-name="o" unicode="&#xf5;" horiz-adv-x="1036" 
d="M508 1034q206 0 343.5 -146t137.5 -376t-137.5 -375.5t-343.5 -145.5t-343.5 145.5t-137.5 375.5t137.5 376t343.5 146zM518 152q124 0 202.5 95.5t78.5 264.5t-78.5 265t-202.5 96h-20q-124 0 -202.5 -96t-78.5 -265t78.5 -264.5t202.5 -95.5h20z" />
    <glyph glyph-name="o" unicode="&#xf4;" horiz-adv-x="1036" 
d="M508 1034q206 0 343.5 -146t137.5 -376t-137.5 -375.5t-343.5 -145.5t-343.5 145.5t-137.5 375.5t137.5 376t343.5 146zM518 152q124 0 202.5 95.5t78.5 264.5t-78.5 265t-202.5 96h-20q-124 0 -202.5 -96t-78.5 -265t78.5 -264.5t202.5 -95.5h20z" />
    <glyph glyph-name="o" unicode="&#xf3;" horiz-adv-x="1036" 
d="M508 1034q206 0 343.5 -146t137.5 -376t-137.5 -375.5t-343.5 -145.5t-343.5 145.5t-137.5 375.5t137.5 376t343.5 146zM518 152q124 0 202.5 95.5t78.5 264.5t-78.5 265t-202.5 96h-20q-124 0 -202.5 -96t-78.5 -265t78.5 -264.5t202.5 -95.5h20z" />
    <glyph glyph-name="o" unicode="&#xf2;" horiz-adv-x="1036" 
d="M508 1034q206 0 343.5 -146t137.5 -376t-137.5 -375.5t-343.5 -145.5t-343.5 145.5t-137.5 375.5t137.5 376t343.5 146zM518 152q124 0 202.5 95.5t78.5 264.5t-78.5 265t-202.5 96h-20q-124 0 -202.5 -96t-78.5 -265t78.5 -264.5t202.5 -95.5h20z" />
    <glyph glyph-name="p" unicode="p" horiz-adv-x="1105" 
d="M624 1034q192 0 311.5 -139.5t119.5 -382.5q0 -241 -128 -381t-323 -140q-78 0 -147.5 27t-116.5 73q-14 13 -30.5 6t-16.5 -26v-461h-191v1404h191v-63q0 -18 16.5 -25.5t29.5 4.5q51 47 128 75.5t157 28.5zM594 152q118 0 194 93t76 267t-76 267.5t-194 93.5h-20
q-54 0 -103.5 -23t-89.5 -66.5t-64 -114t-24 -157.5q0 -170 83.5 -265t197.5 -95h20z" />
    <glyph glyph-name="q" unicode="q" horiz-adv-x="1128" 
d="M836 1014h190v-1404h-190v452q0 20 -19 29t-34 -5q-105 -95 -258 -95q-195 0 -323 140t-128 381q0 243 119.5 382.5t311.5 139.5q78 0 152.5 -27t125.5 -71q16 -13 34.5 -4.5t18.5 28.5v54zM555 152q114 0 197.5 95t83.5 265q0 87 -24 157.5t-64 114t-89.5 66.5
t-103.5 23h-20q-118 0 -194.5 -93.5t-76.5 -267.5t76.5 -267t194.5 -93h20z" />
    <glyph glyph-name="r" unicode="r" horiz-adv-x="702" 
d="M594 1024h90v-185h-80q-135 0 -213 -85t-78 -235v-508h-190v1003h180v-99q0 -19 19 -25.5t30 9.5q42 61 105.5 93t136.5 32z" />
    <glyph glyph-name="s" unicode="s" horiz-adv-x="954" 
d="M566 585q125 -25 201 -95.5t76 -197.5q0 -135 -110 -218t-285 -83q-193 0 -298 91t-113 240h190q9 -81 70 -125.5t151 -44.5h20q79 0 131.5 35.5t52.5 94.5q0 50 -32 82t-104 46l-146 28q-133 26 -213 96.5t-80 190.5q0 96 53.5 168t138.5 106.5t187 34.5
q191 0 294 -91.5t103 -239.5h-191q-8 73 -58.5 121.5t-135.5 48.5h-20q-81 0 -131 -37t-50 -91q0 -100 141 -128z" />
    <glyph glyph-name="t" unicode="t" horiz-adv-x="823" 
d="M474 187h289v-178h-522v805q0 17 -12.5 30t-29.5 13h-176v157h176q17 0 29.5 12.5t12.5 29.5v283h191v-283q0 -17 12.5 -29.5t29.5 -12.5h210v-157h-210q-17 0 -29.5 -13t-12.5 -30v-585q0 -17 12.5 -29.5t29.5 -12.5z" />
    <glyph glyph-name="u" unicode="u" horiz-adv-x="1056" 
d="M950 1024q5 0 5 -5v-993q0 -5 -5 -5h-181q-5 0 -5 5v63q0 23 -21.5 31t-37.5 -9q-96 -110 -262 -110q-164 0 -252.5 99t-88.5 262v657q0 5 5 5h181q5 0 5 -5v-617q0 -240 200 -240h20q100 0 175.5 88.5t75.5 231.5v537q0 5 5 5h181z" />
    <glyph glyph-name="u" unicode="&#xfc;" horiz-adv-x="1056" 
d="M950 1024q5 0 5 -5v-993q0 -5 -5 -5h-181q-5 0 -5 5v63q0 23 -21.5 31t-37.5 -9q-96 -110 -262 -110q-164 0 -252.5 99t-88.5 262v657q0 5 5 5h181q5 0 5 -5v-617q0 -240 200 -240h20q100 0 175.5 88.5t75.5 231.5v537q0 5 5 5h181z" />
    <glyph glyph-name="u" unicode="&#xfb;" horiz-adv-x="1056" 
d="M950 1024q5 0 5 -5v-993q0 -5 -5 -5h-181q-5 0 -5 5v63q0 23 -21.5 31t-37.5 -9q-96 -110 -262 -110q-164 0 -252.5 99t-88.5 262v657q0 5 5 5h181q5 0 5 -5v-617q0 -240 200 -240h20q100 0 175.5 88.5t75.5 231.5v537q0 5 5 5h181z" />
    <glyph glyph-name="u" unicode="&#xfa;" horiz-adv-x="1056" 
d="M950 1024q5 0 5 -5v-993q0 -5 -5 -5h-181q-5 0 -5 5v63q0 23 -21.5 31t-37.5 -9q-96 -110 -262 -110q-164 0 -252.5 99t-88.5 262v657q0 5 5 5h181q5 0 5 -5v-617q0 -240 200 -240h20q100 0 175.5 88.5t75.5 231.5v537q0 5 5 5h181z" />
    <glyph glyph-name="u" unicode="&#xf9;" horiz-adv-x="1056" 
d="M950 1024q5 0 5 -5v-993q0 -5 -5 -5h-181q-5 0 -5 5v63q0 23 -21.5 31t-37.5 -9q-96 -110 -262 -110q-164 0 -252.5 99t-88.5 262v657q0 5 5 5h181q5 0 5 -5v-617q0 -240 200 -240h20q100 0 175.5 88.5t75.5 231.5v537q0 5 5 5h181z" />
    <glyph glyph-name="v" unicode="v" horiz-adv-x="1050" 
d="M809 1014h194l-371 -1003h-230l-371 1003h196l258 -724q8 -23 33 -23t33 23z" />
    <glyph glyph-name="w" unicode="w" horiz-adv-x="1587" 
d="M1324 1014h201l-311 -1003h-211l-199 708q-4 17 -21 17t-22 -17l-199 -708h-210l-311 1003h200l200 -716q5 -16 21 -16t21 16l200 716h200l208 -716q5 -16 21.5 -16t21.5 17z" />
    <glyph glyph-name="x" unicode="x" horiz-adv-x="1024" 
d="M675 491l349 -480h-223l-235 324q-9 13 -25 13t-26 -13l-237 -324h-217l349 476q22 30 1 59l-340 468h223l225 -310q9 -13 25 -13t26 13l227 310h217l-339 -464q-21 -30 0 -59z" />
    <glyph glyph-name="y" unicode="y" horiz-adv-x="1030" 
d="M816 1014h197l-411 -981v-3h-2v-390h-540v171h320q17 0 29 12t12 29v179l-421 983h202l281 -663q9 -22 32 -21.5t32 22.5z" />
    <glyph glyph-name="y" unicode="&#xff;" horiz-adv-x="1030" 
d="M816 1014h197l-411 -981v-3h-2v-390h-540v171h320q17 0 29 12t12 29v179l-421 983h202l281 -663q9 -22 32 -21.5t32 22.5z" />
    <glyph glyph-name="y" unicode="&#xfd;" horiz-adv-x="1030" 
d="M816 1014h197l-411 -981v-3h-2v-390h-540v171h320q17 0 29 12t12 29v179l-421 983h202l281 -663q9 -22 32 -21.5t32 22.5z" />
    <glyph glyph-name="z" unicode="z" horiz-adv-x="1036" 
d="M408 176h526v-165h-832v171l525 606q16 18 5.5 39.5t-34.5 21.5h-486v165h792v-171l-524 -606q-16 -18 -6 -39.5t34 -21.5z" />
    <glyph glyph-name="nonbreakingspace" unicode="&#xa0;" horiz-adv-x="581" 
 />
    <glyph glyph-name="softhyphen" unicode="&#xad;" 
 />
    <glyph glyph-name="emdash" unicode="&#x2014;" horiz-adv-x="1361" 
d="M1260 541h-1158v167h1158v-167z" />
    </font>
</defs>
</svg>
