<?xml version="1.0" standalone="no"?>
<!DOCTYPE svg PUBLIC "-//W3C//DTD SVG 1.1//EN" "http://www.w3.org/Graphics/SVG/1.1/DTD/svg11.dtd" >
<svg xmlns="http://www.w3.org/2000/svg" xmlns:xlink="http://www.w3.org/1999/xlink" version="1.1">
<metadata>
Created by FontForge 20170731 at Tue Sep 12 15:23:52 2023
 By Aleksey,,,
Copyright (c) 2011 by Ian Party, distributed by B&#38;P Foundry Srl, Switzerland, d/b/a b+p swiss typefaces: http://www.swisstypefaces.com. All rights reserved.
</metadata>
<defs>
<font id="SuisseBPIntl-Medium" horiz-adv-x="729" >
  <font-face 
    font-family="Suisse BP Int'l Medium"
    font-weight="500"
    font-stretch="normal"
    units-per-em="2048"
    panose-1="0 0 0 0 0 0 0 0 0 0"
    ascent="1536"
    descent="-512"
    x-height="1004"
    cap-height="1360"
    bbox="-455 -457 2427 1890"
    underline-thickness="102"
    underline-position="-307"
    unicode-range="U+0020-FB06"
  />
<missing-glyph horiz-adv-x="0" 
 />
    <glyph glyph-name="f_f" unicode="ff" horiz-adv-x="1228" 
d="M158 1004v63q0 91 17 147.5t59.5 89t103 44.5t158.5 12h90v-184h-66q-85 0 -110 -23.5t-25 -103.5v-45h201v-175h-201v-829h-227v829h-144v175h144zM772 1004v63q0 91 17 147.5t59.5 89t103 44.5t158.5 12h90v-184h-65q-85 0 -110.5 -24t-25.5 -103v-45h201v-175h-201
v-829h-227v829h-143v175h143z" />
    <glyph glyph-name="fi" unicode="fi" horiz-adv-x="1093" 
d="M741 1004h228v-1004h-228v1004zM741 1360h228v-230h-228v230zM158 1004v63q0 91 17 147.5t59.5 89t103 44.5t158.5 12h90v-184h-66q-85 0 -110 -23.5t-25 -103.5v-45h201v-175h-201v-829h-227v829h-144v175h144z" />
    <glyph glyph-name="fl" unicode="fl" horiz-adv-x="1093" 
d="M969 1360v-1360h-228v1360h228zM158 1004v63q0 91 17 147.5t59.5 89t103 44.5t158.5 12h90v-184h-66q-85 0 -110 -23.5t-25 -103.5v-45h201v-175h-201v-829h-227v829h-144v175h144z" />
    <glyph glyph-name="f_f_i" unicode="ffi" horiz-adv-x="1708" 
d="M1356 1004h227v-1004h-227v1004zM1356 1360h227v-230h-227v230zM158 1004v63q0 91 17 147.5t59.5 89t103 44.5t158.5 12h90v-184h-66q-85 0 -110 -23.5t-25 -103.5v-45h201v-175h-201v-829h-227v829h-144v175h144zM772 1004v63q0 91 17 147.5t59.5 89t103 44.5t158.5 12
h90v-184h-65q-85 0 -110.5 -24t-25.5 -103v-45h201v-175h-201v-829h-227v829h-143v175h143z" />
    <glyph glyph-name="f_f_l" unicode="ffl" horiz-adv-x="1708" 
d="M1583 1360v-1360h-227v1360h227zM158 1004v63q0 91 17 147.5t59.5 89t103 44.5t158.5 12h90v-184h-66q-85 0 -110 -23.5t-25 -103.5v-45h201v-175h-201v-829h-227v829h-144v175h144zM772 1004v63q0 91 17 147.5t59.5 89t103 44.5t158.5 12h90v-184h-65q-85 0 -110.5 -24
t-25.5 -103v-45h201v-175h-201v-829h-227v829h-143v175h143z" />
    <glyph glyph-name="s_t" unicode="st" horiz-adv-x="1648" 
d="M936 723l-213 -29q-17 74 -81 116t-159 42q-80 0 -134 -27.5t-54 -76.5q0 -86 156 -119l118 -25q71 -16 119.5 -30t101.5 -38t84.5 -53.5t52.5 -75t21 -102.5q0 -103 -60.5 -179t-158.5 -113.5t-219 -37.5q-192 0 -315.5 95t-139.5 237l221 33q14 -86 76 -139.5
t166 -53.5q95 0 151 33t56 94q0 30 -14.5 52t-44 37.5t-59.5 25t-75 19.5l-133 28q-56 12 -101 27t-87 39.5t-70 55.5t-44.5 75.5t-16.5 99.5q0 131 121.5 211t298.5 80q107 0 198 -33.5t155 -102.5t83 -165zM1161 1004v290h228v-290h204v-175h-204v-520q0 -78 24 -103.5
t96 -25.5h82v-180h-166q-84 0 -134 12t-80 44.5t-40 81t-10 130.5v561h-151v175h151z" />
    <glyph glyph-name="f_b" unicode="fb" horiz-adv-x="1751" 
d="M741 0v1360h228v-475q97 139 293 139q191 0 310.5 -141.5t119.5 -384.5q0 -238 -126 -380.5t-321 -142.5q-183 0 -280 127l-4 -102h-220zM1214 842q-116 0 -186 -89.5t-70 -254.5q0 -162 69.5 -251t186.5 -89t180.5 92t63.5 250t-63 250t-181 92zM158 1004v63
q0 91 17 147.5t59.5 89t103 44.5t158.5 12h90v-184h-66q-85 0 -110 -23.5t-25 -103.5v-45h201v-175h-201v-829h-227v829h-144v175h144z" />
    <glyph glyph-name="f_h" unicode="fh" horiz-adv-x="1734" 
d="M1399 0v563q0 86 -12 139.5t-44 85.5q-48 48 -137 48q-237 0 -237 -316v-520h-228v1360h228v-481q43 69 123 107t186 38q196 0 283 -125q65 -95 65 -278v-621h-227zM158 1004v63q0 91 17 147.5t59.5 89t103 44.5t158.5 12h90v-184h-66q-85 0 -110 -23.5t-25 -103.5v-45
h201v-175h-201v-829h-227v829h-144v175h144z" />
    <glyph glyph-name="f_k" unicode="fk" horiz-adv-x="1632" 
d="M741 1360h228v-752l379 396h270l-361 -375l388 -629h-263l-282 465l-131 -137v-328h-228v1360zM158 1004v63q0 91 17 147.5t59.5 89t103 44.5t158.5 12h90v-184h-66q-85 0 -110 -23.5t-25 -103.5v-45h201v-175h-201v-829h-227v829h-144v175h144z" />
    <glyph glyph-name="f_j" unicode="fj" horiz-adv-x="1095" 
d="M741 -35v1039h228v-1039q0 -132 -26.5 -199t-88 -93.5t-182.5 -26.5h-76v186h41q69 0 86.5 24.5t17.5 108.5zM741 1360h228v-230h-228v230zM158 1004v63q0 91 17 147.5t59.5 89t103 44.5t158.5 12h90v-184h-66q-85 0 -110 -23.5t-25 -103.5v-45h201v-175h-201v-829h-227
v829h-144v175h144z" />
    <glyph glyph-name="f_t" unicode="ft" horiz-adv-x="1261" 
d="M774 1004v290h227v-290h205v-175h-205v-520q0 -78 24.5 -103.5t96.5 -25.5h82v-180h-166q-84 0 -134 12t-80 44.5t-40 81t-10 130.5v561h-151v175h151zM158 1004v63q0 91 17 147.5t59.5 89t103 44.5t158.5 12h90v-184h-66q-85 0 -110 -23.5t-25 -103.5v-45h201v-175h-201
v-829h-227v829h-144v175h144z" />
    <glyph glyph-name="f_f_j" unicode="ffj" horiz-adv-x="1710" 
d="M1356 -35v1039h227v-1039q0 -132 -26.5 -199t-88 -93.5t-182.5 -26.5h-76v186h41q69 0 87 24.5t18 108.5zM1356 1360h227v-230h-227v230zM158 1004v63q0 91 17 147.5t59.5 89t103 44.5t158.5 12h90v-184h-66q-85 0 -110 -23.5t-25 -103.5v-45h201v-175h-201v-829h-227
v829h-144v175h144zM772 1004v63q0 91 17 147.5t59.5 89t103 44.5t158.5 12h90v-184h-65q-85 0 -110.5 -24t-25.5 -103v-45h201v-175h-201v-829h-227v829h-143v175h143z" />
    <glyph glyph-name="f_f_k" unicode="ffk" horiz-adv-x="2248" 
d="M1356 1360h227v-752l379 396h270l-360 -375l387 -629h-262l-283 465l-131 -137v-328h-227v1360zM158 1004v63q0 91 17 147.5t59.5 89t103 44.5t158.5 12h90v-184h-66q-85 0 -110 -23.5t-25 -103.5v-45h201v-175h-201v-829h-227v829h-144v175h144zM772 1004v63
q0 91 17 147.5t59.5 89t103 44.5t158.5 12h90v-184h-65q-85 0 -110.5 -24t-25.5 -103v-45h201v-175h-201v-829h-227v829h-143v175h143z" />
    <glyph glyph-name="f_f_t" unicode="fft" horiz-adv-x="1875" 
d="M1389 1004v290h227v-290h205v-175h-205v-520q0 -78 24.5 -103.5t96.5 -25.5h82v-180h-166q-84 0 -134 12t-80 44.5t-40 81t-10 130.5v561h-152v175h152zM158 1004v63q0 91 17 147.5t59.5 89t103 44.5t158.5 12h90v-184h-66q-85 0 -110 -23.5t-25 -103.5v-45h201v-175
h-201v-829h-227v829h-144v175h144zM772 1004v63q0 91 17 147.5t59.5 89t103 44.5t158.5 12h90v-184h-65q-85 0 -110.5 -24t-25.5 -103v-45h201v-175h-201v-829h-227v829h-143v175h143z" />
    <glyph glyph-name="f_f_b" unicode="ffb" horiz-adv-x="2365" 
d="M1356 0v1360h227v-475q97 139 293 139q191 0 310.5 -141.5t119.5 -384.5q0 -238 -125.5 -380.5t-320.5 -142.5q-94 0 -165.5 34.5t-115.5 92.5l-4 -102h-219zM1829 842q-116 0 -186 -89.5t-70 -254.5q0 -162 69.5 -251t186.5 -89t180.5 92t63.5 250t-63 250t-181 92z
M158 1004v63q0 91 17 147.5t59.5 89t103 44.5t158.5 12h90v-184h-66q-85 0 -110 -23.5t-25 -103.5v-45h201v-175h-201v-829h-227v829h-144v175h144zM772 1004v63q0 91 17 147.5t59.5 89t103 44.5t158.5 12h90v-184h-65q-85 0 -110.5 -24t-25.5 -103v-45h201v-175h-201v-829
h-227v829h-143v175h143z" />
    <glyph glyph-name="f_f_h" unicode="ffh" horiz-adv-x="2349" 
d="M2013 0v563q0 87 -11.5 140t-43.5 85q-48 48 -137 48q-124 0 -181 -84.5t-57 -231.5v-520h-227v1360h227v-481q43 69 123 107t186 38q196 0 283 -125q66 -97 66 -278v-621h-228zM158 1004v63q0 91 17 147.5t59.5 89t103 44.5t158.5 12h90v-184h-66q-85 0 -110 -23.5
t-25 -103.5v-45h201v-175h-201v-829h-227v829h-144v175h144zM772 1004v63q0 91 17 147.5t59.5 89t103 44.5t158.5 12h90v-184h-65q-85 0 -110.5 -24t-25.5 -103v-45h201v-175h-201v-829h-227v829h-143v175h143z" />
    <glyph glyph-name="s_p" unicode="sp" horiz-adv-x="2138" 
d="M1356 102v-456h-228v1358h220l2 -123q100 143 299 143q191 0 310.5 -141.5t119.5 -384.5q0 -238 -126 -380.5t-321 -142.5q-179 0 -276 127zM1602 842q-116 0 -186 -89.5t-70 -254.5q0 -162 69.5 -251t186.5 -89t180 92t63 250q0 159 -62.5 250.5t-180.5 91.5zM936 723
l-213 -29q-17 74 -81 116t-159 42q-80 0 -134 -27.5t-54 -76.5q0 -86 156 -119l118 -25q71 -16 119.5 -30t101.5 -38t84.5 -53.5t52.5 -75t21 -102.5q0 -103 -60.5 -179t-158.5 -113.5t-219 -37.5q-192 0 -315.5 95t-139.5 237l221 33q14 -86 76 -139.5t166 -53.5
q95 0 151 33t56 94q0 30 -14.5 52t-44 37.5t-59.5 25t-75 19.5l-133 28q-56 12 -101 27t-87 39.5t-70 55.5t-44.5 75.5t-16.5 99.5q0 131 121.5 211t298.5 80q107 0 198 -33.5t155 -102.5t83 -165z" />
    <glyph glyph-name="c_t" unicode="ct" horiz-adv-x="1708" 
d="M557 1024q171 0 295 -93.5t156 -250.5l-220 -31q-16 86 -77.5 139.5t-159.5 53.5q-115 0 -186.5 -88t-71.5 -252q0 -166 72 -255t186 -89q92 0 157.5 48t86.5 146l221 -28q-25 -109 -94 -189t-165.5 -120t-209.5 -40q-227 0 -357.5 145.5t-130.5 379.5t133 379t365 145z
M1219 1004v290h227v-290h205v-175h-205v-520q0 -78 24.5 -103.5t96.5 -25.5h82v-180h-166q-84 0 -134 12t-80 44.5t-40 81t-10 130.5v561h-152v175h152z" />
    <glyph glyph-name="t_t" unicode="tt" horiz-adv-x="1296" 
d="M160 1004v290h227v-290h205v-175h-205v-520q0 -78 24.5 -103.5t96.5 -25.5h82v-180h-166q-84 0 -134 12t-80 44.5t-40 81t-10 130.5v561h-152v175h152zM807 1004v290h227v-290h205v-175h-205v-520q0 -78 24.5 -103.5t96.5 -25.5h82v-180h-166q-84 0 -134 12t-80 44.5
t-40 81t-10 130.5v561h-152v175h152z" />
    <glyph glyph-name="t_f" unicode="tf" horiz-adv-x="1261" 
d="M160 1004v290h227v-290h205v-175h-205v-520q0 -78 24.5 -103.5t96.5 -25.5h82v-180h-166q-84 0 -134 12t-80 44.5t-40 81t-10 130.5v561h-152v175h152zM805 1004v63q0 91 17 147.5t59.5 89t103 44.5t158.5 12h90v-184h-66q-85 0 -110 -23.5t-25 -103.5v-45h201v-175h-201
v-829h-227v829h-143v175h143z" />
    <glyph glyph-name=".notdef" horiz-adv-x="0" 
 />
    <glyph glyph-name=".null" horiz-adv-x="0" 
 />
    <glyph glyph-name="nonmarkingreturn" horiz-adv-x="682" 
 />
    <glyph glyph-name="space" unicode=" " horiz-adv-x="438" 
 />
    <glyph glyph-name="exclam" unicode="!" horiz-adv-x="503" 
d="M326 406h-148l-43 595v359h230v-359zM381 0h-258v248h258v-248z" />
    <glyph glyph-name="quotedbl" unicode="&#x22;" horiz-adv-x="626" 
d="M35 1360h246l-39 -490h-168zM344 1360h244l-39 -490h-166z" />
    <glyph glyph-name="numbersign" unicode="#" horiz-adv-x="1335" 
d="M115 1026h266l47 330h199l-47 -330h270l47 330h199l-47 -330h260l-23 -178h-262l-41 -295h258l-20 -176h-263l-53 -377h-198l53 377h-271l-53 -377h-198l53 377h-264l22 176h266l41 295h-262zM555 848l-41 -295h270l41 295h-270z" />
    <glyph glyph-name="dollar" unicode="$" horiz-adv-x="1161" 
d="M522 1542h107v-160q200 -17 320.5 -137.5t119.5 -304.5l-225 -2q-1 119 -61 184t-154 78v-407l20 -5q51 -13 90 -25t87.5 -31.5t84.5 -41t72 -52.5t59 -67t37.5 -84t14.5 -104q0 -93 -37.5 -169t-102.5 -125.5t-147.5 -78t-177.5 -33.5v-159h-107v159q-206 17 -332.5 145
t-123.5 322h225q0 -131 66 -202.5t165 -83.5v448l-61 17q-62 15 -114.5 37t-100.5 55.5t-81.5 75t-53 98t-19.5 123.5q0 86 37 155.5t99 113.5t136.5 69.5t157.5 31.5v160zM874 362q0 92 -59 139t-186 81v-426q106 5 175.5 56.5t69.5 149.5zM311 1020q0 -145 199 -199l12 -4
v385q-87 -2 -149 -47.5t-62 -134.5z" />
    <glyph glyph-name="percent" unicode="%" horiz-adv-x="1740" 
d="M365 569q-158 0 -240 108t-82 296q0 187 82 294t240 107q157 0 239 -107t82 -294q0 -188 -82.5 -296t-238.5 -108zM365 696q151 0 151 277q0 274 -151 274q-152 0 -152 -274q0 -277 152 -277zM514 0h-240l953 1360h239zM1376 -14q-158 0 -239.5 107.5t-81.5 295.5
t81.5 295t239.5 107q157 0 239.5 -107.5t82.5 -294.5t-82.5 -295t-239.5 -108zM1376 113q152 0 152 276q0 275 -152 275q-151 0 -151 -275q0 -276 151 -276z" />
    <glyph glyph-name="ampersand" unicode="&#x26;" horiz-adv-x="1325" 
d="M494 -25q-206 0 -333.5 114.5t-127.5 287.5q0 146 93.5 247.5t240.5 153.5q-146 169 -146 309q0 134 108.5 215.5t276.5 81.5q55 0 106.5 -9.5t100 -32t84.5 -56t58 -86t22 -117.5q0 -116 -73 -206.5t-195 -143.5l221 -235q45 117 55 254h227q-22 -224 -133 -414
l318 -338h-310l-147 158q-190 -183 -446 -183zM516 158q167 0 295 141l-324 348q-219 -84 -219 -258q0 -104 71 -167.5t177 -63.5zM457 1090q0 -91 133 -228l2 -4q85 37 127.5 93t42.5 120q0 67 -43.5 103t-110.5 36q-63 0 -107 -32t-44 -88z" />
    <glyph glyph-name="quotesingle" unicode="'" horiz-adv-x="315" 
d="M35 1360h244l-39 -490h-166z" />
    <glyph glyph-name="parenleft" unicode="(" horiz-adv-x="491" 
d="M45 504q0 136 24.5 269t65 242t83 192.5t89.5 152.5h203q-104 -169 -167.5 -388t-63.5 -468q0 -250 63.5 -469.5t167.5 -388.5h-203q-47 70 -89.5 153.5t-83.5 193t-65 242.5t-24 269z" />
    <glyph glyph-name="parenright" unicode=")" horiz-adv-x="491" 
d="M442 504q0 -136 -24 -269t-64.5 -242t-83 -193.5t-90.5 -153.5h-200q103 170 166 389t63 469q0 248 -63.5 467t-165.5 389h200q47 -68 90 -152t83.5 -193t64.5 -242t24 -269z" />
    <glyph glyph-name="asterisk" unicode="*" horiz-adv-x="688" 
d="M410 1364v-211l198 76l56 -142l-203 -69l121 -170l-117 -90l-131 176l-119 -176l-129 88l123 170l-201 71l53 142l197 -76v211h152z" />
    <glyph glyph-name="plus" unicode="+" horiz-adv-x="1171" 
d="M692 0h-211v408h-420v202h420v410h211v-410h418v-202h-418v-408z" />
    <glyph glyph-name="comma" unicode="," horiz-adv-x="462" 
d="M98 0v258h267v-276l-142 -283h-135l125 301h-115z" />
    <glyph glyph-name="hyphen" unicode="-" horiz-adv-x="804" 
d="M713 412h-621v202h621v-202z" />
    <glyph glyph-name="period" unicode="." horiz-adv-x="454" 
d="M356 0h-258v258h258v-258z" />
    <glyph glyph-name="slash" unicode="/" horiz-adv-x="739" 
d="M211 0h-217l536 1360h218z" />
    <glyph glyph-name="zero" unicode="0" horiz-adv-x="1249" 
d="M625 -25q-269 0 -409 190.5t-140 518.5q0 214 59.5 369t184 243t305.5 88q180 0 304.5 -87.5t184.5 -243t60 -369.5q0 -327 -140.5 -518t-408.5 -191zM625 158q151 0 232 133.5t81 392.5q0 258 -81 388t-232 130t-232.5 -130.5t-81.5 -387.5q0 -258 81.5 -392t232.5 -134
z" />
    <glyph glyph-name="one" unicode="1" horiz-adv-x="677" 
d="M535 0h-228v1030h-307v156q85 3 134 8.5t97 23.5t79 52t57 90h168v-1360z" />
    <glyph glyph-name="two" unicode="2" horiz-adv-x="1093" 
d="M567 1384q197 0 323 -97t126 -269q0 -53 -12.5 -104.5t-41 -103.5t-60.5 -98.5t-84.5 -101.5t-98 -98.5t-117.5 -102.5t-126 -102t-138 -108h711v-199h-1006v186q90 71 147.5 116t131 105t118.5 100t99 90.5t86 87.5t65.5 80.5t50.5 80.5t28 76t11 77q0 96 -60.5 151.5
t-162.5 55.5q-52 0 -96 -15.5t-81.5 -47.5t-59 -89.5t-21.5 -135.5l-225 2q-3 209 133.5 336.5t359.5 127.5z" />
    <glyph glyph-name="three" unicode="3" horiz-adv-x="1144" 
d="M555 158q124 0 202.5 59.5t78.5 165.5q0 84 -50.5 137.5t-129.5 74.5t-187 21h-45v187h37q164 0 252 52.5t88 156.5q0 92 -69 141t-171 49q-122 0 -194 -67.5t-88 -180.5l-222 23q27 187 160 297t356 110q90 0 169.5 -20.5t146 -62t105 -112.5t38.5 -163
q0 -100 -54.5 -181t-146.5 -124q119 -44 178.5 -133.5t59.5 -200.5q0 -100 -42 -180t-114 -130t-164.5 -76t-197.5 -26q-116 0 -210 35t-155.5 94.5t-98 134.5t-46.5 160l221 23q18 -120 91 -192t202 -72z" />
    <glyph glyph-name="four" unicode="4" horiz-adv-x="1179" 
d="M696 1065l-434 -545h434v545zM1165 520v-196h-241v-324h-228v324h-682v188l684 848h226v-840h241z" />
    <glyph glyph-name="five" unicode="5" horiz-adv-x="1148" 
d="M567 158q120 0 196.5 75.5t76.5 210.5q0 74 -24 132t-64.5 92t-89 51.5t-101.5 17.5q-90 0 -157 -40t-91 -95l-213 10l90 748h828v-201h-641l-43 -325q107 86 284 86q90 0 171.5 -31t145 -89t101 -149.5t37.5 -204.5q0 -112 -41 -202.5t-111.5 -148.5t-162 -89
t-195.5 -31q-116 0 -210 36t-154 97t-94.5 134.5t-43.5 154.5l220 25q44 -264 286 -264z" />
    <glyph glyph-name="six" unicode="6" horiz-adv-x="1173" 
d="M324 438q0 -128 75 -204t195 -76t195 76t75 204q0 125 -75 203t-193 78q-119 0 -195.5 -78t-76.5 -203zM608 1202q-140 0 -220 -120.5t-83 -331.5q49 69 134.5 111t199.5 42q197 0 328 -127t131 -336q0 -203 -140 -334t-362 -131q-132 0 -232.5 47.5t-163 136t-93.5 209
t-31 271.5q0 122 18 229t59.5 203t104 164.5t157 108.5t212.5 40q104 0 188 -31.5t136.5 -84.5t82.5 -115.5t37 -130.5l-229 -2q-12 86 -75.5 134t-158.5 48z" />
    <glyph glyph-name="seven" unicode="7" horiz-adv-x="948" 
d="M-6 1159v201h991v-201q-183 -173 -299.5 -337.5t-186.5 -368.5t-85 -453h-256q34 656 587 1159h-751z" />
    <glyph glyph-name="eight" unicode="8" horiz-adv-x="1206" 
d="M602 1384q214 0 343.5 -98t129.5 -252q0 -93 -43.5 -174.5t-132.5 -132.5q219 -112 219 -342q0 -193 -145 -301.5t-371 -108.5q-225 0 -369.5 108.5t-144.5 301.5q0 233 219 342q-88 47 -133 130.5t-45 176.5q0 154 129.5 252t343.5 98zM602 629q-127 0 -202.5 -65
t-75.5 -171q0 -107 75.5 -171t202.5 -64q129 0 205 64t76 171q0 106 -76.5 171t-204.5 65zM852 1008q0 89 -68 141.5t-182 52.5q-113 0 -181.5 -52.5t-68.5 -141.5q0 -90 69.5 -148.5t180.5 -58.5q113 0 181.5 58.5t68.5 148.5z" />
    <glyph glyph-name="nine" unicode="9" horiz-adv-x="1159" 
d="M838 924q0 127 -75.5 202.5t-197.5 75.5q-119 0 -193.5 -75.5t-74.5 -202.5q0 -126 74.5 -204.5t193.5 -78.5t196 79t77 204zM551 158q141 0 221.5 120.5t83.5 331.5q-49 -69 -133 -111t-197 -42q-200 0 -331.5 127t-131.5 336q0 202 138.5 333t361.5 131
q135 0 235.5 -46t162.5 -133t92 -207.5t30 -276.5q0 -121 -17.5 -227.5t-59 -203t-103 -165.5t-155.5 -109.5t-211 -40.5q-104 0 -188.5 32t-137.5 85t-84 115.5t-39 130.5l229 2q13 -86 76.5 -134t157.5 -48z" />
    <glyph glyph-name="colon" unicode=":" horiz-adv-x="454" 
d="M98 0v258h258v-258h-258zM98 745v259h258v-259h-258z" />
    <glyph glyph-name="semicolon" unicode=";" horiz-adv-x="462" 
d="M98 745v259h258v-259h-258zM98 0v258h267v-276l-142 -283h-135l125 301h-115z" />
    <glyph glyph-name="less" unicode="&#x3c;" horiz-adv-x="1144" 
d="M61 604l981 424v-229l-720 -291l720 -289v-227l-981 422v190z" />
    <glyph glyph-name="equal" unicode="=" horiz-adv-x="1167" 
d="M1065 606h-963v205h963v-205zM1065 211h-963v205h963v-205z" />
    <glyph glyph-name="greater" unicode="&#x3e;" horiz-adv-x="1144" 
d="M1083 604v-190l-981 -422v227l721 289l-721 291v229z" />
    <glyph glyph-name="question" unicode="?" horiz-adv-x="978" 
d="M512 1384q69 0 133.5 -12.5t122 -40t100.5 -67t68 -96t25 -124.5q0 -64 -20 -118.5t-57.5 -97.5t-75 -73t-87.5 -61q-53 -32 -79 -50.5t-51.5 -46t-34.5 -60t-9 -78.5v-60h-225v66q0 86 26 148.5t69 104t120 89.5q42 25 63.5 39t51 37t43 42.5t24 47t10.5 59.5
q0 79 -64 124.5t-157 45.5q-125 0 -194 -69.5t-72 -188.5l-226 4q0 197 139 316.5t357 119.5zM305 0v248h258v-248h-258z" />
    <glyph glyph-name="at" unicode="@" horiz-adv-x="1570" 
d="M1147 291q-77 0 -129 46t-64 130q-89 -170 -288 -170q-120 0 -200.5 86t-80.5 254q0 84 27 162.5t75.5 141t123.5 100.5t163 38q77 0 134.5 -39t84.5 -106q3 18 7.5 56.5t7.5 56.5h135l-56 -414q-6 -43 -6 -78q0 -127 86 -127q77 0 130 92t53 246q0 231 -145 356
t-386 125q-173 0 -308.5 -77t-209.5 -211t-74 -300q0 -238 140 -389t378 -151q92 0 191 21t178 61l53 -133q-93 -43 -209 -68t-213 -25q-196 0 -349 89.5t-236.5 246.5t-83.5 353q0 151 57.5 284t156.5 227.5t237.5 149.5t295.5 55q112 0 211.5 -23t184.5 -71t146 -119
t95.5 -172t34.5 -223q0 -112 -30 -205t-79.5 -152t-111.5 -91.5t-127 -32.5zM776 936q-102 0 -164.5 -88t-62.5 -213q0 -99 41.5 -149t118.5 -50q108 0 170.5 91t62.5 223q0 89 -44 137.5t-122 48.5z" />
    <glyph glyph-name="A" unicode="A" horiz-adv-x="1286" 
d="M0 0l514 1360h254l518 -1360h-264l-104 287h-568l-102 -287h-248zM633 1079l-211 -592h424z" />
    <glyph glyph-name="B" unicode="B" horiz-adv-x="1269" 
d="M139 0v1360h520q496 0 496 -348q0 -93 -44.5 -172.5t-109.5 -118.5q97 -43 152 -117t55 -201q0 -108 -40 -187.5t-112.5 -125.5t-163 -68t-200.5 -22h-553zM381 600v-397h321q259 0 259 200q0 104 -65.5 150.5t-205.5 46.5h-309zM381 1157v-360h301q227 0 227 188
q0 88 -60 130t-167 42h-301z" />
    <glyph glyph-name="C" unicode="C" horiz-adv-x="1370" 
d="M1085 455l232 -35q-43 -205 -201 -325t-395 -120q-300 0 -468.5 191t-168.5 518q0 325 174.5 512.5t474.5 187.5q229 0 383.5 -120t196.5 -324l-232 -35q-30 137 -124 209t-232 72q-172 0 -281.5 -130.5t-109.5 -371.5q0 -243 108.5 -376.5t280.5 -133.5q142 0 236 71
t126 210z" />
    <glyph glyph-name="D" unicode="D" horiz-adv-x="1347" 
d="M1016 680q0 91 -17.5 163.5t-45 122t-72 85.5t-89 56t-104.5 31.5t-110 15t-115 3.5h-82v-954h82q65 0 115 3.5t110 15t104.5 31.5t89 56t72 85.5t45 122t17.5 163.5zM139 1360h336q139 0 251.5 -18.5t215.5 -66t172.5 -123t110.5 -195.5t41 -277t-41 -277t-110.5 -195.5
t-172.5 -123t-215.5 -66t-251.5 -18.5h-336v1360z" />
    <glyph glyph-name="E" unicode="E" horiz-adv-x="1171" 
d="M139 0v1360h977v-203h-735v-358h694v-201h-694v-395h735v-203h-977z" />
    <glyph glyph-name="F" unicode="F" horiz-adv-x="1103" 
d="M139 0v1360h963v-203h-721v-358h680v-201h-680v-598h-242z" />
    <glyph glyph-name="G" unicode="G" horiz-adv-x="1454" 
d="M745 1384q228 0 384 -118t200 -312l-231 -32q-34 127 -127.5 195.5t-229.5 68.5q-184 0 -295.5 -128t-111.5 -374t109 -378t296 -132q52 0 101.5 9t99 32t86 58t59.5 91.5t23 127.5v26h-352v203h577v-721h-190l-8 166q-61 -92 -171 -141.5t-251 -49.5q-293 0 -461 191.5
t-168 517.5q0 322 178 511t483 189z" />
    <glyph glyph-name="H" unicode="H" horiz-adv-x="1421" 
d="M1040 1360h242v-1360h-242v598h-659v-598h-242v1360h242v-561h659v561z" />
    <glyph glyph-name="I" unicode="I" horiz-adv-x="520" 
d="M381 1360v-1360h-242v1360h242z" />
    <glyph glyph-name="J" unicode="J" horiz-adv-x="620" 
d="M45 0v207h31q109 0 137.5 24.5t28.5 122.5v1006h239v-1018q0 -107 -16.5 -172.5t-58 -104t-102 -52t-159.5 -13.5h-100z" />
    <glyph glyph-name="K" unicode="K" horiz-adv-x="1284" 
d="M381 1360v-639l586 639h288l-510 -547l558 -813h-287l-432 639l-203 -217v-422h-242v1360h242z" />
    <glyph glyph-name="L" unicode="L" horiz-adv-x="1075" 
d="M381 1360v-1157h694v-203h-936v1360h242z" />
    <glyph glyph-name="M" unicode="M" horiz-adv-x="1693" 
d="M971 0h-246l-344 1073v-1073h-242v1360h383l330 -1061l326 1061h378v-1360h-241v1073z" />
    <glyph glyph-name="N" unicode="N" horiz-adv-x="1421" 
d="M1282 0h-332l-569 1081v-1081h-242v1360h332l569 -1081v1081h242v-1360z" />
    <glyph glyph-name="O" unicode="O" horiz-adv-x="1486" 
d="M1153 684q0 244 -114 373t-296 129q-180 0 -294.5 -129t-114.5 -373t114.5 -377t294.5 -133q181 0 295.5 132.5t114.5 377.5zM1403 684q0 -326 -180 -517.5t-480 -191.5q-303 0 -481 193t-178 516q0 319 179.5 509.5t479.5 190.5q302 0 481 -188t179 -512z" />
    <glyph glyph-name="P" unicode="P" horiz-adv-x="1177" 
d="M139 1360h434q70 0 128 -4.5t120 -16.5t110 -32.5t92 -54.5t73 -80t46 -111t17 -146q0 -102 -29.5 -178.5t-80.5 -124.5t-126.5 -78t-158.5 -41.5t-186 -11.5h-193v-481h-246v1360zM573 1157h-188v-477h201q59 0 104 5t88 20t70.5 40t44 67.5t16.5 100.5q0 47 -10 84.5
t-26.5 62.5t-43 43.5t-52.5 28.5t-63 16t-68 7.5t-73 1.5z" />
    <glyph glyph-name="Q" unicode="Q" horiz-adv-x="1497" 
d="M1403 684q0 -172 -53.5 -310.5t-151.5 -232.5l160 -190l-150 -125l-174 207q-135 -58 -291 -58q-303 0 -481 193t-178 516q0 319 179.5 509.5t479.5 190.5q302 0 481 -188t179 -512zM1153 684q0 244 -114 373t-296 129q-180 0 -294.5 -129t-114.5 -373t114.5 -377
t294.5 -133q83 0 150 27l-113 137l148 125l121 -144q104 132 104 365z" />
    <glyph glyph-name="R" unicode="R" horiz-adv-x="1271" 
d="M958 0l-288 549q-25 -2 -76 -2h-209v-547h-246v1360h420q317 0 466 -91t149 -313q0 -269 -259 -362l316 -594h-273zM592 1157h-207v-412h215q166 0 246 45.5t80 163.5q0 53 -17.5 90.5t-45 59t-73 34t-90 16t-108.5 3.5z" />
    <glyph glyph-name="S" unicode="S" horiz-adv-x="1232" 
d="M94 1001q0 97 46.5 173t122.5 120.5t164.5 67t180.5 22.5q137 0 249.5 -43t192 -133t105.5 -219l-233 -35q-19 82 -72 136t-116.5 75t-137.5 21q-43 0 -85.5 -9t-82.5 -28.5t-65 -55.5t-25 -83q0 -136 201 -179l170 -36q62 -13 111 -27t106 -36t98.5 -52.5t77 -71t54 -96
t18.5 -123.5q0 -99 -45 -179.5t-121 -131t-172.5 -77t-202.5 -26.5q-246 0 -401.5 123t-186.5 328l238 37q29 -143 121 -216t235 -73q127 0 209 49.5t82 149.5q0 46 -20.5 81t-61 58.5t-86 39t-111.5 30.5l-168 36q-389 85 -389 383z" />
    <glyph glyph-name="T" unicode="T" horiz-adv-x="1122" 
d="M440 0v1157h-434v203h1110v-203h-434v-1157h-242z" />
    <glyph glyph-name="U" unicode="U" horiz-adv-x="1366" 
d="M119 1360h241v-795q0 -202 70 -296.5t254 -94.5q182 0 252 98t70 301v787h241v-778q0 -325 -131 -466t-432 -141q-202 0 -323.5 57t-181.5 188.5t-60 354.5v785z" />
    <glyph glyph-name="V" unicode="V" horiz-adv-x="1212" 
d="M2 1360h262l350 -1075l342 1075h254l-471 -1360h-260z" />
    <glyph glyph-name="W" unicode="W" horiz-adv-x="1705" 
d="M995 1360l236 -1049l209 1049h254l-322 -1360h-287l-231 1038l-229 -1038h-289l-324 1360h262l222 -1047l219 1047h280z" />
    <glyph glyph-name="X" unicode="X" horiz-adv-x="1261" 
d="M-18 0l507 696l-475 664h289l332 -463l338 463h274l-477 -651l510 -709h-289l-366 508l-371 -508h-272z" />
    <glyph glyph-name="Y" unicode="Y" horiz-adv-x="1218" 
d="M-12 1360h276l342 -617l352 617h273l-508 -848v-512h-242v516z" />
    <glyph glyph-name="Z" unicode="Z" horiz-adv-x="1191" 
d="M1118 1360v-197l-770 -954h795v-209h-1090v197l772 954h-710v209h1003z" />
    <glyph glyph-name="bracketleft" unicode="[" horiz-adv-x="585" 
d="M133 1360h465v-174h-258v-1366h258v-174h-465v1714z" />
    <glyph glyph-name="backslash" unicode="\" horiz-adv-x="739" 
d="M211 1360l537 -1360h-218l-536 1360h217z" />
    <glyph glyph-name="bracketright" unicode="]" horiz-adv-x="585" 
d="M-12 1360h465v-1714h-465v174h258v1366h-258v174z" />
    <glyph glyph-name="asciicircum" unicode="^" horiz-adv-x="970" 
d="M580 1360l383 -737h-230l-250 493l-247 -493h-228l381 737h191z" />
    <glyph glyph-name="underscore" unicode="_" horiz-adv-x="909" 
d="M860 -205h-811v205h811v-205z" />
    <glyph glyph-name="grave" unicode="`" horiz-adv-x="686" 
d="M399 1118l-270 242h268l178 -242h-176z" />
    <glyph glyph-name="a" unicode="a" horiz-adv-x="1064" 
d="M313 692l-211 6q11 151 128 240.5t313 89.5q221 0 318 -88t97 -297q0 -34 -2 -148.5t-2 -140.5q0 -172 21 -354h-213l-6 121q-98 -146 -326 -146q-166 0 -264 96t-98 232q0 142 110 217q63 43 151.5 66.5t215.5 38.5l188 20v35q0 97 -52.5 137.5t-150.5 40.5
q-97 0 -153 -43t-64 -123zM741 418v61l-190 -20q-129 -14 -188.5 -51.5t-59.5 -106.5q0 -65 47.5 -106t128.5 -41q110 0 186 66t76 198z" />
    <glyph glyph-name="b" unicode="b" horiz-adv-x="1136" 
d="M127 0v1360h227v-475q97 139 293 139q191 0 310.5 -141.5t119.5 -384.5q0 -238 -125.5 -380.5t-320.5 -142.5q-94 0 -165.5 34.5t-115.5 92.5l-4 -102h-219zM600 842q-116 0 -186 -89.5t-70 -254.5q0 -162 69.5 -251t186.5 -89t180.5 92t63.5 250t-63 250t-181 92z" />
    <glyph glyph-name="c" unicode="c" horiz-adv-x="1060" 
d="M557 1024q171 0 295 -93.5t156 -250.5l-220 -31q-16 86 -77.5 139.5t-159.5 53.5q-115 0 -186.5 -88t-71.5 -252q0 -166 72 -255t186 -89q92 0 157.5 48t86.5 146l221 -28q-25 -109 -94 -189t-165.5 -120t-209.5 -40q-227 0 -357.5 145.5t-130.5 379.5t133 379t365 145z
" />
    <glyph glyph-name="d" unicode="d" horiz-adv-x="1136" 
d="M1010 1360v-1360h-217l-5 119q-101 -144 -299 -144q-191 0 -310.5 142t-119.5 385q0 237 125.5 379.5t321.5 142.5q180 0 276 -129v465h228zM537 158q116 0 186 89.5t70 254.5q0 162 -69.5 251t-186.5 89t-180.5 -92t-63.5 -250t63.5 -250t180.5 -92z" />
    <glyph glyph-name="e" unicode="e" horiz-adv-x="1097" 
d="M561 -25q-122 0 -219 40.5t-158 112t-93 166.5t-32 206q0 233 137 378.5t359 145.5q157 0 271 -75.5t169.5 -209t46.5 -307.5h-753q3 -124 77.5 -199t190.5 -75q189 0 250 157l219 -28q-19 -59 -55.5 -112.5t-92 -99.5t-137.5 -73t-180 -27zM557 850q-108 0 -185 -63.5
t-83 -186.5h522q-4 113 -76.5 181.5t-177.5 68.5z" />
    <glyph glyph-name="f" unicode="f" horiz-adv-x="614" 
d="M158 1004v63q0 91 17 147.5t59.5 89t103 44.5t158.5 12h90v-184h-66q-85 0 -110 -23.5t-25 -103.5v-45h201v-175h-201v-829h-227v829h-144v175h144z" />
    <glyph glyph-name="g" unicode="g" horiz-adv-x="1132" 
d="M780 66v90q-103 -140 -291 -140q-190 0 -310 137.5t-120 368.5q0 226 126 364t321 138q180 0 276 -129l4 109h222v-893q0 -136 -28 -220.5t-85 -138.5q-117 -114 -356 -114q-179 0 -296.5 77t-142.5 238l226 8q15 -73 67 -108t152 -35q117 0 176 53q59 56 59 195z
M537 199q117 0 185.5 81.5t68.5 241.5q0 151 -69 235.5t-185 84.5t-180 -88t-64 -234q0 -154 63 -237.5t181 -83.5z" />
    <glyph glyph-name="h" unicode="h" horiz-adv-x="1120" 
d="M784 0v563q0 87 -11.5 140t-43.5 85q-48 48 -137 48q-124 0 -181 -84.5t-57 -231.5v-520h-227v1360h227v-481q43 68 123.5 106.5t186.5 38.5q195 0 282 -125q66 -97 66 -278v-621h-228z" />
    <glyph glyph-name="i" unicode="i" horiz-adv-x="479" 
d="M127 1004h227v-1004h-227v1004zM127 1360h227v-230h-227v230z" />
    <glyph glyph-name="j" unicode="j" horiz-adv-x="481" 
d="M127 -35v1039h227v-1039q0 -132 -26.5 -199t-88 -93.5t-182.5 -26.5h-75v186h41q69 0 86.5 24.5t17.5 108.5zM127 1360h227v-230h-227v230z" />
    <glyph glyph-name="k" unicode="k" horiz-adv-x="1017" 
d="M127 1360h227v-752l379 396h271l-361 -375l387 -629h-262l-283 465l-131 -137v-328h-227v1360z" />
    <glyph glyph-name="l" unicode="l" horiz-adv-x="479" 
d="M354 1360v-1360h-227v1360h227z" />
    <glyph glyph-name="m" unicode="m" horiz-adv-x="1728" 
d="M127 0v1004h227v-125q87 145 295 145q117 0 184.5 -44t106.5 -120q60 83 142 123.5t200 40.5q172 0 258 -102q80 -96 80 -301v-621h-227v571q0 152 -43 205q-45 60 -146 60q-217 0 -217 -312v-524h-227v571q0 154 -43 207q-49 58 -144 58q-219 0 -219 -312v-524h-227z
" />
    <glyph glyph-name="n" unicode="n" horiz-adv-x="1120" 
d="M354 1004v-125q43 68 123.5 106.5t186.5 38.5q195 0 282 -125q66 -97 66 -278v-621h-228v563q0 87 -11.5 140t-43.5 85q-48 48 -137 48q-124 0 -181 -84.5t-57 -231.5v-520h-227v1004h227z" />
    <glyph glyph-name="o" unicode="o" horiz-adv-x="1101" 
d="M293 500q0 -166 70 -254t188 -88q119 0 188.5 88t69.5 254t-69.5 254t-188.5 88q-118 0 -188 -88t-70 -254zM59 500q0 131 40 233t109.5 164.5t156.5 94.5t186 32t186 -32t156 -94.5t109 -164.5t40 -233q0 -105 -26.5 -192.5t-72 -148t-108 -103t-134 -62t-150.5 -19.5
t-150.5 19.5t-134 62t-108.5 103t-72.5 148t-26.5 192.5z" />
    <glyph glyph-name="p" unicode="p" horiz-adv-x="1136" 
d="M354 102v-456h-227v1358h219l2 -123q100 143 299 143q191 0 310.5 -141.5t119.5 -384.5q0 -238 -125.5 -380.5t-320.5 -142.5q-180 0 -277 127zM600 842q-116 0 -186 -89.5t-70 -254.5q0 -162 69.5 -251t186.5 -89t180.5 92t63.5 250t-63 250t-181 92z" />
    <glyph glyph-name="q" unicode="q" horiz-adv-x="1136" 
d="M786 895l2 109h222v-1358h-228v469q-98 -140 -293 -140q-191 0 -310.5 142t-119.5 385q0 237 125.5 379.5t321.5 142.5q184 0 280 -129zM537 158q116 0 186 89.5t70 254.5q0 162 -69.5 251t-186.5 89t-180.5 -92t-63.5 -250t63.5 -250t180.5 -92z" />
    <glyph glyph-name="r" unicode="r" horiz-adv-x="702" 
d="M682 1001v-223q-55 6 -104 6q-112 0 -168 -60.5t-56 -207.5v-516h-227v1004h223v-166q41 81 112.5 123.5t164.5 44.5q15 0 55 -5z" />
    <glyph glyph-name="s" unicode="s" horiz-adv-x="1001" 
d="M936 723l-213 -29q-17 74 -81 116t-159 42q-80 0 -134 -27.5t-54 -76.5q0 -86 156 -119l118 -25q71 -16 119.5 -30t101.5 -38t84.5 -53.5t52.5 -75t21 -102.5q0 -103 -60.5 -179t-158.5 -113.5t-219 -37.5q-192 0 -315.5 95t-139.5 237l221 33q14 -86 76 -139.5
t166 -53.5q95 0 151 33t56 94q0 30 -14.5 52t-44 37.5t-59.5 25t-75 19.5l-133 28q-56 12 -101 27t-87 39.5t-70 55.5t-44.5 75.5t-16.5 99.5q0 131 121.5 211t298.5 80q107 0 198 -33.5t155 -102.5t83 -165z" />
    <glyph glyph-name="t" unicode="t" horiz-adv-x="647" 
d="M160 1004v290h227v-290h205v-175h-205v-520q0 -78 24.5 -103.5t96.5 -25.5h82v-180h-166q-84 0 -134 12t-80 44.5t-40 81t-10 130.5v561h-152v175h152z" />
    <glyph glyph-name="u" unicode="u" horiz-adv-x="1112" 
d="M760 0v125q-98 -150 -303 -150q-177 0 -269 115q-73 94 -73 289v625h227v-574q0 -139 33 -192q47 -74 157 -74q119 0 173.5 86t54.5 233v521h227v-1004h-227z" />
    <glyph glyph-name="v" unicode="v" horiz-adv-x="956" 
d="M250 1004l235 -711l234 711h237l-370 -1004h-213l-373 1004h250z" />
    <glyph glyph-name="w" unicode="w" horiz-adv-x="1378" 
d="M395 297l176 707h234l178 -707l150 707h245l-272 -1004h-215l-203 737l-201 -737h-215l-272 1004h246z" />
    <glyph glyph-name="x" unicode="x" horiz-adv-x="1017" 
d="M989 1004l-350 -482l373 -522h-267l-241 338l-246 -338h-250l373 510l-352 494h266l221 -310l225 310h248z" />
    <glyph glyph-name="y" unicode="y" horiz-adv-x="935" 
d="M182 -354h-102v190h86q79 0 116 25.5t70 120.5l10 24l-370 998h248l231 -715l234 715h231l-361 -1002q-26 -71 -47 -118.5t-46.5 -90.5t-53 -68.5t-64 -44.5t-80.5 -26.5t-102 -7.5z" />
    <glyph glyph-name="z" unicode="z" horiz-adv-x="940" 
d="M49 0v168l541 645h-502v191h791v-173l-541 -641h555v-190h-844z" />
    <glyph glyph-name="braceleft" unicode="{" horiz-adv-x="561" 
d="M492 -354q-191 0 -264.5 65.5t-73.5 245.5v260q0 101 -29 149t-117 48v180q88 0 117 48t29 149v258q0 180 73.5 245.5t264.5 65.5h77v-184h-53q-83 0 -109 -29t-26 -107v-274q0 -123 -44 -180t-128 -80v-4q84 -23 128 -80t44 -180v-277q0 -78 26 -106.5t109 -28.5h53
v-184h-77z" />
    <glyph glyph-name="bar" unicode="|" horiz-adv-x="468" 
d="M137 1360h195v-1530h-195v1530z" />
    <glyph glyph-name="braceright" unicode="}" horiz-adv-x="561" 
d="M-8 -354v184h53q82 0 108.5 28.5t26.5 106.5v277q0 123 44 180t128 80v4q-84 23 -128 80t-44 180v274q0 78 -26.5 107t-108.5 29h-53v184h76q191 0 265.5 -65.5t74.5 -245.5v-258q0 -101 28.5 -149t116.5 -48v-180q-88 0 -116.5 -48t-28.5 -149v-260q0 -180 -74.5 -245.5
t-265.5 -65.5h-76z" />
    <glyph glyph-name="asciitilde" unicode="~" horiz-adv-x="1048" 
d="M715 551q110 0 116 131h177q-6 -153 -79 -240.5t-208 -87.5q-49 0 -104 20.5t-96.5 45t-92.5 45t-92 20.5q-113 0 -119 -131h-176q6 153 79.5 240.5t209.5 87.5q57 0 115.5 -20.5t99 -45t87.5 -45t83 -20.5z" />
    <glyph glyph-name="exclamdown" unicode="&#xa1;" horiz-adv-x="503" 
d="M371 4v-358h-232v358l41 594h148zM123 1004h258v-248h-258v248z" />
    <glyph glyph-name="cent" unicode="&#xa2;" horiz-adv-x="1060" 
d="M1008 680l-220 -31q-14 76 -66 129t-132 62v-680q77 8 131 56t74 136l221 -28q-36 -153 -151.5 -244t-274.5 -103v-153h-92v153q-206 17 -322.5 160t-116.5 363q0 218 117 359.5t322 160.5v166h92v-164q160 -9 273 -100t145 -242zM293 502q0 -146 56 -234t149 -106v676
q-94 -18 -149.5 -104.5t-55.5 -231.5z" />
    <glyph glyph-name="sterling" unicode="&#xa3;" horiz-adv-x="1103" 
d="M580 1202q-99 0 -169.5 -47.5t-70.5 -134.5q0 -44 16 -94.5t31 -80.5t47 -89h342v-135h-276q22 -71 22 -117q0 -165 -180 -291l2 -4q67 27 125 27q47 0 139.5 -30t155.5 -30q95 0 240 55l65 -186q-53 -30 -136 -52t-157 -22q-67 0 -195 41t-198 41q-119 0 -264 -82
l-80 168q54 26 95 54t80 69.5t60 98.5t21 126q0 60 -31 134h-235v135h166q-44 79 -67.5 143t-23.5 139q0 71 27.5 130t73.5 98.5t108 66.5t130 39t141 12q231 0 359.5 -125.5t125.5 -338.5l-225 -2q0 151 -72 217.5t-192 66.5z" />
    <glyph glyph-name="currency" unicode="&#xa4;" horiz-adv-x="1210" 
d="M150 659q0 149 83 265l-131 133l95 92l129 -129q121 94 274 94q154 0 281 -96l133 131l94 -92l-135 -135q82 -119 82 -263q0 -143 -84 -260l137 -137l-94 -92l-135 133q-124 -94 -279 -94q-152 0 -272 90l-131 -129l-95 92l131 133q-83 116 -83 264zM340 659
q0 -117 72.5 -195.5t185.5 -78.5q119 0 194.5 78.5t75.5 195.5q0 120 -75.5 200.5t-194.5 80.5q-113 0 -185.5 -80.5t-72.5 -200.5z" />
    <glyph glyph-name="yen" unicode="&#xa5;" horiz-adv-x="1226" 
d="M1065 184h-344v-184h-229v184h-332v152h332v147h-332v150h262l-426 727h266l350 -637l355 637h264l-438 -727h272v-150h-344v-147h344v-152z" />
    <glyph glyph-name="brokenbar" unicode="&#xa6;" horiz-adv-x="446" 
d="M127 1360h195v-582h-195v582zM127 412h195v-582h-195v582z" />
    <glyph glyph-name="section" unicode="&#xa7;" horiz-adv-x="1140" 
d="M567 -195q81 0 133 37.5t52 102.5q0 58 -39 100.5t-140 95.5l-241 125q-266 136 -266 336q0 84 54.5 152t145.5 110q-106 99 -106 232q0 91 59 158t147.5 98.5t190.5 31.5q178 0 292 -88t134 -243l-217 -6q-13 80 -70 122.5t-145 42.5q-78 0 -125 -28.5t-47 -75.5
q0 -49 35 -85.5t114 -76.5l260 -135q72 -38 120 -70t89 -72t60.5 -86.5t19.5 -101.5q0 -90 -55.5 -163.5t-153.5 -120.5q105 -98 105 -228q0 -102 -56.5 -179.5t-149 -117t-206.5 -39.5q-188 0 -307 103t-129 280l215 7q32 -218 227 -218zM670 637l-256 131q-59 -22 -96 -59
t-37 -86q0 -53 36 -92t111 -78l256 -134l43 -22q127 62 127 149q0 55 -43.5 98t-140.5 93z" />
    <glyph glyph-name="dieresis" unicode="&#xa8;" horiz-adv-x="722" 
d="M37 1133v210h201v-210h-201zM485 1343h201v-210h-201v210z" />
    <glyph glyph-name="copyright" unicode="&#xa9;" horiz-adv-x="1570" 
d="M82 678q0 204 94.5 366.5t255 251t354.5 88.5q144 0 273 -52.5t224 -144t150.5 -224t55.5 -285.5q0 -204 -95 -366t-255 -249.5t-353 -87.5q-195 0 -355 87.5t-254.5 249.5t-94.5 366zM231 678q0 -166 73.5 -296t199.5 -200.5t282 -70.5q240 0 396.5 158t156.5 409
q0 125 -42 232t-115.5 180.5t-175.5 115t-220 41.5q-116 0 -218.5 -41.5t-176.5 -115t-117 -180.5t-43 -232zM786 444q68 0 117.5 34.5t67.5 107.5l172 -41q-32 -109 -127.5 -178.5t-233.5 -69.5q-171 0 -268.5 106.5t-97.5 282.5q0 175 101.5 279t270.5 104q134 0 228 -72
t121 -186l-172 -45q-12 71 -61 114.5t-118 43.5q-81 0 -132.5 -62t-51.5 -176q0 -115 51 -178.5t133 -63.5z" />
    <glyph glyph-name="ordfeminine" unicode="&#xaa;" horiz-adv-x="657" 
d="M221 1190l-153 2q9 90 77.5 141t192.5 51q129 0 189 -53.5t59 -169.5q-4 -78 -4 -157q0 -99 12 -207h-152l-2 63q-56 -78 -180 -78q-96 0 -153.5 56t-57.5 133q0 81 55 123q64 49 226 63l92 10v19q0 82 -96 82q-45 0 -73.5 -20t-31.5 -58zM426 1024v35l-92 -8
q-117 -14 -117 -76q0 -30 23 -51t61 -21q54 0 89.5 31t35.5 90z" />
    <glyph glyph-name="guillemotleft" unicode="&#xab;" horiz-adv-x="993" 
d="M313 61l-301 439l301 436h219l-258 -436l258 -439h-219zM737 61l-303 439l303 436h215l-256 -436l256 -439h-215z" />
    <glyph glyph-name="logicalnot" unicode="&#xac;" horiz-adv-x="1193" 
d="M879 612h-822v205h1033v-637h-211v432z" />
    <glyph glyph-name="registered" unicode="&#xae;" horiz-adv-x="1570" 
d="M82 678q0 204 94.5 366.5t255 251t354.5 88.5q144 0 273 -52.5t224 -144t150.5 -224t55.5 -285.5q0 -204 -95 -366t-255 -249.5t-353 -87.5q-195 0 -355 87.5t-254.5 249.5t-94.5 366zM231 678q0 -166 73.5 -296t199.5 -200.5t282 -70.5q240 0 396.5 158t156.5 409
q0 125 -42 232t-115.5 180.5t-175.5 115t-220 41.5q-116 0 -218.5 -41.5t-176.5 -115t-117 -180.5t-43 -232zM768 604h-102v-276h-183v749h273q83 0 142.5 -10t108 -36t73 -74t24.5 -119q0 -145 -135 -201l178 -309h-203l-156 276h-20zM922 836q0 46 -32.5 72t-92.5 26h-131
v-191h133q62 0 92.5 25t30.5 68z" />
    <glyph glyph-name="macron" unicode="&#xaf;" horiz-adv-x="667" 
d="M627 1155h-586v166h586v-166z" />
    <glyph glyph-name="degree" unicode="&#xb0;" horiz-adv-x="641" 
d="M25 1087q0 123 86 210t208 87q123 0 210 -87t87 -210q0 -122 -87 -208t-210 -86q-121 0 -207.5 86.5t-86.5 207.5zM180 1087q0 -63 39 -106t100 -43q62 0 103 43.5t41 105.5q0 64 -41 108t-103 44q-61 0 -100 -44t-39 -108z" />
    <glyph glyph-name="plusminus" unicode="&#xb1;" horiz-adv-x="1236" 
d="M512 748v260h215v-260h408v-205h-408v-264h-215v264h-410v205h410zM1135 0h-1033v203h1033v-203z" />
    <glyph glyph-name="two.superior" unicode="&#xb2;" horiz-adv-x="671" 
d="M348 1624q121 0 197 -56t76 -159q0 -38 -11.5 -74t-37.5 -72.5t-53.5 -68t-75 -72t-86 -70.5t-101.5 -77h362v-141h-579v133q29 23 77.5 61t76.5 60t68.5 55.5t63.5 55.5t50.5 51t41.5 51.5t24 47.5t10 48q0 49 -31.5 75.5t-81.5 26.5q-55 0 -92 -37.5t-37 -115.5h-162
q0 127 82 202.5t219 75.5z" />
    <glyph glyph-name="three.superior" unicode="&#xb3;" horiz-adv-x="712" 
d="M352 946q61 0 99 29.5t38 79.5q0 112 -184 112h-31v133h27q81 0 124.5 26.5t43.5 78.5q0 44 -34 68t-83 24q-59 0 -96.5 -34t-46.5 -95l-158 18q18 111 98 174.5t216 63.5q115 0 193.5 -54.5t78.5 -154.5q0 -58 -29.5 -103t-77.5 -69q62 -23 95.5 -73t33.5 -113
q0 -113 -88.5 -175.5t-220.5 -62.5q-134 0 -215 71.5t-92 178.5l158 16q11 -64 49 -101.5t102 -37.5z" />
    <glyph glyph-name="acute" unicode="&#xb4;" horiz-adv-x="542" 
d="M494 1360l-271 -242h-174l176 242h269z" />
    <glyph glyph-name="mu" unicode="&#xb5;" horiz-adv-x="1107" 
d="M102 -354q23 129 23 317v1041h209v-539q0 -307 213 -307q112 0 168.5 87.5t56.5 231.5v527h211v-1004h-211v123q-81 -139 -223 -139q-143 0 -215 118v-127q0 -200 -23 -329h-209z" />
    <glyph glyph-name="mu" unicode="&#x3bc;" horiz-adv-x="1107" 
d="M102 -354q23 129 23 317v1041h209v-539q0 -307 213 -307q112 0 168.5 87.5t56.5 231.5v527h211v-1004h-211v123q-81 -139 -223 -139q-143 0 -215 118v-127q0 -200 -23 -329h-209z" />
    <glyph glyph-name="paragraph" unicode="&#xb6;" horiz-adv-x="970" 
d="M0 1022q0 159 117.5 248.5t326.5 89.5h402v-1530h-152v1389h-219v-1389h-151v862q-61 6 -115.5 27t-103 59t-77 100.5t-28.5 143.5z" />
    <glyph glyph-name="periodcentered" unicode="&#xb7;" horiz-adv-x="456" 
d="M98 391v248h258v-248h-258z" />
    <glyph glyph-name="cedilla" unicode="&#xb8;" horiz-adv-x="477" 
d="M41 -336l33 82q56 -27 110 -27q46 0 77.5 14t31.5 44q0 27 -21.5 41t-56.5 14q-47 0 -74 -16l-57 32l98 158h101l-62 -98q35 6 68 6q65 -2 106 -37t41 -92q0 -71 -65 -113.5t-150 -42.5q-104 0 -180 35z" />
    <glyph glyph-name="one.superior" unicode="&#xb9;" horiz-adv-x="454" 
d="M356 834h-163v557h-173v116q96 3 140 23t71 82h125v-778z" />
    <glyph glyph-name="ordmasculine" unicode="&#xba;" horiz-adv-x="684" 
d="M219 1083q0 -83 33 -127.5t90 -44.5q58 0 92.5 44.5t34.5 127.5q0 84 -34.5 129t-92.5 45q-57 0 -90 -45t-33 -129zM49 1083q0 147 83.5 224t209.5 77q127 0 211 -77t84 -224q0 -146 -84 -222.5t-211 -76.5q-126 0 -209.5 76.5t-83.5 222.5z" />
    <glyph glyph-name="guillemotright" unicode="&#xbb;" horiz-adv-x="993" 
d="M981 500l-303 -439h-217l256 439l-256 436h217zM559 500l-303 -439h-215l256 439l-256 436h215z" />
    <glyph glyph-name="onequarter" unicode="&#xbc;" horiz-adv-x="1740" 
d="M1417 567l-207 -254h207v254zM1714 313v-143h-131v-170h-166v170h-381v133l394 473h153v-463h131zM514 0h-240l953 1360h239zM532 584h-165v557h-172v116q96 3 140 23t71 82h126v-778z" />
    <glyph glyph-name="onehalf" unicode="&#xbd;" horiz-adv-x="1740" 
d="M1393 791q121 0 195.5 -56.5t74.5 -159.5q0 -38 -11.5 -74t-37.5 -72.5t-53.5 -68t-75 -72t-86 -70.5t-101.5 -77h365v-141h-582v133q27 22 88.5 69t88.5 69t74 61t69 63.5t48 56t36 58.5t10 53q0 49 -32.5 76t-80.5 27q-56 0 -93.5 -38t-37.5 -116h-161q0 127 82.5 203
t220.5 76zM514 0h-240l953 1360h239zM532 584h-165v557h-172v116q96 3 140 23t71 82h126v-778z" />
    <glyph glyph-name="threequarters" unicode="&#xbe;" horiz-adv-x="1740" 
d="M367 696q61 0 98 29.5t37 79.5q0 113 -185 113h-30v133h26q168 0 168 104q0 44 -33.5 68t-82.5 24q-60 0 -97 -34.5t-45 -94.5l-160 19q18 110 98 173.5t216 63.5q115 0 193.5 -54.5t78.5 -154.5q0 -58 -29 -103t-77 -69q62 -23 95.5 -73t33.5 -113q0 -114 -88.5 -176
t-221.5 -62q-134 0 -215 71.5t-92 178.5l160 17q9 -64 48 -102t104 -38zM514 0h-240l953 1360h239zM1417 567l-207 -254h207v254zM1714 313v-143h-131v-170h-166v170h-381v133l394 473h153v-463h131z" />
    <glyph glyph-name="questiondown" unicode="&#xbf;" horiz-adv-x="978" 
d="M469 -381q-86 0 -164.5 20.5t-143 60.5t-103 107t-38.5 152q0 64 20 118t58 97.5t73.5 72.5t86.5 62q37 24 51 33t40.5 29.5t36.5 34.5t23.5 36t18 47t4.5 56v59h225v-65q0 -67 -15 -118t-47 -91t-65.5 -67t-87.5 -62q-42 -27 -61.5 -40.5t-50 -38t-43.5 -44t-24 -48.5
t-11 -61q0 -79 64 -123.5t161 -44.5q122 0 189.5 70.5t70.5 187.5l226 -6q0 -195 -139.5 -314.5t-354.5 -119.5zM674 1004v-248h-258v248h258z" />
    <glyph glyph-name="Agrave" unicode="&#xc0;" horiz-adv-x="1286" 
d="M0 0l514 1360h254l518 -1360h-264l-104 287h-568l-102 -287h-248zM633 1079l-211 -592h424zM604 1430l-295 215h291l203 -215h-199z" />
    <glyph glyph-name="Aacute" unicode="&#xc1;" horiz-adv-x="1286" 
d="M0 0l514 1360h254l518 -1360h-264l-104 287h-568l-102 -287h-248zM633 1079l-211 -592h424zM940 1645l-295 -215h-199l201 215h293z" />
    <glyph glyph-name="Acircumflex" unicode="&#xc2;" horiz-adv-x="1286" 
d="M0 0l514 1360h254l518 -1360h-264l-104 287h-568l-102 -287h-248zM633 1079l-211 -592h424zM735 1645l256 -215h-231l-127 98l-131 -98h-230l263 215h200z" />
    <glyph glyph-name="Atilde" unicode="&#xc3;" horiz-adv-x="1286" 
d="M0 0l514 1360h254l518 -1360h-264l-104 287h-568l-102 -287h-248zM633 1079l-211 -592h424zM750 1573q78 0 94 80h160q-11 -67 -38.5 -114.5t-64 -71.5t-71 -34t-70.5 -10q-50 0 -95 20.5t-81.5 41t-67.5 20.5q-77 0 -90 -80h-162q11 66 38 113t62.5 71.5t71 35
t72.5 10.5q51 0 94 -20.5t79 -41t69 -20.5z" />
    <glyph glyph-name="Adieresis" unicode="&#xc4;" horiz-adv-x="1286" 
d="M0 0l514 1360h254l518 -1360h-264l-104 287h-568l-102 -287h-248zM633 1079l-211 -592h424zM311 1640h201v-204h-201v204zM760 1640h201v-204h-201v204z" />
    <glyph glyph-name="Aring" unicode="&#xc5;" horiz-adv-x="1286" 
d="M0 0l514 1360h254l518 -1360h-264l-104 287h-568l-102 -287h-248zM633 1079l-211 -592h424zM635 1735q72 0 122 -46t50 -116t-49.5 -116t-122.5 -46t-122.5 46t-49.5 116t50 116t122 46zM635 1655q-33 0 -57.5 -23.5t-24.5 -58.5q0 -34 24.5 -57t57.5 -23t57.5 23
t24.5 57q0 35 -24.5 58.5t-57.5 23.5z" />
    <glyph glyph-name="AE" unicode="&#xc6;" horiz-adv-x="1929" 
d="M901 1360h975v-203h-733v-354h690v-201h-690v-399h733v-203h-975v287h-495l-197 -287h-258zM901 1010l-358 -523h358v523z" />
    <glyph glyph-name="Ccedilla" unicode="&#xc7;" horiz-adv-x="1370" 
d="M496 -336l32 82q56 -27 111 -27q46 0 77.5 14t31.5 44q0 27 -21.5 41t-56.5 14q-47 0 -74 -16l-57 32l82 134q-255 31 -396 217.5t-141 484.5q0 325 174.5 512.5t474.5 187.5q229 0 383.5 -120t196.5 -324l-232 -35q-30 137 -124 209t-232 72q-172 0 -281.5 -130.5
t-109.5 -371.5q0 -243 108.5 -376.5t280.5 -133.5q142 0 236 71t126 210l232 -35q-43 -205 -201 -325t-395 -120h-4l-41 -67q34 6 67 6q65 -2 106.5 -37.5t41.5 -91.5q0 -71 -65 -113.5t-150 -42.5q-104 0 -180 35z" />
    <glyph glyph-name="Egrave" unicode="&#xc8;" horiz-adv-x="1171" 
d="M602 1430l-295 215h291l203 -215h-199zM139 0v1360h977v-203h-735v-358h694v-201h-694v-395h735v-203h-977z" />
    <glyph glyph-name="Eacute" unicode="&#xc9;" horiz-adv-x="1171" 
d="M139 0v1360h977v-203h-735v-358h694v-201h-694v-395h735v-203h-977zM950 1645l-295 -215h-198l200 215h293z" />
    <glyph glyph-name="Ecircumflex" unicode="&#xca;" horiz-adv-x="1171" 
d="M139 0v1360h977v-203h-735v-358h694v-201h-694v-395h735v-203h-977zM750 1645l256 -215h-232l-127 98l-131 -98h-229l262 215h201z" />
    <glyph glyph-name="Edieresis" unicode="&#xcb;" horiz-adv-x="1171" 
d="M139 0v1360h977v-203h-735v-358h694v-201h-694v-395h735v-203h-977zM305 1640h201v-204h-201v204zM754 1640h200v-204h-200v204z" />
    <glyph glyph-name="Igrave" unicode="&#xcc;" horiz-adv-x="520" 
d="M381 1360v-1360h-242v1360h242zM184 1430l-295 215h291l203 -215h-199z" />
    <glyph glyph-name="Iacute" unicode="&#xcd;" horiz-adv-x="520" 
d="M381 1360v-1360h-242v1360h242zM637 1645l-295 -215h-199l201 215h293z" />
    <glyph glyph-name="Icircumflex" unicode="&#xce;" horiz-adv-x="520" 
d="M365 1645l215 -215h-224l-94 98l-98 -98h-221l221 215h201zM381 1360v-1360h-242v1360h242z" />
    <glyph glyph-name="Idieresis" unicode="&#xcf;" horiz-adv-x="520" 
d="M381 1360v-1360h-242v1360h242zM-68 1640h201v-204h-201v204zM381 1640h201v-204h-201v204z" />
    <glyph glyph-name="Eth" unicode="&#xd0;" horiz-adv-x="1380" 
d="M176 1360h336q138 0 250.5 -18.5t215 -66t172 -123t110 -195t40.5 -277.5t-40.5 -277.5t-110 -195t-172 -123t-215 -66t-250.5 -18.5h-336v598h-160v201h160v561zM672 598h-254v-395h84q64 0 114 3.5t109.5 15t104 31.5t88 56t71.5 85.5t45 122t17 163.5t-17 163.5
t-45 122t-71.5 85.5t-88 56t-104 31.5t-109.5 15t-114 3.5h-84v-358h254v-201z" />
    <glyph glyph-name="Ntilde" unicode="&#xd1;" horiz-adv-x="1421" 
d="M842 1573q78 0 94 80h160q-11 -67 -38.5 -114.5t-64 -71.5t-71 -34t-70.5 -10q-50 0 -95 20.5t-81.5 41t-67.5 20.5q-77 0 -90 -80h-162q11 66 38 113t62.5 71.5t71 35t72.5 10.5q51 0 94 -20.5t79 -41t69 -20.5zM1282 0h-332l-569 1081v-1081h-242v1360h332l569 -1081
v1081h242v-1360z" />
    <glyph glyph-name="Ograve" unicode="&#xd2;" horiz-adv-x="1486" 
d="M727 1430l-295 215h291l203 -215h-199zM1153 684q0 244 -114 373t-296 129q-180 0 -294.5 -129t-114.5 -373t114.5 -377t294.5 -133q181 0 295.5 132.5t114.5 377.5zM1403 684q0 -326 -180 -517.5t-480 -191.5q-303 0 -481 193t-178 516q0 319 179.5 509.5t479.5 190.5
q302 0 481 -188t179 -512z" />
    <glyph glyph-name="Oacute" unicode="&#xd3;" horiz-adv-x="1486" 
d="M1153 684q0 244 -114 373t-296 129q-180 0 -294.5 -129t-114.5 -373t114.5 -377t294.5 -133q181 0 295.5 132.5t114.5 377.5zM1403 684q0 -326 -180 -517.5t-480 -191.5q-303 0 -481 193t-178 516q0 319 179.5 509.5t479.5 190.5q302 0 481 -188t179 -512zM1061 1645
l-295 -215h-199l201 215h293z" />
    <glyph glyph-name="Ocircumflex" unicode="&#xd4;" horiz-adv-x="1486" 
d="M840 1645l256 -215h-232l-127 98l-131 -98h-229l262 215h201zM1153 684q0 244 -114 373t-296 129q-180 0 -294.5 -129t-114.5 -373t114.5 -377t294.5 -133q181 0 295.5 132.5t114.5 377.5zM1403 684q0 -326 -180 -517.5t-480 -191.5q-303 0 -481 193t-178 516
q0 319 179.5 509.5t479.5 190.5q302 0 481 -188t179 -512z" />
    <glyph glyph-name="Otilde" unicode="&#xd5;" horiz-adv-x="1486" 
d="M844 1573q78 0 94 80h160q-11 -67 -38.5 -114.5t-64 -71.5t-71 -34t-70.5 -10q-50 0 -95 20.5t-81.5 41t-67.5 20.5q-77 0 -90 -80h-162q11 66 38 113t62.5 71.5t71 35t72.5 10.5q51 0 94 -20.5t79 -41t69 -20.5zM1153 684q0 244 -114 373t-296 129q-180 0 -294.5 -129
t-114.5 -373t114.5 -377t294.5 -133q181 0 295.5 132.5t114.5 377.5zM1403 684q0 -326 -180 -517.5t-480 -191.5q-303 0 -481 193t-178 516q0 319 179.5 509.5t479.5 190.5q302 0 481 -188t179 -512z" />
    <glyph glyph-name="Odieresis" unicode="&#xd6;" horiz-adv-x="1486" 
d="M410 1640h200v-204h-200v204zM858 1640h201v-204h-201v204zM1153 684q0 244 -114 373t-296 129q-180 0 -294.5 -129t-114.5 -373t114.5 -377t294.5 -133q181 0 295.5 132.5t114.5 377.5zM1403 684q0 -326 -180 -517.5t-480 -191.5q-303 0 -481 193t-178 516
q0 319 179.5 509.5t479.5 190.5q302 0 481 -188t179 -512z" />
    <glyph glyph-name="multiply" unicode="&#xd7;" horiz-adv-x="980" 
d="M940 199l-141 -142l-316 316l-309 -310l-133 132l309 311l-307 307l141 141l308 -307l311 309l131 -133l-309 -309z" />
    <glyph glyph-name="Oslash" unicode="&#xd8;" horiz-adv-x="1478" 
d="M1358 1315l-121 -141q158 -191 158 -490q0 -326 -178 -517.5t-478 -191.5q-250 0 -411 131l-121 -141l-92 82l125 146q-156 192 -156 491q0 319 179 509.5t478 190.5q242 0 406 -127l117 138zM1147 684q0 182 -68 305l-606 -713q105 -102 266 -102q181 0 294.5 132.5
t113.5 377.5zM332 684q0 -187 65 -305l607 711q-110 96 -265 96q-180 0 -293.5 -129t-113.5 -373z" />
    <glyph glyph-name="Ugrave" unicode="&#xd9;" horiz-adv-x="1366" 
d="M670 1430l-295 215h291l202 -215h-198zM119 1360h241v-795q0 -202 70 -296.5t254 -94.5q182 0 252 98t70 301v787h241v-778q0 -325 -131 -466t-432 -141q-202 0 -323.5 57t-181.5 188.5t-60 354.5v785z" />
    <glyph glyph-name="Uacute" unicode="&#xda;" horiz-adv-x="1366" 
d="M119 1360h241v-795q0 -202 70 -296.5t254 -94.5q182 0 252 98t70 301v787h241v-778q0 -325 -131 -466t-432 -141q-202 0 -323.5 57t-181.5 188.5t-60 354.5v785zM1004 1645l-295 -215h-199l201 215h293z" />
    <glyph glyph-name="Ucircumflex" unicode="&#xdb;" horiz-adv-x="1366" 
d="M119 1360h241v-795q0 -202 70 -296.5t254 -94.5q182 0 252 98t70 301v787h241v-778q0 -325 -131 -466t-432 -141q-202 0 -323.5 57t-181.5 188.5t-60 354.5v785zM782 1645l256 -215h-231l-127 98l-131 -98h-230l263 215h200z" />
    <glyph glyph-name="Udieresis" unicode="&#xdc;" horiz-adv-x="1366" 
d="M119 1360h241v-795q0 -202 70 -296.5t254 -94.5q182 0 252 98t70 301v787h241v-778q0 -325 -131 -466t-432 -141q-202 0 -323.5 57t-181.5 188.5t-60 354.5v785zM348 1640h201v-204h-201v204zM797 1640h200v-204h-200v204z" />
    <glyph glyph-name="Yacute" unicode="&#xdd;" horiz-adv-x="1218" 
d="M-12 1360h276l342 -617l352 617h273l-508 -848v-512h-242v516zM913 1645l-295 -215h-198l201 215h292z" />
    <glyph glyph-name="Thorn" unicode="&#xde;" horiz-adv-x="1177" 
d="M385 1130h188q83 0 149 -6.5t136.5 -22.5t122 -48t93.5 -79.5t63.5 -120.5t21.5 -167q0 -102 -29.5 -178.5t-80.5 -124.5t-126.5 -78t-158.5 -41.5t-186 -11.5h-193v-252h-246v1360h246v-230zM573 930h-188v-477h201q60 0 104 5t87.5 19.5t71 39t44 67t16.5 100.5
q0 65 -19.5 111.5t-49 72.5t-77 40t-89.5 18t-101 4z" />
    <glyph glyph-name="germandbls" unicode="&#xdf;" horiz-adv-x="1226" 
d="M354 0h-227v897q0 135 27.5 219t83.5 141q127 127 391 127q130 0 229.5 -36t160 -113.5t60.5 -187.5q0 -102 -47.5 -173.5t-124.5 -105.5q113 -33 183.5 -125t70.5 -240q0 -107 -38.5 -190t-107.5 -134.5t-159.5 -77.5t-198.5 -26q-111 0 -217 23l37 195q86 -27 178 -27
q120 0 196.5 59t76.5 176q0 254 -357 254h-24v187h18q143 0 215 45t72 141q0 84 -60 129t-167 45q-153 0 -217 -80q-54 -70 -54 -231v-891z" />
    <glyph glyph-name="agrave" unicode="&#xe0;" horiz-adv-x="1064" 
d="M313 692l-211 6q11 151 128 240.5t313 89.5q221 0 318 -88t97 -297q0 -34 -2 -148.5t-2 -140.5q0 -172 21 -354h-213l-6 121q-98 -146 -326 -146q-166 0 -264 96t-98 232q0 142 110 217q63 43 151.5 66.5t215.5 38.5l188 20v35q0 97 -52.5 137.5t-150.5 40.5
q-97 0 -153 -43t-64 -123zM741 418v61l-190 -20q-129 -14 -188.5 -51.5t-59.5 -106.5q0 -65 47.5 -106t128.5 -41q110 0 186 66t76 198zM522 1118l-270 242h268l178 -242h-176z" />
    <glyph glyph-name="aacute" unicode="&#xe1;" horiz-adv-x="1064" 
d="M313 692l-211 6q11 151 128 240.5t313 89.5q221 0 318 -88t97 -297q0 -34 -2 -148.5t-2 -140.5q0 -172 21 -354h-213l-6 121q-98 -146 -326 -146q-166 0 -264 96t-98 232q0 142 110 217q63 43 151.5 66.5t215.5 38.5l188 20v35q0 97 -52.5 137.5t-150.5 40.5
q-97 0 -153 -43t-64 -123zM741 418v61l-190 -20q-129 -14 -188.5 -51.5t-59.5 -106.5q0 -65 47.5 -106t128.5 -41q110 0 186 66t76 198zM836 1360l-271 -242h-174l176 242h269z" />
    <glyph glyph-name="acircumflex" unicode="&#xe2;" horiz-adv-x="1064" 
d="M313 692l-211 6q11 151 128 240.5t313 89.5q221 0 318 -88t97 -297q0 -34 -2 -148.5t-2 -140.5q0 -172 21 -354h-213l-6 121q-98 -146 -326 -146q-166 0 -264 96t-98 232q0 142 110 217q63 43 151.5 66.5t215.5 38.5l188 20v35q0 97 -52.5 137.5t-150.5 40.5
q-97 0 -153 -43t-64 -123zM741 418v61l-190 -20q-129 -14 -188.5 -51.5t-59.5 -106.5q0 -65 47.5 -106t128.5 -41q110 0 186 66t76 198zM623 1360l266 -242h-209l-150 113l-153 -113h-207l272 242h181z" />
    <glyph glyph-name="atilde" unicode="&#xe3;" horiz-adv-x="1064" 
d="M313 692l-211 6q11 151 128 240.5t313 89.5q221 0 318 -88t97 -297q0 -34 -2 -148.5t-2 -140.5q0 -172 21 -354h-213l-6 121q-98 -146 -326 -146q-166 0 -264 96t-98 232q0 142 110 217q63 43 151.5 66.5t215.5 38.5l188 20v35q0 97 -52.5 137.5t-150.5 40.5
q-97 0 -153 -43t-64 -123zM741 418v61l-190 -20q-129 -14 -188.5 -51.5t-59.5 -106.5q0 -65 47.5 -106t128.5 -41q110 0 186 66t76 198zM649 1274q79 0 94 84h162q-11 -71 -38.5 -121.5t-64 -75t-71.5 -35t-72 -10.5q-51 0 -95.5 21.5t-81.5 43t-68 21.5q-77 0 -92 -84h-162
q11 69 38 119t63.5 75.5t72 36.5t72.5 11q51 0 94 -21.5t79 -43t70 -21.5z" />
    <glyph glyph-name="adieresis" unicode="&#xe4;" horiz-adv-x="1064" 
d="M313 692l-211 6q11 151 128 240.5t313 89.5q221 0 318 -88t97 -297q0 -34 -2 -148.5t-2 -140.5q0 -172 21 -354h-213l-6 121q-98 -146 -326 -146q-166 0 -264 96t-98 232q0 142 110 217q63 43 151.5 66.5t215.5 38.5l188 20v35q0 97 -52.5 137.5t-150.5 40.5
q-97 0 -153 -43t-64 -123zM741 418v61l-190 -20q-129 -14 -188.5 -51.5t-59.5 -106.5q0 -65 47.5 -106t128.5 -41q110 0 186 66t76 198zM211 1133v210h201v-210h-201zM659 1343h201v-210h-201v210z" />
    <glyph glyph-name="aring" unicode="&#xe5;" horiz-adv-x="1064" 
d="M313 692l-211 6q11 151 128 240.5t313 89.5q221 0 318 -88t97 -297q0 -34 -2 -148.5t-2 -140.5q0 -172 21 -354h-213l-6 121q-98 -146 -326 -146q-166 0 -264 96t-98 232q0 142 110 217q63 43 151.5 66.5t215.5 38.5l188 20v35q0 97 -52.5 137.5t-150.5 40.5
q-97 0 -153 -43t-64 -123zM741 418v61l-190 -20q-129 -14 -188.5 -51.5t-59.5 -106.5q0 -65 47.5 -106t128.5 -41q110 0 186 66t76 198zM524 1442q74 0 126 -47.5t52 -118.5q0 -72 -51 -119t-127 -47q-74 0 -125 47.5t-51 118.5t51.5 118.5t124.5 47.5zM524 1356
q-32 0 -55 -23t-23 -57q0 -33 22.5 -55.5t55.5 -22.5t56.5 22.5t23.5 55.5t-23.5 56.5t-56.5 23.5z" />
    <glyph glyph-name="ae" unicode="&#xe6;" horiz-adv-x="1757" 
d="M317 688l-215 8q11 152 128 242t313 90q251 0 342 -137q130 133 336 133q234 0 365 -166.5t116 -425.5h-752q1 -124 76.5 -199t198.5 -75q183 0 241 157l220 -28q-44 -142 -169.5 -227t-291.5 -85q-272 0 -398 195q-61 -97 -164 -146t-231 -49q-168 0 -266 96t-98 232
q0 138 110 213q113 79 367 109l188 20v35q0 97 -52.5 137.5t-150.5 40.5q-96 0 -150.5 -45t-62.5 -125zM479 154q110 0 186 66t76 198v61l-190 -20q-129 -14 -188.5 -51.5t-59.5 -106.5q0 -65 47.5 -106t128.5 -41zM948 600h522q-4 115 -76 182.5t-177 67.5
q-114 0 -188.5 -65.5t-80.5 -184.5z" />
    <glyph glyph-name="ccedilla" unicode="&#xe7;" horiz-adv-x="1060" 
d="M332 -336l33 82q56 -27 110 -27q46 0 77.5 14t31.5 44q0 27 -21.5 41t-56.5 14q-47 0 -74 -16l-57 32l82 134q-187 27 -292.5 168t-105.5 350q0 234 133 379t365 145q171 0 295 -93.5t156 -250.5l-220 -31q-16 86 -77.5 139.5t-159.5 53.5q-115 0 -186.5 -88t-71.5 -252
q0 -166 72 -255t186 -89q92 0 157.5 48t86.5 146l221 -28q-37 -162 -164 -254t-299 -95l-41 -67q34 6 68 6q65 -2 106 -37t41 -92q0 -71 -65 -113.5t-150 -42.5q-104 0 -180 35z" />
    <glyph glyph-name="egrave" unicode="&#xe8;" horiz-adv-x="1097" 
d="M561 -25q-122 0 -219 40.5t-158 112t-93 166.5t-32 206q0 233 137 378.5t359 145.5q157 0 271 -75.5t169.5 -209t46.5 -307.5h-753q3 -124 77.5 -199t190.5 -75q189 0 250 157l219 -28q-19 -59 -55.5 -112.5t-92 -99.5t-137.5 -73t-180 -27zM557 850q-108 0 -185 -63.5
t-83 -186.5h522q-4 113 -76.5 181.5t-177.5 68.5zM545 1118l-271 242h269l178 -242h-176z" />
    <glyph glyph-name="eacute" unicode="&#xe9;" horiz-adv-x="1097" 
d="M561 -25q-122 0 -219 40.5t-158 112t-93 166.5t-32 206q0 233 137 378.5t359 145.5q157 0 271 -75.5t169.5 -209t46.5 -307.5h-753q3 -124 77.5 -199t190.5 -75q189 0 250 157l219 -28q-19 -59 -55.5 -112.5t-92 -99.5t-137.5 -73t-180 -27zM557 850q-108 0 -185 -63.5
t-83 -186.5h522q-4 113 -76.5 181.5t-177.5 68.5zM856 1360l-270 -242h-174l176 242h268z" />
    <glyph glyph-name="ecircumflex" unicode="&#xea;" horiz-adv-x="1097" 
d="M561 -25q-122 0 -219 40.5t-158 112t-93 166.5t-32 206q0 233 137 378.5t359 145.5q157 0 271 -75.5t169.5 -209t46.5 -307.5h-753q3 -124 77.5 -199t190.5 -75q189 0 250 157l219 -28q-19 -59 -55.5 -112.5t-92 -99.5t-137.5 -73t-180 -27zM557 850q-108 0 -185 -63.5
t-83 -186.5h522q-4 113 -76.5 181.5t-177.5 68.5zM639 1360l266 -242h-209l-149 113l-154 -113h-207l273 242h180z" />
    <glyph glyph-name="edieresis" unicode="&#xeb;" horiz-adv-x="1097" 
d="M561 -25q-122 0 -219 40.5t-158 112t-93 166.5t-32 206q0 233 137 378.5t359 145.5q157 0 271 -75.5t169.5 -209t46.5 -307.5h-753q3 -124 77.5 -199t190.5 -75q189 0 250 157l219 -28q-19 -59 -55.5 -112.5t-92 -99.5t-137.5 -73t-180 -27zM557 850q-108 0 -185 -63.5
t-83 -186.5h522q-4 113 -76.5 181.5t-177.5 68.5zM676 1343h201v-210h-201v210zM227 1133v210h201v-210h-201z" />
    <glyph glyph-name="igrave" unicode="&#xec;" horiz-adv-x="479" 
d="M127 1004h227v-1004h-227v1004zM170 1118l-270 242h268l178 -242h-176z" />
    <glyph glyph-name="iacute" unicode="&#xed;" horiz-adv-x="479" 
d="M578 1360l-271 -242h-174l176 242h269zM127 1004h227v-1004h-227v1004z" />
    <glyph glyph-name="icircumflex" unicode="&#xee;" horiz-adv-x="479" 
d="M311 1360l248 -262h-215l-102 125l-107 -125h-213l252 262h137zM127 1004h227v-1004h-227v1004z" />
    <glyph glyph-name="idieresis" unicode="&#xef;" horiz-adv-x="479" 
d="M-31 1124v211h201v-211h-201zM311 1124v211h201v-211h-201zM127 1004h227v-1004h-227v1004z" />
    <glyph glyph-name="eth" unicode="&#xf0;" horiz-adv-x="1101" 
d="M616 1315l119 74l103 -52l-133 -82q327 -246 327 -663q0 -153 -36.5 -272t-103 -194t-156 -113t-197.5 -38q-217 0 -348.5 141.5t-131.5 385.5q0 237 125 379.5t318 142.5q173 0 276 -129l2 2q-71 144 -235 260l-137 -84l-101 49l146 90q-45 25 -154 74l162 113
q87 -41 155 -84zM537 158q120 0 188 85.5t68 258.5q0 166 -69.5 254t-186.5 88t-180.5 -93t-63.5 -251t63.5 -250t180.5 -92z" />
    <glyph glyph-name="ntilde" unicode="&#xf1;" horiz-adv-x="1120" 
d="M354 1004v-125q43 68 123.5 106.5t186.5 38.5q195 0 282 -125q66 -97 66 -278v-621h-228v563q0 87 -11.5 140t-43.5 85q-48 48 -137 48q-124 0 -181 -84.5t-57 -231.5v-520h-227v1004h227zM707 1274q79 0 94 84h162q-11 -71 -38.5 -121.5t-64 -75t-71.5 -35t-72 -10.5
q-40 0 -77.5 13.5t-61 29.5t-52.5 29.5t-55 13.5q-77 0 -92 -84h-162q11 69 38 119t63.5 75.5t72 36.5t72.5 11q51 0 94.5 -21.5t79.5 -43t70 -21.5z" />
    <glyph glyph-name="ograve" unicode="&#xf2;" horiz-adv-x="1101" 
d="M293 500q0 -166 70 -254t188 -88q119 0 188.5 88t69.5 254t-69.5 254t-188.5 88q-118 0 -188 -88t-70 -254zM59 500q0 131 40 233t109.5 164.5t156.5 94.5t186 32t186 -32t156 -94.5t109 -164.5t40 -233q0 -105 -26.5 -192.5t-72 -148t-108 -103t-134 -62t-150.5 -19.5
t-150.5 19.5t-134 62t-108.5 103t-72.5 148t-26.5 192.5zM563 1118l-270 242h268l178 -242h-176z" />
    <glyph glyph-name="oacute" unicode="&#xf3;" horiz-adv-x="1101" 
d="M860 1360l-270 -242h-174l176 242h268zM293 500q0 -166 70 -254t188 -88q119 0 188.5 88t69.5 254t-69.5 254t-188.5 88q-118 0 -188 -88t-70 -254zM59 500q0 131 40 233t109.5 164.5t156.5 94.5t186 32t186 -32t156 -94.5t109 -164.5t40 -233q0 -105 -26.5 -192.5
t-72 -148t-108 -103t-134 -62t-150.5 -19.5t-150.5 19.5t-134 62t-108.5 103t-72.5 148t-26.5 192.5z" />
    <glyph glyph-name="ocircumflex" unicode="&#xf4;" horiz-adv-x="1101" 
d="M643 1360l266 -242h-209l-149 113l-154 -113h-207l273 242h180zM293 500q0 -166 70 -254t188 -88q119 0 188.5 88t69.5 254t-69.5 254t-188.5 88q-118 0 -188 -88t-70 -254zM59 500q0 131 40 233t109.5 164.5t156.5 94.5t186 32t186 -32t156 -94.5t109 -164.5t40 -233
q0 -105 -26.5 -192.5t-72 -148t-108 -103t-134 -62t-150.5 -19.5t-150.5 19.5t-134 62t-108.5 103t-72.5 148t-26.5 192.5z" />
    <glyph glyph-name="otilde" unicode="&#xf5;" horiz-adv-x="1101" 
d="M293 500q0 -166 70 -254t188 -88q119 0 188.5 88t69.5 254t-69.5 254t-188.5 88q-118 0 -188 -88t-70 -254zM59 500q0 131 40 233t109.5 164.5t156.5 94.5t186 32t186 -32t156 -94.5t109 -164.5t40 -233q0 -105 -26.5 -192.5t-72 -148t-108 -103t-134 -62t-150.5 -19.5
t-150.5 19.5t-134 62t-108.5 103t-72.5 148t-26.5 192.5zM670 1274q79 0 94 84h162q-11 -71 -38.5 -121.5t-64 -75t-71.5 -35t-72 -10.5q-40 0 -77.5 13.5t-61 29.5t-52.5 29.5t-55 13.5q-77 0 -92 -84h-162q11 69 38 119t63.5 75.5t72 36.5t72.5 11q51 0 94.5 -21.5
t79.5 -43t70 -21.5z" />
    <glyph glyph-name="odieresis" unicode="&#xf6;" horiz-adv-x="1101" 
d="M225 1133v210h201v-210h-201zM674 1343h200v-210h-200v210zM293 500q0 -166 70 -254t188 -88q119 0 188.5 88t69.5 254t-69.5 254t-188.5 88q-118 0 -188 -88t-70 -254zM59 500q0 131 40 233t109.5 164.5t156.5 94.5t186 32t186 -32t156 -94.5t109 -164.5t40 -233
q0 -105 -26.5 -192.5t-72 -148t-108 -103t-134 -62t-150.5 -19.5t-150.5 19.5t-134 62t-108.5 103t-72.5 148t-26.5 192.5z" />
    <glyph glyph-name="divide" unicode="&#xf7;" horiz-adv-x="1130" 
d="M436 49v248h258v-248h-258zM436 707v247h258v-247h-258zM1069 399h-1008v205h1008v-205z" />
    <glyph glyph-name="oslash" unicode="&#xf8;" horiz-adv-x="1103" 
d="M59 500q0 130 41.5 232.5t111.5 164.5t157 94.5t184 32.5q168 0 295 -92l102 117l86 -76l-104 -121q112 -134 112 -352q0 -105 -27 -192.5t-73.5 -148t-109.5 -103t-134 -62t-147 -19.5q-170 0 -301 93l-102 -119l-87 78l107 120q-111 137 -111 353zM811 500
q0 101 -29 180l-397 -459q63 -63 168 -63q119 0 188.5 88t69.5 254zM293 500q0 -107 26 -178l398 458q-65 62 -164 62q-120 0 -190 -88t-70 -254z" />
    <glyph glyph-name="ugrave" unicode="&#xf9;" horiz-adv-x="1112" 
d="M760 0v125q-98 -150 -303 -150q-177 0 -269 115q-73 94 -73 289v625h227v-574q0 -139 33 -192q47 -74 157 -74q119 0 173.5 86t54.5 233v521h227v-1004h-227zM545 1118l-271 242h269l178 -242h-176z" />
    <glyph glyph-name="uacute" unicode="&#xfa;" horiz-adv-x="1112" 
d="M854 1360l-270 -242h-174l176 242h268zM760 0v125q-98 -150 -303 -150q-177 0 -269 115q-73 94 -73 289v625h227v-574q0 -139 33 -192q47 -74 157 -74q119 0 173.5 86t54.5 233v521h227v-1004h-227z" />
    <glyph glyph-name="ucircumflex" unicode="&#xfb;" horiz-adv-x="1112" 
d="M653 1360l267 -242h-209l-150 113l-153 -113h-207l272 242h180zM760 0v125q-98 -150 -303 -150q-177 0 -269 115q-73 94 -73 289v625h227v-574q0 -139 33 -192q47 -74 157 -74q119 0 173.5 86t54.5 233v521h227v-1004h-227z" />
    <glyph glyph-name="udieresis" unicode="&#xfc;" horiz-adv-x="1112" 
d="M233 1133v210h201v-210h-201zM682 1343h201v-210h-201v210zM760 0v125q-98 -150 -303 -150q-177 0 -269 115q-73 94 -73 289v625h227v-574q0 -139 33 -192q47 -74 157 -74q119 0 173.5 86t54.5 233v521h227v-1004h-227z" />
    <glyph glyph-name="yacute" unicode="&#xfd;" horiz-adv-x="935" 
d="M182 -354h-102v190h86q79 0 116 25.5t70 120.5l10 24l-370 998h248l231 -715l234 715h231l-361 -1002q-26 -71 -47 -118.5t-46.5 -90.5t-53 -68.5t-64 -44.5t-80.5 -26.5t-102 -7.5zM791 1360l-271 -242h-174l176 242h269z" />
    <glyph glyph-name="thorn" unicode="&#xfe;" horiz-adv-x="1136" 
d="M127 -354v1714h227v-479q100 143 293 143q191 0 310.5 -141.5t119.5 -384.5q0 -238 -125.5 -380.5t-320.5 -142.5q-180 0 -277 127v-456h-227zM600 842q-116 0 -186 -89.5t-70 -254.5q0 -162 69.5 -251t186.5 -89t180.5 92t63.5 250t-63 250t-181 92z" />
    <glyph glyph-name="ydieresis" unicode="&#xff;" horiz-adv-x="935" 
d="M182 -354h-102v190h86q79 0 116 25.5t70 120.5l10 24l-370 998h248l231 -715l234 715h231l-361 -1002q-26 -71 -47 -118.5t-46.5 -90.5t-53 -68.5t-64 -44.5t-80.5 -26.5t-102 -7.5zM158 1133v210h200v-210h-200zM606 1343h201v-210h-201v210z" />
    <glyph glyph-name="Amacron" unicode="&#x100;" horiz-adv-x="1286" 
d="M0 0l514 1360h254l518 -1360h-264l-104 287h-568l-102 -287h-248zM633 1079l-211 -592h424zM924 1454h-586v166h586v-166z" />
    <glyph glyph-name="amacron" unicode="&#x101;" horiz-adv-x="1064" 
d="M313 692l-211 6q11 151 128 240.5t313 89.5q221 0 318 -88t97 -297q0 -34 -2 -148.5t-2 -140.5q0 -172 21 -354h-213l-6 121q-98 -146 -326 -146q-166 0 -264 96t-98 232q0 142 110 217q63 43 151.5 66.5t215.5 38.5l188 20v35q0 97 -52.5 137.5t-150.5 40.5
q-97 0 -153 -43t-64 -123zM741 418v61l-190 -20q-129 -14 -188.5 -51.5t-59.5 -106.5q0 -65 47.5 -106t128.5 -41q110 0 186 66t76 198zM831 1155h-585v166h585v-166z" />
    <glyph glyph-name="Abreve" unicode="&#x102;" horiz-adv-x="1286" 
d="M0 0l514 1360h254l518 -1360h-264l-104 287h-568l-102 -287h-248zM633 1079l-211 -592h424zM780 1645h170q-11 -109 -90.5 -166.5t-224.5 -57.5q-142 0 -221 57.5t-90 166.5h170q12 -97 143 -97t143 97z" />
    <glyph glyph-name="abreve" unicode="&#x103;" horiz-adv-x="1064" 
d="M313 692l-211 6q11 151 128 240.5t313 89.5q221 0 318 -88t97 -297q0 -34 -2 -148.5t-2 -140.5q0 -172 21 -354h-213l-6 121q-98 -146 -326 -146q-166 0 -264 96t-98 232q0 142 110 217q63 43 151.5 66.5t215.5 38.5l188 20v35q0 97 -52.5 137.5t-150.5 40.5
q-97 0 -153 -43t-64 -123zM741 418v61l-190 -20q-129 -14 -188.5 -51.5t-59.5 -106.5q0 -65 47.5 -106t128.5 -41q110 0 186 66t76 198zM856 1360q-12 -112 -88.5 -182t-228.5 -70q-149 0 -225.5 70.5t-86.5 181.5h166q6 -57 42.5 -91t105.5 -34q70 0 107.5 34.5t43.5 90.5
h164z" />
    <glyph glyph-name="Aogonek" unicode="&#x104;" horiz-adv-x="1286" 
d="M1053 0h-31l-104 287h-568l-102 -287h-248l514 1360h254l518 -1360q-172 -84 -172 -150q0 -37 27.5 -54t70.5 -17q42 0 103 18v-139q-72 -20 -146 -20q-106 0 -181 44.5t-75 131.5q0 114 140 186zM633 1079l-211 -592h424z" />
    <glyph glyph-name="aogonek" unicode="&#x105;" horiz-adv-x="1064" 
d="M762 0l-6 121q-98 -146 -326 -146q-166 0 -264 96t-98 232q0 142 110 217q63 43 151.5 66.5t215.5 38.5l188 20v35q0 97 -52.5 137.5t-150.5 40.5q-97 0 -153 -43t-64 -123l-211 6q11 151 128 240.5t313 89.5q221 0 318 -88t97 -297q0 -34 -2 -148.5t-2 -140.5
q0 -172 21 -354q-80 -39 -122 -74.5t-42 -75.5q0 -37 27.5 -54t70.5 -17q42 0 103 18v-139q-72 -20 -146 -20q-106 0 -181 44.5t-75 131.5q0 55 41 102.5t111 83.5zM741 418v61l-190 -20q-129 -14 -188.5 -51.5t-59.5 -106.5q0 -65 47.5 -106t128.5 -41q110 0 186 66t76 198
z" />
    <glyph glyph-name="Cacute" unicode="&#x106;" horiz-adv-x="1370" 
d="M1085 455l232 -35q-43 -205 -201 -325t-395 -120q-300 0 -468.5 191t-168.5 518q0 325 174.5 512.5t474.5 187.5q229 0 383.5 -120t196.5 -324l-232 -35q-30 137 -124 209t-232 72q-172 0 -281.5 -130.5t-109.5 -371.5q0 -243 108.5 -376.5t280.5 -133.5q142 0 236 71
t126 210zM1061 1645l-295 -215h-199l201 215h293z" />
    <glyph glyph-name="cacute" unicode="&#x107;" horiz-adv-x="1060" 
d="M862 1360l-270 -242h-174l176 242h268zM557 1024q171 0 295 -93.5t156 -250.5l-220 -31q-16 86 -77.5 139.5t-159.5 53.5q-115 0 -186.5 -88t-71.5 -252q0 -166 72 -255t186 -89q92 0 157.5 48t86.5 146l221 -28q-25 -109 -94 -189t-165.5 -120t-209.5 -40
q-227 0 -357.5 145.5t-130.5 379.5t133 379t365 145z" />
    <glyph glyph-name="Ccircumflex" unicode="&#x108;" horiz-adv-x="1370" 
d="M1085 455l232 -35q-43 -205 -201 -325t-395 -120q-300 0 -468.5 191t-168.5 518q0 325 174.5 512.5t474.5 187.5q229 0 383.5 -120t196.5 -324l-232 -35q-30 137 -124 209t-232 72q-172 0 -281.5 -130.5t-109.5 -371.5q0 -243 108.5 -376.5t280.5 -133.5q142 0 236 71
t126 210zM821 1645l256 -215h-231l-127 98l-131 -98h-230l263 215h200z" />
    <glyph glyph-name="ccircumflex" unicode="&#x109;" horiz-adv-x="1060" 
d="M643 1360l266 -242h-209l-149 113l-154 -113h-207l273 242h180zM557 1024q171 0 295 -93.5t156 -250.5l-220 -31q-16 86 -77.5 139.5t-159.5 53.5q-115 0 -186.5 -88t-71.5 -252q0 -166 72 -255t186 -89q92 0 157.5 48t86.5 146l221 -28q-25 -109 -94 -189t-165.5 -120
t-209.5 -40q-227 0 -357.5 145.5t-130.5 379.5t133 379t365 145z" />
    <glyph glyph-name="Cdotaccent" unicode="&#x10a;" horiz-adv-x="1370" 
d="M1085 455l232 -35q-43 -205 -201 -325t-395 -120q-300 0 -468.5 191t-168.5 518q0 325 174.5 512.5t474.5 187.5q229 0 383.5 -120t196.5 -324l-232 -35q-30 137 -124 209t-232 72q-172 0 -281.5 -130.5t-109.5 -371.5q0 -243 108.5 -376.5t280.5 -133.5q142 0 236 71
t126 210zM606 1640h234v-204h-234v204z" />
    <glyph glyph-name="cdotaccent" unicode="&#x10b;" horiz-adv-x="1060" 
d="M557 1024q171 0 295 -93.5t156 -250.5l-220 -31q-16 86 -77.5 139.5t-159.5 53.5q-115 0 -186.5 -88t-71.5 -252q0 -166 72 -255t186 -89q92 0 157.5 48t86.5 146l221 -28q-25 -109 -94 -189t-165.5 -120t-209.5 -40q-227 0 -357.5 145.5t-130.5 379.5t133 379t365 145z
M444 1343h201v-210h-201v210z" />
    <glyph glyph-name="Ccaron" unicode="&#x10c;" horiz-adv-x="1370" 
d="M618 1430l-256 215h232l127 -99l131 99h229l-262 -215h-201zM1085 455l232 -35q-43 -205 -201 -325t-395 -120q-300 0 -468.5 191t-168.5 518q0 325 174.5 512.5t474.5 187.5q229 0 383.5 -120t196.5 -324l-232 -35q-30 137 -124 209t-232 72q-172 0 -281.5 -130.5
t-109.5 -371.5q0 -243 108.5 -376.5t280.5 -133.5q142 0 236 71t126 210z" />
    <glyph glyph-name="ccaron" unicode="&#x10d;" horiz-adv-x="1060" 
d="M461 1118l-266 242h208l150 -113l154 113h206l-272 -242h-180zM557 1024q171 0 295 -93.5t156 -250.5l-220 -31q-16 86 -77.5 139.5t-159.5 53.5q-115 0 -186.5 -88t-71.5 -252q0 -166 72 -255t186 -89q92 0 157.5 48t86.5 146l221 -28q-25 -109 -94 -189t-165.5 -120
t-209.5 -40q-227 0 -357.5 145.5t-130.5 379.5t133 379t365 145z" />
    <glyph glyph-name="Dcaron" unicode="&#x10e;" horiz-adv-x="1347" 
d="M481 1430l-256 215h232l127 -99l131 99h229l-262 -215h-201zM1016 680q0 91 -17.5 163.5t-45 122t-72 85.5t-89 56t-104.5 31.5t-110 15t-115 3.5h-82v-954h82q65 0 115 3.5t110 15t104.5 31.5t89 56t72 85.5t45 122t17.5 163.5zM139 1360h336q139 0 251.5 -18.5
t215.5 -66t172.5 -123t110.5 -195.5t41 -277t-41 -277t-110.5 -195.5t-172.5 -123t-215.5 -66t-251.5 -18.5h-336v1360z" />
    <glyph glyph-name="dcaron" unicode="&#x10f;" horiz-adv-x="1275" 
d="M1350 1360l-133 -324h-148l57 324h224zM1010 1360v-1360h-217l-5 119q-101 -144 -299 -144q-191 0 -310.5 142t-119.5 385q0 237 125.5 379.5t321.5 142.5q180 0 276 -129v465h228zM537 158q116 0 186 89.5t70 254.5q0 162 -69.5 251t-186.5 89t-180.5 -92t-63.5 -250
t63.5 -250t180.5 -92z" />
    <glyph glyph-name="Dcroat" unicode="&#x110;" horiz-adv-x="1355" 
d="M16 799h136v561h335q139 0 251.5 -18.5t215 -66t171.5 -123t110 -195.5t41 -277t-41 -277t-110 -195.5t-171.5 -123t-215 -66t-251.5 -18.5h-335v598h-136v201zM1026 680q0 91 -17 163.5t-45 122t-72 85.5t-88 56t-104 31.5t-110 15t-115 3.5h-82v-358h279v-201h-279
v-395h82q65 0 115 3.5t110 15t104 31.5t88 56t72 85.5t45 122t17 163.5z" />
    <glyph glyph-name="dcroat" unicode="&#x111;" horiz-adv-x="1136" 
d="M1010 1077v-1077h-217l-5 119q-101 -144 -299 -144q-191 0 -310.5 142t-119.5 385q0 237 125.5 379.5t321.5 142.5q180 0 276 -129v182h-229v150h229v133h228v-133h159v-150h-159zM537 158q116 0 186 89.5t70 254.5q0 162 -69.5 251t-186.5 89t-180.5 -92t-63.5 -250
t63.5 -250t180.5 -92z" />
    <glyph glyph-name="Emacron" unicode="&#x112;" horiz-adv-x="1171" 
d="M922 1454h-586v166h586v-166zM139 0v1360h977v-203h-735v-358h694v-201h-694v-395h735v-203h-977z" />
    <glyph glyph-name="emacron" unicode="&#x113;" horiz-adv-x="1097" 
d="M561 -25q-122 0 -219 40.5t-158 112t-93 166.5t-32 206q0 233 137 378.5t359 145.5q157 0 271 -75.5t169.5 -209t46.5 -307.5h-753q3 -124 77.5 -199t190.5 -75q189 0 250 157l219 -28q-19 -59 -55.5 -112.5t-92 -99.5t-137.5 -73t-180 -27zM557 850q-108 0 -185 -63.5
t-83 -186.5h522q-4 113 -76.5 181.5t-177.5 68.5zM848 1155h-586v166h586v-166z" />
    <glyph glyph-name="Ebreve" unicode="&#x114;" horiz-adv-x="1171" 
d="M770 1645h170q-11 -109 -90.5 -166.5t-224.5 -57.5q-142 0 -221.5 57.5t-90.5 166.5h170q12 -97 144 -97q131 0 143 97zM139 0v1360h977v-203h-735v-358h694v-201h-694v-395h735v-203h-977z" />
    <glyph glyph-name="ebreve" unicode="&#x115;" horiz-adv-x="1097" 
d="M561 -25q-122 0 -219 40.5t-158 112t-93 166.5t-32 206q0 233 137 378.5t359 145.5q157 0 271 -75.5t169.5 -209t46.5 -307.5h-753q3 -124 77.5 -199t190.5 -75q189 0 250 157l219 -28q-19 -59 -55.5 -112.5t-92 -99.5t-137.5 -73t-180 -27zM557 850q-108 0 -185 -63.5
t-83 -186.5h522q-4 113 -76.5 181.5t-177.5 68.5zM862 1360q-12 -112 -88.5 -182t-228.5 -70q-149 0 -225.5 70.5t-86.5 181.5h166q6 -57 42.5 -91t105.5 -34q70 0 107.5 34.5t43.5 90.5h164z" />
    <glyph glyph-name="Edotaccent" unicode="&#x116;" horiz-adv-x="1171" 
d="M504 1640h233v-204h-233v204zM139 0v1360h977v-203h-735v-358h694v-201h-694v-395h735v-203h-977z" />
    <glyph glyph-name="edotaccent" unicode="&#x117;" horiz-adv-x="1097" 
d="M561 -25q-122 0 -219 40.5t-158 112t-93 166.5t-32 206q0 233 137 378.5t359 145.5q157 0 271 -75.5t169.5 -209t46.5 -307.5h-753q3 -124 77.5 -199t190.5 -75q189 0 250 157l219 -28q-19 -59 -55.5 -112.5t-92 -99.5t-137.5 -73t-180 -27zM557 850q-108 0 -185 -63.5
t-83 -186.5h522q-4 113 -76.5 181.5t-177.5 68.5zM451 1343h200v-210h-200v210z" />
    <glyph glyph-name="Eogonek" unicode="&#x118;" horiz-adv-x="1171" 
d="M139 0v1360h977v-203h-735v-358h694v-201h-694v-395h735v-203q-170 -85 -170 -150q0 -37 27.5 -54t70.5 -17q42 0 103 18v-139q-72 -20 -146 -20q-106 0 -181 44.5t-75 131.5q0 114 140 186h-746z" />
    <glyph glyph-name="eogonek" unicode="&#x119;" horiz-adv-x="1097" 
d="M367 -186q0 101 106 168q-200 27 -307 169t-107 349q0 233 137 378.5t359 145.5q157 0 271 -75.5t169.5 -209t46.5 -307.5h-753q3 -124 77.5 -199t190.5 -75q189 0 250 157l219 -28q-65 -201 -303 -295q-156 -61 -156 -142q0 -37 28 -54t71 -17q41 0 102 18v-139
q-72 -20 -145 -20q-106 0 -181 44.5t-75 131.5zM557 850q-108 0 -185 -63.5t-83 -186.5h522q-4 113 -76.5 181.5t-177.5 68.5z" />
    <glyph glyph-name="Ecaron" unicode="&#x11a;" horiz-adv-x="1171" 
d="M526 1430l-256 215h232l127 -99l131 99h229l-262 -215h-201zM139 0v1360h977v-203h-735v-358h694v-201h-694v-395h735v-203h-977z" />
    <glyph glyph-name="ecaron" unicode="&#x11b;" horiz-adv-x="1097" 
d="M561 -25q-122 0 -219 40.5t-158 112t-93 166.5t-32 206q0 233 137 378.5t359 145.5q157 0 271 -75.5t169.5 -209t46.5 -307.5h-753q3 -124 77.5 -199t190.5 -75q189 0 250 157l219 -28q-19 -59 -55.5 -112.5t-92 -99.5t-137.5 -73t-180 -27zM557 850q-108 0 -185 -63.5
t-83 -186.5h522q-4 113 -76.5 181.5t-177.5 68.5zM459 1118l-266 242h208l150 -113l154 113h206l-272 -242h-180z" />
    <glyph glyph-name="Gcircumflex" unicode="&#x11c;" horiz-adv-x="1454" 
d="M838 1645l256 -215h-232l-127 98l-131 -98h-229l262 215h201zM745 1384q228 0 384 -118t200 -312l-231 -32q-34 127 -127.5 195.5t-229.5 68.5q-184 0 -295.5 -128t-111.5 -374t109 -378t296 -132q52 0 101.5 9t99 32t86 58t59.5 91.5t23 127.5v26h-352v203h577v-721
h-190l-8 166q-61 -92 -171 -141.5t-251 -49.5q-293 0 -461 191.5t-168 517.5q0 322 178 511t483 189z" />
    <glyph glyph-name="gcircumflex" unicode="&#x11d;" horiz-adv-x="1132" 
d="M657 1360l267 -242h-209l-150 113l-153 -113h-207l272 242h180zM780 66v90q-103 -140 -291 -140q-190 0 -310 137.5t-120 368.5q0 226 126 364t321 138q180 0 276 -129l4 109h222v-893q0 -136 -28 -220.5t-85 -138.5q-117 -114 -356 -114q-179 0 -296.5 77t-142.5 238
l226 8q15 -73 67 -108t152 -35q117 0 176 53q59 56 59 195zM537 199q117 0 185.5 81.5t68.5 241.5q0 151 -69 235.5t-185 84.5t-180 -88t-64 -234q0 -154 63 -237.5t181 -83.5z" />
    <glyph glyph-name="Gbreve" unicode="&#x11e;" horiz-adv-x="1454" 
d="M881 1645h170q-11 -109 -91 -166.5t-225 -57.5q-142 0 -221 57.5t-90 166.5h170q12 -97 143 -97q132 0 144 97zM745 1384q228 0 384 -118t200 -312l-231 -32q-34 127 -127.5 195.5t-229.5 68.5q-184 0 -295.5 -128t-111.5 -374t109 -378t296 -132q52 0 101.5 9t99 32
t86 58t59.5 91.5t23 127.5v26h-352v203h577v-721h-190l-8 166q-61 -92 -171 -141.5t-251 -49.5q-293 0 -461 191.5t-168 517.5q0 322 178 511t483 189z" />
    <glyph glyph-name="gbreve" unicode="&#x11f;" horiz-adv-x="1132" 
d="M780 66v90q-103 -140 -291 -140q-190 0 -310 137.5t-120 368.5q0 226 126 364t321 138q180 0 276 -129l4 109h222v-893q0 -136 -28 -220.5t-85 -138.5q-117 -114 -356 -114q-179 0 -296.5 77t-142.5 238l226 8q15 -73 67 -108t152 -35q117 0 176 53q59 56 59 195z
M537 199q117 0 185.5 81.5t68.5 241.5q0 151 -69 235.5t-185 84.5t-180 -88t-64 -234q0 -154 63 -237.5t181 -83.5zM874 1360q-12 -112 -88.5 -182t-228.5 -70q-149 0 -225 70.5t-86 181.5h166q7 -57 42.5 -91t104.5 -34q70 0 108 34.5t44 90.5h163z" />
    <glyph glyph-name="Gdotaccent" unicode="&#x120;" horiz-adv-x="1454" 
d="M602 1640h234v-204h-234v204zM745 1384q228 0 384 -118t200 -312l-231 -32q-34 127 -127.5 195.5t-229.5 68.5q-184 0 -295.5 -128t-111.5 -374t109 -378t296 -132q52 0 101.5 9t99 32t86 58t59.5 91.5t23 127.5v26h-352v203h577v-721h-190l-8 166q-61 -92 -171 -141.5
t-251 -49.5q-293 0 -461 191.5t-168 517.5q0 322 178 511t483 189z" />
    <glyph glyph-name="gdotaccent" unicode="&#x121;" horiz-adv-x="1132" 
d="M780 66v90q-103 -140 -291 -140q-190 0 -310 137.5t-120 368.5q0 226 126 364t321 138q180 0 276 -129l4 109h222v-893q0 -136 -28 -220.5t-85 -138.5q-117 -114 -356 -114q-179 0 -296.5 77t-142.5 238l226 8q15 -73 67 -108t152 -35q117 0 176 53q59 56 59 195z
M537 199q117 0 185.5 81.5t68.5 241.5q0 151 -69 235.5t-185 84.5t-180 -88t-64 -234q0 -154 63 -237.5t181 -83.5zM442 1343h201v-210h-201v210z" />
    <glyph glyph-name="Gcommaaccent" unicode="&#x122;" horiz-adv-x="1454" 
d="M633 -250v182h192v-194l-84 -170h-114l73 182h-67zM745 1384q228 0 384 -118t200 -312l-231 -32q-34 127 -127.5 195.5t-229.5 68.5q-184 0 -295.5 -128t-111.5 -374t109 -378t296 -132q52 0 101.5 9t99 32t86 58t59.5 91.5t23 127.5v26h-352v203h577v-721h-190l-8 166
q-61 -92 -171 -141.5t-251 -49.5q-293 0 -461 191.5t-168 517.5q0 322 178 511t483 189z" />
    <glyph glyph-name="gcommaaccent" unicode="&#x123;" horiz-adv-x="1132" 
d="M635 1276v-182h-193v194l84 170h115l-74 -182h68zM780 66v90q-103 -140 -291 -140q-190 0 -310 137.5t-120 368.5q0 226 126 364t321 138q180 0 276 -129l4 109h222v-893q0 -136 -28 -220.5t-85 -138.5q-117 -114 -356 -114q-179 0 -296.5 77t-142.5 238l226 8
q15 -73 67 -108t152 -35q117 0 176 53q59 56 59 195zM537 199q117 0 185.5 81.5t68.5 241.5q0 151 -69 235.5t-185 84.5t-180 -88t-64 -234q0 -154 63 -237.5t181 -83.5z" />
    <glyph glyph-name="Hcircumflex" unicode="&#x124;" horiz-adv-x="1421" 
d="M1040 1360h242v-1360h-242v598h-659v-598h-242v1360h242v-561h659v561zM805 1645l256 -215h-232l-127 98l-131 -98h-229l262 215h201z" />
    <glyph glyph-name="hcircumflex" unicode="&#x125;" horiz-adv-x="1120" 
d="M741 1360l222 -262h-183l-110 137l-115 -137h-180l227 262h139zM784 0v563q0 87 -11.5 140t-43.5 85q-48 48 -137 48q-124 0 -181 -84.5t-57 -231.5v-520h-227v1360h227v-481q43 68 123.5 106.5t186.5 38.5q195 0 282 -125q66 -97 66 -278v-621h-228z" />
    <glyph glyph-name="Hbar" unicode="&#x126;" horiz-adv-x="1421" 
d="M1040 1360h242v-1360h-242v598h-659v-598h-242v1360h242v-189h659v189zM381 799h659v170h-659v-170z" />
    <glyph glyph-name="hbar" unicode="&#x127;" horiz-adv-x="1120" 
d="M784 0v563q0 87 -11.5 140t-43.5 85q-48 48 -137 48q-124 0 -181 -84.5t-57 -231.5v-520h-227v1077h-160v150h160v133h227v-133h238v-150h-238v-198q43 68 123.5 106.5t186.5 38.5q195 0 282 -125q66 -97 66 -278v-621h-228z" />
    <glyph glyph-name="Itilde" unicode="&#x128;" horiz-adv-x="520" 
d="M381 1360v-1360h-242v1360h242zM377 1573q78 0 94 80h160q-11 -67 -38.5 -114.5t-64 -71.5t-71 -34t-70.5 -10q-50 0 -95 20.5t-81.5 41t-67.5 20.5q-77 0 -90 -80h-162q11 66 38 113t62.5 71.5t71 35t72.5 10.5q51 0 94 -20.5t79 -41t69 -20.5z" />
    <glyph glyph-name="itilde" unicode="&#x129;" horiz-adv-x="479" 
d="M346 1272q73 0 86 80h141q-10 -76 -36.5 -128t-61 -75.5t-63 -32t-56.5 -8.5q-43 0 -80.5 20.5t-68 41t-57.5 20.5q-69 0 -84 -82h-140q10 76 36.5 128.5t61 75.5t62.5 31.5t57 8.5q33 0 63 -12.5t48.5 -27.5t43 -27.5t48.5 -12.5zM127 1004h227v-1004h-227v1004z" />
    <glyph glyph-name="Imacron" unicode="&#x12a;" horiz-adv-x="520" 
d="M494 1454h-469v166h469v-166zM381 1360v-1360h-242v1360h242z" />
    <glyph glyph-name="imacron" unicode="&#x12b;" horiz-adv-x="479" 
d="M477 1147h-473v166h473v-166zM127 1004h227v-1004h-227v1004z" />
    <glyph glyph-name="Ibreve" unicode="&#x12c;" horiz-adv-x="520" 
d="M256 1421q-120 0 -188.5 57.5t-79.5 166.5h170q12 -97 100 -97q89 0 104 97h170q-11 -109 -81 -166.5t-195 -57.5zM381 1360v-1360h-242v1360h242z" />
    <glyph glyph-name="ibreve" unicode="&#x12d;" horiz-adv-x="479" 
d="M522 1360q-11 -125 -82 -201t-202 -76q-128 0 -198.5 76.5t-80.5 200.5h166q2 -70 30 -110t85 -40q111 0 118 150h164zM127 1004h227v-1004h-227v1004z" />
    <glyph glyph-name="Iogonek" unicode="&#x12e;" horiz-adv-x="520" 
d="M139 0v1360h242v-1360q-172 -84 -172 -150q0 -37 27.5 -54t70.5 -17q42 0 103 18v-139q-72 -20 -146 -20q-106 0 -181 44.5t-75 131.5q0 119 131 186z" />
    <glyph glyph-name="iogonek" unicode="&#x12f;" horiz-adv-x="479" 
d="M127 1360h227v-230h-227v230zM127 0v1004h227v-1004q-81 -40 -123.5 -75t-42.5 -75q0 -37 28 -54t71 -17q41 0 102 18v-139q-72 -20 -145 -20q-106 0 -181 44.5t-75 131.5q0 115 139 186z" />
    <glyph glyph-name="Idotaccent" unicode="&#x130;" horiz-adv-x="520" 
d="M139 1640h242v-204h-242v204zM381 1360v-1360h-242v1360h242z" />
    <glyph glyph-name="dotlessi" unicode="&#x131;" horiz-adv-x="479" 
d="M127 1004h227v-1004h-227v1004z" />
    <glyph glyph-name="IJ" unicode="&#x132;" horiz-adv-x="1140" 
d="M381 1360v-1360h-242v1360h242zM563 0v207h31q109 0 137.5 24.5t28.5 122.5v1006h239v-1018q0 -107 -16 -172.5t-57.5 -104t-102 -52t-159.5 -13.5h-101z" />
    <glyph glyph-name="ij" unicode="&#x133;" horiz-adv-x="960" 
d="M127 1004h227v-1004h-227v1004zM127 1360h227v-230h-227v230zM606 -35v1039h228v-1039q0 -132 -26.5 -199t-88 -93.5t-182.5 -26.5h-76v186h41q69 0 86.5 24.5t17.5 108.5zM606 1360h228v-230h-228v230z" />
    <glyph glyph-name="Jcircumflex" unicode="&#x134;" horiz-adv-x="620" 
d="M463 1645l215 -215h-223l-95 98l-98 -98h-221l221 215h201zM45 0v207h31q109 0 137.5 24.5t28.5 122.5v1006h239v-1018q0 -107 -16.5 -172.5t-58 -104t-102 -52t-159.5 -13.5h-100z" />
    <glyph glyph-name="jcircumflex" unicode="&#x135;" horiz-adv-x="509" 
d="M156 -35v1039h227v-1039q0 -97 -16.5 -158.5t-55.5 -97.5t-94 -49.5t-143 -13.5h-92v186h47q81 0 104 25t23 108zM338 1360l246 -262h-207l-109 125l-114 -125h-207l254 262h137z" />
    <glyph glyph-name="Kcommaaccent" unicode="&#x136;" horiz-adv-x="1284" 
d="M381 1360v-639l586 639h288l-510 -547l558 -813h-287l-432 639l-203 -217v-422h-242v1360h242zM563 -250v182h193v-194l-84 -170h-115l74 182h-68z" />
    <glyph glyph-name="kcommaaccent" unicode="&#x137;" horiz-adv-x="1017" 
d="M127 1360h227v-752l379 396h271l-361 -375l387 -629h-262l-283 465l-131 -137v-328h-227v1360zM426 -250v182h192v-194l-83 -170h-115l74 182h-68z" />
    <glyph glyph-name="kgreenlandic" unicode="&#x138;" horiz-adv-x="995" 
d="M127 1004h227v-394l361 394h264l-387 -414l420 -590h-271l-303 428l-84 -92v-336h-227v1004z" />
    <glyph glyph-name="Lacute" unicode="&#x139;" horiz-adv-x="1075" 
d="M381 1360v-1157h694v-203h-936v1360h242zM639 1645l-295 -215h-199l201 215h293z" />
    <glyph glyph-name="lacute" unicode="&#x13a;" horiz-adv-x="479" 
d="M354 1360v-1360h-227v1360h227zM627 1645l-295 -215h-199l201 215h293z" />
    <glyph glyph-name="Lcommaaccent" unicode="&#x13b;" horiz-adv-x="1075" 
d="M504 -250v182h192v-194l-84 -170h-114l73 182h-67zM381 1360v-1157h694v-203h-936v1360h242z" />
    <glyph glyph-name="lcommaaccent" unicode="&#x13c;" horiz-adv-x="479" 
d="M143 -250v182h193v-194l-84 -170h-115l74 182h-68zM354 1360v-1360h-227v1360h227z" />
    <glyph glyph-name="Lcaron" unicode="&#x13d;" horiz-adv-x="1075" 
d="M825 1360l-133 -324h-147l57 324h223zM381 1360v-1157h694v-203h-936v1360h242z" />
    <glyph glyph-name="lcaron" unicode="&#x13e;" horiz-adv-x="618" 
d="M692 1360l-133 -324h-147l57 324h223zM354 1360v-1360h-227v1360h227z" />
    <glyph glyph-name="Ldot" unicode="&#x13f;" horiz-adv-x="1112" 
d="M139 1640h242v-204h-242v204zM381 1360v-1157h694v-203h-936v1360h242z" />
    <glyph glyph-name="ldot" unicode="&#x140;" horiz-adv-x="479" 
d="M127 1430v210h227v-210h-227zM354 1360v-1360h-227v1360h227z" />
    <glyph glyph-name="Lslash" unicode="&#x141;" horiz-adv-x="1116" 
d="M0 367v213l180 116v664h242v-506l332 217v-213l-332 -217v-438h694v-203h-936v483z" />
    <glyph glyph-name="lslash" unicode="&#x142;" horiz-adv-x="479" 
d="M-12 487v187l139 84v602h227v-463l138 84v-186l-138 -84v-711h-227v571z" />
    <glyph glyph-name="Nacute" unicode="&#x143;" horiz-adv-x="1421" 
d="M1282 0h-332l-569 1081v-1081h-242v1360h332l569 -1081v1081h242v-1360zM1063 1645l-295 -215h-199l201 215h293z" />
    <glyph glyph-name="nacute" unicode="&#x144;" horiz-adv-x="1120" 
d="M907 1360l-270 -242h-174l176 242h268zM354 1004v-125q43 68 123.5 106.5t186.5 38.5q195 0 282 -125q66 -97 66 -278v-621h-228v563q0 87 -11.5 140t-43.5 85q-48 48 -137 48q-124 0 -181 -84.5t-57 -231.5v-520h-227v1004h227z" />
    <glyph glyph-name="Ncommaaccent" unicode="&#x145;" horiz-adv-x="1421" 
d="M635 -250v182h192v-194l-84 -170h-114l73 182h-67zM1282 0h-332l-569 1081v-1081h-242v1360h332l569 -1081v1081h242v-1360z" />
    <glyph glyph-name="ncommaaccent" unicode="&#x146;" horiz-adv-x="1120" 
d="M473 -250v182h193v-194l-84 -170h-115l74 182h-68zM354 1004v-125q43 68 123.5 106.5t186.5 38.5q195 0 282 -125q66 -97 66 -278v-621h-228v563q0 87 -11.5 140t-43.5 85q-48 48 -137 48q-124 0 -181 -84.5t-57 -231.5v-520h-227v1004h227z" />
    <glyph glyph-name="Ncaron" unicode="&#x147;" horiz-adv-x="1421" 
d="M635 1430l-256 215h231l127 -99l131 99h230l-262 -215h-201zM1282 0h-332l-569 1081v-1081h-242v1360h332l569 -1081v1081h242v-1360z" />
    <glyph glyph-name="ncaron" unicode="&#x148;" horiz-adv-x="1120" 
d="M494 1118l-267 242h209l150 -113l153 113h207l-272 -242h-180zM354 1004v-125q43 68 123.5 106.5t186.5 38.5q195 0 282 -125q66 -97 66 -278v-621h-228v563q0 87 -11.5 140t-43.5 85q-48 48 -137 48q-124 0 -181 -84.5t-57 -231.5v-520h-227v1004h227z" />
    <glyph glyph-name="napostrophe" unicode="&#x149;" horiz-adv-x="1120" 
d="M158 1247v183h192v-195l-84 -170h-114l73 182h-67zM354 1004v-125q43 68 123.5 106.5t186.5 38.5q195 0 282 -125q66 -97 66 -278v-621h-228v563q0 87 -11.5 140t-43.5 85q-48 48 -137 48q-124 0 -181 -84.5t-57 -231.5v-520h-227v1004h227z" />
    <glyph glyph-name="Eng" unicode="&#x14a;" horiz-adv-x="1421" 
d="M1040 2l-659 1085v-1087h-242v1360h334l567 -952v952h242v-1376q0 -103 -16.5 -167t-57.5 -103t-102.5 -53.5t-159.5 -14.5h-102v207h49q91 0 119 23.5t28 103.5v22z" />
    <glyph glyph-name="eng" unicode="&#x14b;" horiz-adv-x="1120" 
d="M784 -35v613q0 128 -44.5 193t-151.5 65q-234 0 -234 -316v-520h-227v1004h227v-130q43 70 123.5 110t184.5 40q171 0 260.5 -102t89.5 -295v-662q0 -97 -16.5 -159t-56 -97.5t-95 -49t-142.5 -13.5h-92v186h45q82 0 105.5 25t23.5 108z" />
    <glyph glyph-name="Omacron" unicode="&#x14c;" horiz-adv-x="1486" 
d="M1038 1454h-585v166h585v-166zM1153 684q0 244 -114 373t-296 129q-180 0 -294.5 -129t-114.5 -373t114.5 -377t294.5 -133q181 0 295.5 132.5t114.5 377.5zM1403 684q0 -326 -180 -517.5t-480 -191.5q-303 0 -481 193t-178 516q0 319 179.5 509.5t479.5 190.5
q302 0 481 -188t179 -512z" />
    <glyph glyph-name="omacron" unicode="&#x14d;" horiz-adv-x="1101" 
d="M840 1155h-586v166h586v-166zM293 500q0 -166 70 -254t188 -88q119 0 188.5 88t69.5 254t-69.5 254t-188.5 88q-118 0 -188 -88t-70 -254zM59 500q0 131 40 233t109.5 164.5t156.5 94.5t186 32t186 -32t156 -94.5t109 -164.5t40 -233q0 -105 -26.5 -192.5t-72 -148
t-108 -103t-134 -62t-150.5 -19.5t-150.5 19.5t-134 62t-108.5 103t-72.5 148t-26.5 192.5z" />
    <glyph glyph-name="Obreve" unicode="&#x14e;" horiz-adv-x="1486" 
d="M879 1645h170q-11 -109 -91 -166.5t-225 -57.5q-142 0 -221 57.5t-90 166.5h170q12 -97 143 -97q132 0 144 97zM1153 684q0 244 -114 373t-296 129q-180 0 -294.5 -129t-114.5 -373t114.5 -377t294.5 -133q181 0 295.5 132.5t114.5 377.5zM1403 684q0 -326 -180 -517.5
t-480 -191.5q-303 0 -481 193t-178 516q0 319 179.5 509.5t479.5 190.5q302 0 481 -188t179 -512z" />
    <glyph glyph-name="obreve" unicode="&#x14f;" horiz-adv-x="1101" 
d="M293 500q0 -166 70 -254t188 -88q119 0 188.5 88t69.5 254t-69.5 254t-188.5 88q-118 0 -188 -88t-70 -254zM59 500q0 131 40 233t109.5 164.5t156.5 94.5t186 32t186 -32t156 -94.5t109 -164.5t40 -233q0 -105 -26.5 -192.5t-72 -148t-108 -103t-134 -62t-150.5 -19.5
t-150.5 19.5t-134 62t-108.5 103t-72.5 148t-26.5 192.5zM866 1360q-12 -112 -88.5 -182t-228.5 -70q-149 0 -225 70.5t-86 181.5h165q6 -57 42.5 -91t105.5 -34q70 0 107.5 34.5t43.5 90.5h164z" />
    <glyph glyph-name="Ohungarumlaut" unicode="&#x150;" horiz-adv-x="1486" 
d="M1153 684q0 244 -114 373t-296 129q-180 0 -294.5 -129t-114.5 -373t114.5 -377t294.5 -133q181 0 295.5 132.5t114.5 377.5zM1403 684q0 -326 -180 -517.5t-480 -191.5q-303 0 -481 193t-178 516q0 319 179.5 509.5t479.5 190.5q302 0 481 -188t179 -512zM911 1645
l-295 -215h-198l200 215h293zM1253 1645l-295 -215h-196l201 215h290z" />
    <glyph glyph-name="ohungarumlaut" unicode="&#x151;" horiz-adv-x="1101" 
d="M678 1360l-268 -242h-177l177 242h268zM1020 1360l-270 -242h-175l177 242h268zM293 500q0 -166 70 -254t188 -88q119 0 188.5 88t69.5 254t-69.5 254t-188.5 88q-118 0 -188 -88t-70 -254zM59 500q0 131 40 233t109.5 164.5t156.5 94.5t186 32t186 -32t156 -94.5
t109 -164.5t40 -233q0 -105 -26.5 -192.5t-72 -148t-108 -103t-134 -62t-150.5 -19.5t-150.5 19.5t-134 62t-108.5 103t-72.5 148t-26.5 192.5z" />
    <glyph glyph-name="OE" unicode="&#x152;" horiz-adv-x="2156" 
d="M741 1384q232 0 387 -133v109h975v-203h-733v-354h692v-201h-692v-399h733v-203h-975v111q-158 -136 -389 -136q-301 0 -478 193.5t-177 515.5q0 319 179 509.5t478 190.5zM1149 684q0 244 -113.5 373t-294.5 129q-180 0 -293.5 -129t-113.5 -373q0 -245 114 -377.5
t293 -132.5q181 0 294.5 132.5t113.5 377.5z" />
    <glyph glyph-name="oe" unicode="&#x153;" horiz-adv-x="1830" 
d="M59 500q0 130 41 232.5t111 164.5t156.5 94.5t183.5 32.5q113 0 209.5 -45.5t159.5 -134.5q131 180 374 180q234 0 365.5 -166.5t116.5 -425.5h-752q1 -127 77 -200.5t195 -73.5q186 0 244 157l219 -28q-45 -141 -168.5 -226.5t-292.5 -85.5q-251 0 -380 175
q-63 -87 -158.5 -131t-208.5 -44q-97 0 -183.5 32t-156.5 94.5t-111 165.5t-41 233zM293 500q0 -166 69.5 -254t188.5 -88t188.5 88t69.5 254t-69.5 254t-188.5 88t-188.5 -88t-69.5 -254zM1292 850q-108 0 -185 -63t-85 -187h522q-6 114 -76.5 182t-175.5 68z" />
    <glyph glyph-name="Racute" unicode="&#x154;" horiz-adv-x="1271" 
d="M958 0l-288 549q-25 -2 -76 -2h-209v-547h-246v1360h420q317 0 466 -91t149 -313q0 -269 -259 -362l316 -594h-273zM592 1157h-207v-412h215q166 0 246 45.5t80 163.5q0 53 -17.5 90.5t-45 59t-73 34t-90 16t-108.5 3.5zM924 1645l-295 -215h-199l201 215h293z" />
    <glyph glyph-name="racute" unicode="&#x155;" horiz-adv-x="702" 
d="M696 1360l-270 -242h-174l176 242h268zM682 1001v-223q-55 6 -104 6q-112 0 -168 -60.5t-56 -207.5v-516h-227v1004h223v-166q41 81 112.5 123.5t164.5 44.5q15 0 55 -5z" />
    <glyph glyph-name="Rcommaaccent" unicode="&#x156;" horiz-adv-x="1271" 
d="M958 0l-288 549q-25 -2 -76 -2h-209v-547h-246v1360h420q317 0 466 -91t149 -313q0 -269 -259 -362l316 -594h-273zM592 1157h-207v-412h215q166 0 246 45.5t80 163.5q0 53 -17.5 90.5t-45 59t-73 34t-90 16t-108.5 3.5zM545 -250v182h192v-194l-84 -170h-114l73 182h-67
z" />
    <glyph glyph-name="rcommaaccent" unicode="&#x157;" horiz-adv-x="702" 
d="M141 -250v182h193v-194l-84 -170h-115l74 182h-68zM682 1001v-223q-55 6 -104 6q-112 0 -168 -60.5t-56 -207.5v-516h-227v1004h223v-166q41 81 112.5 123.5t164.5 44.5q15 0 55 -5z" />
    <glyph glyph-name="Rcaron" unicode="&#x158;" horiz-adv-x="1271" 
d="M958 0l-288 549q-25 -2 -76 -2h-209v-547h-246v1360h420q317 0 466 -91t149 -313q0 -269 -259 -362l316 -594h-273zM592 1157h-207v-412h215q166 0 246 45.5t80 163.5q0 53 -17.5 90.5t-45 59t-73 34t-90 16t-108.5 3.5zM502 1430l-256 215h231l127 -99l131 99h230
l-263 -215h-200z" />
    <glyph glyph-name="rcaron" unicode="&#x159;" horiz-adv-x="702" 
d="M303 1118l-266 242h209l149 -113l154 113h207l-273 -242h-180zM682 1001v-223q-55 6 -104 6q-112 0 -168 -60.5t-56 -207.5v-516h-227v1004h223v-166q41 81 112.5 123.5t164.5 44.5q15 0 55 -5z" />
    <glyph glyph-name="Sacute" unicode="&#x15a;" horiz-adv-x="1232" 
d="M94 1001q0 97 46.5 173t122.5 120.5t164.5 67t180.5 22.5q137 0 249.5 -43t192 -133t105.5 -219l-233 -35q-19 82 -72 136t-116.5 75t-137.5 21q-43 0 -85.5 -9t-82.5 -28.5t-65 -55.5t-25 -83q0 -136 201 -179l170 -36q62 -13 111 -27t106 -36t98.5 -52.5t77 -71t54 -96
t18.5 -123.5q0 -99 -45 -179.5t-121 -131t-172.5 -77t-202.5 -26.5q-246 0 -401.5 123t-186.5 328l238 37q29 -143 121 -216t235 -73q127 0 209 49.5t82 149.5q0 46 -20.5 81t-61 58.5t-86 39t-111.5 30.5l-168 36q-389 85 -389 383zM971 1645l-295 -215h-199l201 215h293z
" />
    <glyph glyph-name="sacute" unicode="&#x15b;" horiz-adv-x="1001" 
d="M809 1360l-270 -242h-174l176 242h268zM936 723l-213 -29q-17 74 -81 116t-159 42q-80 0 -134 -27.5t-54 -76.5q0 -86 156 -119l118 -25q71 -16 119.5 -30t101.5 -38t84.5 -53.5t52.5 -75t21 -102.5q0 -103 -60.5 -179t-158.5 -113.5t-219 -37.5q-192 0 -315.5 95
t-139.5 237l221 33q14 -86 76 -139.5t166 -53.5q95 0 151 33t56 94q0 30 -14.5 52t-44 37.5t-59.5 25t-75 19.5l-133 28q-56 12 -101 27t-87 39.5t-70 55.5t-44.5 75.5t-16.5 99.5q0 131 121.5 211t298.5 80q107 0 198 -33.5t155 -102.5t83 -165z" />
    <glyph glyph-name="Scircumflex" unicode="&#x15c;" horiz-adv-x="1232" 
d="M94 1001q0 97 46.5 173t122.5 120.5t164.5 67t180.5 22.5q137 0 249.5 -43t192 -133t105.5 -219l-233 -35q-19 82 -72 136t-116.5 75t-137.5 21q-43 0 -85.5 -9t-82.5 -28.5t-65 -55.5t-25 -83q0 -136 201 -179l170 -36q62 -13 111 -27t106 -36t98.5 -52.5t77 -71t54 -96
t18.5 -123.5q0 -99 -45 -179.5t-121 -131t-172.5 -77t-202.5 -26.5q-246 0 -401.5 123t-186.5 328l238 37q29 -143 121 -216t235 -73q127 0 209 49.5t82 149.5q0 46 -20.5 81t-61 58.5t-86 39t-111.5 30.5l-168 36q-389 85 -389 383zM735 1645l256 -215h-231l-127 98
l-131 -98h-230l263 215h200z" />
    <glyph glyph-name="scircumflex" unicode="&#x15d;" horiz-adv-x="1001" 
d="M600 1360l266 -242h-209l-149 113l-154 -113h-207l273 242h180zM936 723l-213 -29q-17 74 -81 116t-159 42q-80 0 -134 -27.5t-54 -76.5q0 -86 156 -119l118 -25q71 -16 119.5 -30t101.5 -38t84.5 -53.5t52.5 -75t21 -102.5q0 -103 -60.5 -179t-158.5 -113.5t-219 -37.5
q-192 0 -315.5 95t-139.5 237l221 33q14 -86 76 -139.5t166 -53.5q95 0 151 33t56 94q0 30 -14.5 52t-44 37.5t-59.5 25t-75 19.5l-133 28q-56 12 -101 27t-87 39.5t-70 55.5t-44.5 75.5t-16.5 99.5q0 131 121.5 211t298.5 80q107 0 198 -33.5t155 -102.5t83 -165z" />
    <glyph glyph-name="Scedilla" unicode="&#x15e;" horiz-adv-x="1232" 
d="M406 -336l32 82q56 -27 111 -27q46 0 77 14t31 44q0 27 -21 41t-56 14q-47 0 -74 -16l-57 32l81 134q-203 24 -330 142.5t-155 301.5l238 37q29 -143 121 -216t235 -73q127 0 209 49.5t82 149.5q0 46 -20.5 81t-61 58.5t-86 39t-111.5 30.5l-168 36q-389 85 -389 383
q0 97 46.5 173t122.5 120.5t164.5 67t180.5 22.5q137 0 249.5 -43t192 -133t105.5 -219l-233 -35q-19 82 -72 136t-116.5 75t-137.5 21q-43 0 -85.5 -9t-82.5 -28.5t-65 -55.5t-25 -83q0 -136 201 -179l170 -36q62 -13 111 -27t106 -36t98.5 -52.5t77 -71t54 -96
t18.5 -123.5q0 -99 -45 -179.5t-121 -131t-172.5 -77t-202.5 -26.5h-6l-41 -67q34 6 67 6q65 -2 106.5 -37.5t41.5 -91.5q0 -71 -65 -113.5t-150 -42.5q-104 0 -180 35z" />
    <glyph glyph-name="scedilla" unicode="&#x15f;" horiz-adv-x="1001" 
d="M283 -336l32 82q56 -27 111 -27q46 0 77.5 14t31.5 44q0 27 -21.5 41t-56.5 14q-47 0 -74 -16l-57 32l84 136q-152 23 -247.5 112.5t-107.5 210.5l221 33q14 -86 76 -139.5t166 -53.5q95 0 151 33t56 94q0 30 -14.5 52t-44 37.5t-59.5 25t-75 19.5l-133 28
q-56 12 -101 27t-87 39.5t-70 55.5t-44.5 75.5t-16.5 99.5q0 131 121.5 211t298.5 80q107 0 198 -33.5t155 -102.5t83 -165l-213 -29q-17 74 -81 116t-159 42q-80 0 -134 -27.5t-54 -76.5q0 -86 156 -119l118 -25q71 -16 119.5 -30t101.5 -38t84.5 -53.5t52.5 -75t21 -102.5
q0 -103 -60.5 -179t-158.5 -113.5t-219 -37.5h-6l-41 -67q35 6 67 6q65 -2 106.5 -37.5t41.5 -91.5q0 -71 -65 -113.5t-150 -42.5q-104 0 -180 35z" />
    <glyph glyph-name="Scaron" unicode="&#x160;" horiz-adv-x="1232" 
d="M512 1430l-256 215h231l127 -99l131 99h230l-262 -215h-201zM94 1001q0 97 46.5 173t122.5 120.5t164.5 67t180.5 22.5q137 0 249.5 -43t192 -133t105.5 -219l-233 -35q-19 82 -72 136t-116.5 75t-137.5 21q-43 0 -85.5 -9t-82.5 -28.5t-65 -55.5t-25 -83
q0 -136 201 -179l170 -36q62 -13 111 -27t106 -36t98.5 -52.5t77 -71t54 -96t18.5 -123.5q0 -99 -45 -179.5t-121 -131t-172.5 -77t-202.5 -26.5q-246 0 -401.5 123t-186.5 328l238 37q29 -143 121 -216t235 -73q127 0 209 49.5t82 149.5q0 46 -20.5 81t-61 58.5t-86 39
t-111.5 30.5l-168 36q-389 85 -389 383z" />
    <glyph glyph-name="scaron" unicode="&#x161;" horiz-adv-x="1001" 
d="M408 1118l-267 242h209l150 -113l153 113h207l-272 -242h-180zM936 723l-213 -29q-17 74 -81 116t-159 42q-80 0 -134 -27.5t-54 -76.5q0 -86 156 -119l118 -25q71 -16 119.5 -30t101.5 -38t84.5 -53.5t52.5 -75t21 -102.5q0 -103 -60.5 -179t-158.5 -113.5t-219 -37.5
q-192 0 -315.5 95t-139.5 237l221 33q14 -86 76 -139.5t166 -53.5q95 0 151 33t56 94q0 30 -14.5 52t-44 37.5t-59.5 25t-75 19.5l-133 28q-56 12 -101 27t-87 39.5t-70 55.5t-44.5 75.5t-16.5 99.5q0 131 121.5 211t298.5 80q107 0 198 -33.5t155 -102.5t83 -165z" />
    <glyph glyph-name="Tcommaaccent" unicode="&#x162;" horiz-adv-x="1122" 
d="M440 0v1157h-434v203h1110v-203h-434v-1157h-53l-58 -92q34 6 68 6q65 -2 106 -37t41 -92q0 -71 -65 -113.5t-150 -42.5q-104 0 -180 35l33 82q56 -27 111 -27q46 0 77 14t31 44q0 27 -21.5 41t-56.5 14q-46 0 -73 -16l-58 32l94 152h-88z" />
    <glyph glyph-name="tcommaaccent" unicode="&#x163;" horiz-adv-x="647" 
d="M160 1004v290h227v-290h205v-175h-205v-520q0 -78 24.5 -103.5t96.5 -25.5h82v-180h-156l-57 -92q35 6 67 6q65 -2 106.5 -37.5t41.5 -91.5q0 -71 -65 -113.5t-150 -42.5q-104 0 -180 35l32 82q56 -27 111 -27q46 0 77.5 14t31.5 44q0 27 -21.5 41t-56.5 14
q-47 0 -74 -16l-57 32l96 156q-104 12 -140 69t-36 195v561h-152v175h152z" />
    <glyph glyph-name="Tcaron" unicode="&#x164;" horiz-adv-x="1122" 
d="M453 1430l-256 215h231l127 -99l131 99h229l-262 -215h-200zM440 0v1157h-434v203h1110v-203h-434v-1157h-242z" />
    <glyph glyph-name="tcaron" unicode="&#x165;" horiz-adv-x="747" 
d="M801 1360l-133 -324h-148l58 324h223zM160 1004v290h227v-290h205v-175h-205v-520q0 -78 24.5 -103.5t96.5 -25.5h82v-180h-166q-84 0 -134 12t-80 44.5t-40 81t-10 130.5v561h-152v175h152z" />
    <glyph glyph-name="Tbar" unicode="&#x166;" horiz-adv-x="1122" 
d="M440 0v598h-311v201h311v358h-434v203h1110v-203h-434v-358h309v-201h-309v-598h-242z" />
    <glyph glyph-name="tbar" unicode="&#x167;" horiz-adv-x="647" 
d="M160 1004v290h227v-290h205v-175h-205v-120h205v-174h-205v-226q0 -78 24.5 -103.5t96.5 -25.5h82v-180h-166q-84 0 -134 12t-80 44.5t-40 81t-10 130.5v267h-152v174h152v120h-152v175h152z" />
    <glyph glyph-name="Utilde" unicode="&#x168;" horiz-adv-x="1366" 
d="M807 1573q78 0 94 80h160q-11 -67 -38.5 -114.5t-64 -71.5t-71 -34t-70.5 -10q-50 0 -95 20.5t-81.5 41t-67.5 20.5q-77 0 -90 -80h-161q11 66 37.5 113t62.5 71.5t71 35t72 10.5q51 0 94 -20.5t79 -41t69 -20.5zM119 1360h241v-795q0 -202 70 -296.5t254 -94.5
q182 0 252 98t70 301v787h241v-778q0 -325 -131 -466t-432 -141q-202 0 -323.5 57t-181.5 188.5t-60 354.5v785z" />
    <glyph glyph-name="utilde" unicode="&#x169;" horiz-adv-x="1112" 
d="M760 0v125q-98 -150 -303 -150q-177 0 -269 115q-73 94 -73 289v625h227v-574q0 -139 33 -192q47 -74 157 -74q119 0 173.5 86t54.5 233v521h227v-1004h-227zM670 1274q79 0 94 84h162q-11 -71 -38.5 -121.5t-64 -75t-71.5 -35t-72 -10.5q-40 0 -77.5 13.5t-61 29.5
t-52.5 29.5t-55 13.5q-77 0 -92 -84h-162q11 69 38 119t63.5 75.5t72 36.5t72.5 11q51 0 94.5 -21.5t79.5 -43t70 -21.5z" />
    <glyph glyph-name="Umacron" unicode="&#x16a;" horiz-adv-x="1366" 
d="M969 1454h-586v166h586v-166zM119 1360h241v-795q0 -202 70 -296.5t254 -94.5q182 0 252 98t70 301v787h241v-778q0 -325 -131 -466t-432 -141q-202 0 -323.5 57t-181.5 188.5t-60 354.5v785z" />
    <glyph glyph-name="umacron" unicode="&#x16b;" horiz-adv-x="1112" 
d="M760 0v125q-98 -150 -303 -150q-177 0 -269 115q-73 94 -73 289v625h227v-574q0 -139 33 -192q47 -74 157 -74q119 0 173.5 86t54.5 233v521h227v-1004h-227zM844 1155h-586v166h586v-166z" />
    <glyph glyph-name="Ubreve" unicode="&#x16c;" horiz-adv-x="1366" 
d="M815 1645h170q-11 -109 -90.5 -166.5t-224.5 -57.5q-142 0 -221.5 57.5t-90.5 166.5h170q12 -97 144 -97q131 0 143 97zM119 1360h241v-795q0 -202 70 -296.5t254 -94.5q182 0 252 98t70 301v787h241v-778q0 -325 -131 -466t-432 -141q-202 0 -323.5 57t-181.5 188.5
t-60 354.5v785z" />
    <glyph glyph-name="ubreve" unicode="&#x16d;" horiz-adv-x="1112" 
d="M760 0v125q-98 -150 -303 -150q-177 0 -269 115q-73 94 -73 289v625h227v-574q0 -139 33 -192q47 -74 157 -74q119 0 173.5 86t54.5 233v521h227v-1004h-227zM870 1360q-12 -112 -88.5 -182t-228.5 -70q-149 0 -225 70.5t-86 181.5h166q7 -57 42.5 -91t104.5 -34
q70 0 108 34.5t44 90.5h163z" />
    <glyph glyph-name="Uring" unicode="&#x16e;" horiz-adv-x="1366" 
d="M119 1360h241v-795q0 -202 70 -296.5t254 -94.5q182 0 252 98t70 301v787h241v-778q0 -325 -131 -466t-432 -141q-202 0 -323.5 57t-181.5 188.5t-60 354.5v785zM678 1735q72 0 122 -46t50 -116t-49.5 -116t-122.5 -46t-122.5 46t-49.5 116t50 116t122 46zM678 1655
q-33 0 -57.5 -23.5t-24.5 -58.5q0 -34 24.5 -57t57.5 -23t57.5 23t24.5 57q0 35 -24.5 58.5t-57.5 23.5z" />
    <glyph glyph-name="uring" unicode="&#x16f;" horiz-adv-x="1112" 
d="M528 1442q74 0 126.5 -47.5t52.5 -118.5t-51.5 -118.5t-127.5 -47.5q-74 0 -125 47.5t-51 118.5t51.5 118.5t124.5 47.5zM528 1356q-32 0 -54.5 -23t-22.5 -57t22.5 -56t54.5 -22q33 0 56.5 22.5t23.5 55.5t-23.5 56.5t-56.5 23.5zM760 0v125q-98 -150 -303 -150
q-177 0 -269 115q-73 94 -73 289v625h227v-574q0 -139 33 -192q47 -74 157 -74q119 0 173.5 86t54.5 233v521h227v-1004h-227z" />
    <glyph glyph-name="Uhungarumlaut" unicode="&#x170;" horiz-adv-x="1366" 
d="M119 1360h241v-795q0 -202 70 -296.5t254 -94.5q182 0 252 98t70 301v787h241v-778q0 -325 -131 -466t-432 -141q-202 0 -323.5 57t-181.5 188.5t-60 354.5v785zM842 1645l-295 -215h-199l201 215h293zM1184 1645l-295 -215h-197l201 215h291z" />
    <glyph glyph-name="uhungarumlaut" unicode="&#x171;" horiz-adv-x="1112" 
d="M760 0v125q-98 -150 -303 -150q-177 0 -269 115q-73 94 -73 289v625h227v-574q0 -139 33 -192q47 -74 157 -74q119 0 173.5 86t54.5 233v521h227v-1004h-227zM659 1360l-268 -242h-176l176 242h268zM1001 1360l-270 -242h-174l176 242h268z" />
    <glyph glyph-name="Uogonek" unicode="&#x172;" horiz-adv-x="1366" 
d="M119 1360h241v-795q0 -202 70 -296.5t254 -94.5q182 0 252 98t70 301v787h241v-778q0 -292 -105 -433.5t-341 -166.5q-133 -70 -133 -132q0 -37 27.5 -54t70.5 -17q41 0 102 18v-139q-72 -20 -145 -20q-106 0 -181 44.5t-75 131.5q0 99 104 168q-239 20 -345.5 157.5
t-106.5 435.5v785z" />
    <glyph glyph-name="uogonek" unicode="&#x173;" horiz-adv-x="1112" 
d="M760 0v125q-98 -150 -303 -150q-177 0 -269 115q-73 94 -73 289v625h227v-574q0 -139 33 -192q47 -74 157 -74q119 0 173.5 86t54.5 233v521h227v-1004q-81 -40 -123.5 -75t-42.5 -75q0 -37 28 -54t71 -17q41 0 102 18v-139q-72 -20 -145 -20q-106 0 -181 44.5t-75 131.5
q0 115 139 186z" />
    <glyph glyph-name="Wcircumflex" unicode="&#x174;" horiz-adv-x="1705" 
d="M956 1645l256 -215h-231l-127 98l-131 -98h-229l262 215h200zM995 1360l236 -1049l209 1049h254l-322 -1360h-287l-231 1038l-229 -1038h-289l-324 1360h262l222 -1047l219 1047h280z" />
    <glyph glyph-name="wcircumflex" unicode="&#x175;" horiz-adv-x="1378" 
d="M782 1360l267 -242h-209l-150 113l-153 -113h-207l272 242h180zM395 297l176 707h234l178 -707l150 707h245l-272 -1004h-215l-203 737l-201 -737h-215l-272 1004h246z" />
    <glyph glyph-name="Ycircumflex" unicode="&#x176;" horiz-adv-x="1218" 
d="M-12 1360h276l342 -617l352 617h273l-508 -848v-512h-242v516zM707 1645l256 -215h-232l-127 98l-131 -98h-229l262 215h201z" />
    <glyph glyph-name="ycircumflex" unicode="&#x177;" horiz-adv-x="935" 
d="M182 -354h-102v190h86q79 0 116 25.5t70 120.5l10 24l-370 998h248l231 -715l234 715h231l-361 -1002q-26 -71 -47 -118.5t-46.5 -90.5t-53 -68.5t-64 -44.5t-80.5 -26.5t-102 -7.5zM565 1360l266 -242h-208l-150 113l-154 -113h-206l272 242h180z" />
    <glyph glyph-name="Ydieresis" unicode="&#x178;" horiz-adv-x="1218" 
d="M-12 1360h276l342 -617l352 617h273l-508 -848v-512h-242v516zM281 1640h200v-204h-200v204zM729 1640h201v-204h-201v204z" />
    <glyph glyph-name="Zacute" unicode="&#x179;" horiz-adv-x="1191" 
d="M1118 1360v-197l-770 -954h795v-209h-1090v197l772 954h-710v209h1003zM940 1645l-295 -215h-199l201 215h293z" />
    <glyph glyph-name="zacute" unicode="&#x17a;" horiz-adv-x="940" 
d="M805 1360l-270 -242h-175l177 242h268zM49 0v168l541 645h-502v191h791v-173l-541 -641h555v-190h-844z" />
    <glyph glyph-name="Zdotaccent" unicode="&#x17b;" horiz-adv-x="1191" 
d="M506 1640h233v-204h-233v204zM1118 1360v-197l-770 -954h795v-209h-1090v197l772 954h-710v209h1003z" />
    <glyph glyph-name="zdotaccent" unicode="&#x17c;" horiz-adv-x="940" 
d="M49 0v168l541 645h-502v191h791v-173l-541 -641h555v-190h-844zM387 1343h201v-210h-201v210z" />
    <glyph glyph-name="Zcaron" unicode="&#x17d;" horiz-adv-x="1191" 
d="M526 1430l-256 215h232l127 -99l131 99h229l-262 -215h-201zM1118 1360v-197l-770 -954h795v-209h-1090v197l772 954h-710v209h1003z" />
    <glyph glyph-name="zcaron" unicode="&#x17e;" horiz-adv-x="940" 
d="M403 1118l-266 242h209l150 -113l153 113h207l-272 -242h-181zM49 0v168l541 645h-502v191h791v-173l-541 -641h555v-190h-844z" />
    <glyph glyph-name="uni0186" unicode="&#x186;" horiz-adv-x="1392" 
d="M309 928l-231 39q50 184 207.5 300.5t394.5 116.5q297 0 463 -191t166 -519q0 -323 -175 -511t-475 -188q-225 0 -378.5 119.5t-202.5 315.5l231 43q35 -137 133 -208t226 -71q177 0 285 127t108 373q0 244 -107 378t-276 134q-137 0 -234 -63.5t-135 -194.5z" />
    <glyph glyph-name="uni018F" unicode="&#x18f;" horiz-adv-x="1474" 
d="M90 793h1047q-12 188 -124.5 291.5t-273.5 103.5q-133 0 -228.5 -58t-135.5 -163l-238 57q61 169 222.5 264.5t375.5 95.5q301 0 478.5 -188t177.5 -512q0 -326 -178.5 -517.5t-477.5 -191.5q-137 0 -250 42t-191.5 117t-129 177t-69 224.5t-5.5 257.5zM735 172
q170 0 280.5 108.5t123.5 313.5h-799q3 -135 57.5 -232t141.5 -143.5t196 -46.5z" />
    <glyph glyph-name="uni0190" unicode="&#x190;" horiz-adv-x="1153" 
d="M1096 203v-203h-525q-239 0 -377.5 98.5t-138.5 300.5q0 126 55.5 199t153.5 119q-66 39 -110.5 117.5t-44.5 171.5q0 82 28 145t74 102t111.5 63.5t133.5 34t148 9.5h479v-203h-501q-105 0 -166.5 -43.5t-61.5 -132.5q0 -92 60 -138t168 -46h452v-197h-461
q-270 0 -270 -199q0 -198 262 -198h531z" />
    <glyph glyph-name="uni019D" unicode="&#x19d;" horiz-adv-x="1421" 
d="M-6 -354v207h41q69 0 86.5 23.5t17.5 98.5v1385h334l567 -1075v1075h242v-1360h-336l-565 1075v-1110q0 -98 -15 -159t-53.5 -97t-95 -49.5t-147.5 -13.5h-76z" />
    <glyph glyph-name="uni019F" unicode="&#x19f;" horiz-adv-x="1486" 
d="M1399 684q0 -326 -178.5 -517.5t-477.5 -191.5q-303 0 -479 193t-176 516q0 319 178.5 509.5t476.5 190.5q301 0 478.5 -188t177.5 -512zM743 174q162 0 272.5 108.5t131.5 311.5h-807q21 -203 131 -311.5t272 -108.5zM743 1186q-158 0 -266 -99t-135 -290h801
q-25 190 -133.5 289.5t-266.5 99.5z" />
    <glyph glyph-name="Ohorn" unicode="&#x1a0;" horiz-adv-x="1486" 
d="M1403 684q0 -326 -180 -517.5t-480 -191.5q-303 0 -481 193t-178 516q0 319 179.5 509.5t479.5 190.5q204 0 379 -98q44 -25 83 -33.5t66 5.5t27 55q0 26 -10 52t-20 39l-11 13l199 41q47 -71 47 -147q0 -96 -56 -148.5t-159 -48.5q115 -176 115 -430zM1153 684
q0 244 -114 373t-296 129q-180 0 -294.5 -129t-114.5 -373t114.5 -377t294.5 -133q181 0 295.5 132.5t114.5 377.5z" />
    <glyph glyph-name="ohorn" unicode="&#x1a1;" horiz-adv-x="1101" 
d="M59 500q0 131 40 233t109.5 164.5t156.5 94.5t186 32q94 0 182 -31q20 -6 56 -21.5t65.5 -25.5t52.5 -10q42 0 64 20t22 56q0 27 -7.5 52.5t-15.5 37.5l-7 12l157 35q35 -75 35 -137q0 -89 -48.5 -140t-145.5 -55h-3q84 -132 84 -317q0 -105 -26.5 -192.5t-72 -148
t-108 -103t-134 -62t-150.5 -19.5t-150.5 19.5t-134 62t-108.5 103t-72.5 148t-26.5 192.5zM293 500q0 -166 70 -254t188 -88q119 0 188.5 88t69.5 254t-69.5 254t-188.5 88q-118 0 -188 -88t-70 -254z" />
    <glyph glyph-name="Uhorn" unicode="&#x1af;" horiz-adv-x="1366" 
d="M119 1360h241v-795q0 -202 70 -296.5t254 -94.5q182 0 252 98t70 301v787h159q55 0 81 25t26 63q0 44 -35 104l160 45q47 -72 47 -151q0 -92 -59 -145t-138 -56v-663q0 -325 -131 -466t-432 -141q-202 0 -323.5 57t-181.5 188.5t-60 354.5v785z" />
    <glyph glyph-name="uhorn" unicode="&#x1b0;" horiz-adv-x="1112" 
d="M760 0v125q-98 -150 -303 -150q-177 0 -269 115q-73 94 -73 289v625h227v-574q0 -139 33 -192q47 -74 157 -74q119 0 173.5 86t54.5 233v521h125q57 0 83.5 25t26.5 63q0 45 -34 104l155 51q51 -73 51 -157q0 -87 -52.5 -140t-127.5 -61v-889h-227z" />
    <glyph glyph-name="uni01C4" unicode="&#x1c4;" horiz-adv-x="2461" 
d="M1800 1430l-256 215h232l127 -99l131 99h229l-262 -215h-201zM2386 1360v-197l-770 -954h794v-209h-1089v197l772 954h-711v209h1004zM1016 680q0 91 -17.5 163.5t-45 122t-72 85.5t-89 56t-104.5 31.5t-110 15t-115 3.5h-82v-954h82q65 0 115 3.5t110 15t104.5 31.5
t89 56t72 85.5t45 122t17.5 163.5zM139 1360h336q139 0 251.5 -18.5t215.5 -66t172.5 -123t110.5 -195.5t41 -277t-41 -277t-110.5 -195.5t-172.5 -123t-215.5 -66t-251.5 -18.5h-336v1360z" />
    <glyph glyph-name="uni01C5" unicode="&#x1c5;" horiz-adv-x="2250" 
d="M1716 1118l-266 242h209l149 -113l154 113h207l-273 -242h-180zM1358 0v168l540 645h-501v191h790v-173l-540 -641h555v-190h-844zM1016 680q0 91 -17.5 163.5t-45 122t-72 85.5t-89 56t-104.5 31.5t-110 15t-115 3.5h-82v-954h82q65 0 115 3.5t110 15t104.5 31.5t89 56
t72 85.5t45 122t17.5 163.5zM139 1360h336q139 0 251.5 -18.5t215.5 -66t172.5 -123t110.5 -195.5t41 -277t-41 -277t-110.5 -195.5t-172.5 -123t-215.5 -66t-251.5 -18.5h-336v1360z" />
    <glyph glyph-name="uni01C6" unicode="&#x1c6;" horiz-adv-x="2064" 
d="M1534 1118l-266 242h209l149 -113l154 113h207l-273 -242h-180zM1171 0v168l541 645h-502v191h791v-173l-541 -641h555v-190h-844zM1010 1360v-1360h-217l-5 119q-101 -144 -299 -144q-191 0 -310.5 142t-119.5 385q0 237 125.5 379.5t321.5 142.5q180 0 276 -129v465
h228zM537 158q116 0 186 89.5t70 254.5q0 162 -69.5 251t-186.5 89t-180.5 -92t-63.5 -250t63.5 -250t180.5 -92z" />
    <glyph glyph-name="uni01C7" unicode="&#x1c7;" horiz-adv-x="1695" 
d="M1118 0v207h31q109 0 137.5 24.5t28.5 122.5v1006h239v-1018q0 -107 -16 -172.5t-57.5 -104t-102 -52t-159.5 -13.5h-101zM381 1360v-1157h694v-203h-936v1360h242z" />
    <glyph glyph-name="uni01C8" unicode="&#x1c8;" horiz-adv-x="1556" 
d="M1200 -35v1039h227v-1039q0 -132 -26.5 -199t-88 -93.5t-182.5 -26.5h-75v186h41q69 0 86.5 24.5t17.5 108.5zM1200 1360h227v-230h-227v230zM381 1360v-1157h694v-203h-936v1360h242z" />
    <glyph glyph-name="uni01C9" unicode="&#x1c9;" horiz-adv-x="960" 
d="M606 -35v1039h228v-1039q0 -132 -26.5 -199t-88 -93.5t-182.5 -26.5h-76v186h41q69 0 86.5 24.5t17.5 108.5zM606 1360h228v-230h-228v230zM354 1360v-1360h-227v1360h227z" />
    <glyph glyph-name="uni01CA" unicode="&#x1ca;" horiz-adv-x="2041" 
d="M1464 0v207h31q109 0 137.5 24.5t28.5 122.5v1006h240v-1018q0 -107 -16.5 -172.5t-58 -104t-102 -52t-159.5 -13.5h-101zM1282 0h-332l-569 1081v-1081h-242v1360h332l569 -1081v1081h242v-1360z" />
    <glyph glyph-name="uni01CB" unicode="&#x1cb;" horiz-adv-x="1900" 
d="M1546 -35v1039h228v-1039q0 -132 -26.5 -199t-88 -93.5t-182.5 -26.5h-76v186h41q69 0 86.5 24.5t17.5 108.5zM1546 1360h228v-230h-228v230zM1282 0h-332l-569 1081v-1081h-242v1360h332l569 -1081v1081h242v-1360z" />
    <glyph glyph-name="uni01CC" unicode="&#x1cc;" horiz-adv-x="1601" 
d="M1247 -35v1039h228v-1039q0 -132 -26.5 -199t-88 -93.5t-182.5 -26.5h-76v186h41q69 0 86.5 24.5t17.5 108.5zM1247 1360h228v-230h-228v230zM354 1004v-125q43 68 123.5 106.5t186.5 38.5q195 0 282 -125q66 -97 66 -278v-621h-228v563q0 87 -11.5 140t-43.5 85
q-48 48 -137 48q-124 0 -181 -84.5t-57 -231.5v-520h-227v1004h227z" />
    <glyph glyph-name="uni01F1" unicode="&#x1f1;" horiz-adv-x="2461" 
d="M2386 1360v-197l-770 -954h794v-209h-1089v197l772 954h-711v209h1004zM1016 680q0 91 -17.5 163.5t-45 122t-72 85.5t-89 56t-104.5 31.5t-110 15t-115 3.5h-82v-954h82q65 0 115 3.5t110 15t104.5 31.5t89 56t72 85.5t45 122t17.5 163.5zM139 1360h336
q139 0 251.5 -18.5t215.5 -66t172.5 -123t110.5 -195.5t41 -277t-41 -277t-110.5 -195.5t-172.5 -123t-215.5 -66t-251.5 -18.5h-336v1360z" />
    <glyph glyph-name="uni01F2" unicode="&#x1f2;" horiz-adv-x="2258" 
d="M1366 0v168l541 645h-502v191h790v-173l-540 -641h555v-190h-844zM1016 680q0 91 -17.5 163.5t-45 122t-72 85.5t-89 56t-104.5 31.5t-110 15t-115 3.5h-82v-954h82q65 0 115 3.5t110 15t104.5 31.5t89 56t72 85.5t45 122t17.5 163.5zM139 1360h336q139 0 251.5 -18.5
t215.5 -66t172.5 -123t110.5 -195.5t41 -277t-41 -277t-110.5 -195.5t-172.5 -123t-215.5 -66t-251.5 -18.5h-336v1360z" />
    <glyph glyph-name="uni01F3" unicode="&#x1f3;" horiz-adv-x="2064" 
d="M1171 0v168l541 645h-502v191h791v-173l-541 -641h555v-190h-844zM1010 1360v-1360h-217l-5 119q-101 -144 -299 -144q-191 0 -310.5 142t-119.5 385q0 237 125.5 379.5t321.5 142.5q180 0 276 -129v465h228zM537 158q116 0 186 89.5t70 254.5q0 162 -69.5 251t-186.5 89
t-180.5 -92t-63.5 -250t63.5 -250t180.5 -92z" />
    <glyph glyph-name="Aringacute" unicode="&#x1fa;" horiz-adv-x="1286" 
d="M997 1890l-258 -188q70 -50 70 -129q0 -70 -49.5 -116t-122.5 -46t-122.5 46t-49.5 116q0 37 17.5 69.5t56.5 73.5l166 174h292zM637 1655q-33 0 -57.5 -23.5t-24.5 -58.5q0 -34 24.5 -57t57.5 -23t57.5 23t24.5 57q0 35 -24.5 58.5t-57.5 23.5zM0 0l514 1360h254
l518 -1360h-264l-104 287h-568l-102 -287h-248zM633 1079l-211 -592h424z" />
    <glyph glyph-name="aringacute" unicode="&#x1fb;" horiz-adv-x="1064" 
d="M829 1581l-206 -201q42 -21 67 -59t25 -86q0 -72 -51 -119t-127 -47q-74 0 -125.5 47.5t-51.5 118.5q0 51 39 111l162 235h268zM537 1315q-32 0 -55 -23t-23 -57q0 -33 22.5 -55.5t55.5 -22.5t56 22.5t23 55.5t-23 56.5t-56 23.5zM313 692l-211 6q11 151 128 240.5
t313 89.5q221 0 318 -88t97 -297q0 -34 -2 -148.5t-2 -140.5q0 -172 21 -354h-213l-6 121q-98 -146 -326 -146q-166 0 -264 96t-98 232q0 142 110 217q63 43 151.5 66.5t215.5 38.5l188 20v35q0 97 -52.5 137.5t-150.5 40.5q-97 0 -153 -43t-64 -123zM741 418v61l-190 -20
q-129 -14 -188.5 -51.5t-59.5 -106.5q0 -65 47.5 -106t128.5 -41q110 0 186 66t76 198z" />
    <glyph glyph-name="AEacute" unicode="&#x1fc;" horiz-adv-x="1929" 
d="M901 1360h975v-203h-733v-354h690v-201h-690v-399h733v-203h-975v287h-495l-197 -287h-258zM901 1010l-358 -523h358v523zM1743 1645l-295 -215h-199l201 215h293z" />
    <glyph glyph-name="aeacute" unicode="&#x1fd;" horiz-adv-x="1759" 
d="M1171 1360l-270 -242h-174l176 242h268zM317 688l-215 8q11 152 128 242t313 90q251 0 342 -137q130 133 336 133q234 0 365 -166.5t116 -425.5h-752q1 -124 76.5 -199t198.5 -75q183 0 241 157l220 -28q-44 -142 -169.5 -227t-291.5 -85q-272 0 -398 195
q-61 -97 -164 -146t-231 -49q-168 0 -266 96t-98 232q0 138 110 213q113 79 367 109l188 20v35q0 97 -52.5 137.5t-150.5 40.5q-96 0 -150.5 -45t-62.5 -125zM479 154q110 0 186 66t76 198v61l-190 -20q-129 -14 -188.5 -51.5t-59.5 -106.5q0 -65 47.5 -106t128.5 -41z
M948 600h522q-4 115 -76 182.5t-177 67.5q-114 0 -188.5 -65.5t-80.5 -184.5z" />
    <glyph glyph-name="Oslashacute" unicode="&#x1fe;" horiz-adv-x="1478" 
d="M1358 1315l-121 -141q158 -191 158 -490q0 -326 -178 -517.5t-478 -191.5q-250 0 -411 131l-121 -141l-92 82l125 146q-156 192 -156 491q0 319 179 509.5t478 190.5q242 0 406 -127l117 138zM1147 684q0 182 -68 305l-606 -713q105 -102 266 -102q181 0 294.5 132.5
t113.5 377.5zM332 684q0 -187 65 -305l607 711q-110 96 -265 96q-180 0 -293.5 -129t-113.5 -373zM1149 1645l-295 -215h-199l201 215h293z" />
    <glyph glyph-name="oslashacute" unicode="&#x1ff;" horiz-adv-x="1103" 
d="M59 500q0 130 41.5 232.5t111.5 164.5t157 94.5t184 32.5q168 0 295 -92l102 117l86 -76l-104 -121q112 -134 112 -352q0 -105 -27 -192.5t-73.5 -148t-109.5 -103t-134 -62t-147 -19.5q-170 0 -301 93l-102 -119l-87 78l107 120q-111 137 -111 353zM811 500
q0 101 -29 180l-397 -459q63 -63 168 -63q119 0 188.5 88t69.5 254zM293 500q0 -107 26 -178l398 458q-65 62 -164 62q-120 0 -190 -88t-70 -254zM895 1360l-270 -242h-174l176 242h268z" />
    <glyph glyph-name="Scommaaccent" unicode="&#x218;" horiz-adv-x="1232" 
d="M526 -250v182h193v-194l-84 -170h-115l74 182h-68zM94 1001q0 97 46.5 173t122.5 120.5t164.5 67t180.5 22.5q137 0 249.5 -43t192 -133t105.5 -219l-233 -35q-19 82 -72 136t-116.5 75t-137.5 21q-43 0 -85.5 -9t-82.5 -28.5t-65 -55.5t-25 -83q0 -136 201 -179l170 -36
q62 -13 111 -27t106 -36t98.5 -52.5t77 -71t54 -96t18.5 -123.5q0 -99 -45 -179.5t-121 -131t-172.5 -77t-202.5 -26.5q-246 0 -401.5 123t-186.5 328l238 37q29 -143 121 -216t235 -73q127 0 209 49.5t82 149.5q0 46 -20.5 81t-61 58.5t-86 39t-111.5 30.5l-168 36
q-389 85 -389 383z" />
    <glyph glyph-name="scommaaccent" unicode="&#x219;" horiz-adv-x="1001" 
d="M408 -250v182h192v-194l-84 -170h-115l74 182h-67zM936 723l-213 -29q-17 74 -81 116t-159 42q-80 0 -134 -27.5t-54 -76.5q0 -86 156 -119l118 -25q71 -16 119.5 -30t101.5 -38t84.5 -53.5t52.5 -75t21 -102.5q0 -103 -60.5 -179t-158.5 -113.5t-219 -37.5
q-192 0 -315.5 95t-139.5 237l221 33q14 -86 76 -139.5t166 -53.5q95 0 151 33t56 94q0 30 -14.5 52t-44 37.5t-59.5 25t-75 19.5l-133 28q-56 12 -101 27t-87 39.5t-70 55.5t-44.5 75.5t-16.5 99.5q0 131 121.5 211t298.5 80q107 0 198 -33.5t155 -102.5t83 -165z" />
    <glyph glyph-name="uni021A" unicode="&#x21a;" horiz-adv-x="1122" 
d="M465 -250v182h192v-194l-84 -170h-114l73 182h-67zM440 0v1157h-434v203h1110v-203h-434v-1157h-242z" />
    <glyph glyph-name="uni021B" unicode="&#x21b;" horiz-adv-x="647" 
d="M203 -250v182h192v-194l-84 -170h-114l73 182h-67zM160 1004v290h227v-290h205v-175h-205v-520q0 -78 24.5 -103.5t96.5 -25.5h82v-180h-166q-84 0 -134 12t-80 44.5t-40 81t-10 130.5v561h-152v175h152z" />
    <glyph glyph-name="uni021C" unicode="&#x21c;" horiz-adv-x="1165" 
d="M66 -367l-13 207q100 6 180 13.5t167 21t153 32t127.5 46.5t101 64t63 85t23.5 109q0 122 -85.5 185t-239.5 63q-54 0 -146 -15l-28 195q232 34 345 103.5t113 203.5q0 108 -80 174t-204 66q-122 0 -203 -64t-111 -188l-223 47q46 198 193 298.5t366 100.5
q77 0 149 -14.5t138 -47t114.5 -79.5t77.5 -117.5t29 -156.5q0 -127 -72 -221t-192 -156q148 -44 227.5 -146t79.5 -241q0 -538 -1050 -568z" />
    <glyph glyph-name="uni021D" unicode="&#x21d;" horiz-adv-x="999" 
d="M197 672l-203 55q42 137 165.5 217t311.5 80q85 0 161 -20t140 -60.5t101.5 -109.5t37.5 -158q0 -191 -200 -283q115 -35 176 -115.5t61 -193.5q0 -152 -113.5 -256.5t-312 -156t-477.5 -58.5l-10 182q680 34 680 293q0 103 -102.5 157.5t-295.5 18.5l-26 178
q195 25 292 76.5t97 149.5q0 78 -64 126t-161 48q-208 0 -258 -170z" />
    <glyph glyph-name="uni0226" unicode="&#x226;" horiz-adv-x="1286" 
d="M0 0l514 1360h254l518 -1360h-264l-104 287h-568l-102 -287h-248zM633 1079l-211 -592h424zM520 1640h234v-204h-234v204z" />
    <glyph glyph-name="uni0227" unicode="&#x227;" horiz-adv-x="1064" 
d="M313 692l-211 6q11 151 128 240.5t313 89.5q221 0 318 -88t97 -297q0 -34 -2 -148.5t-2 -140.5q0 -172 21 -354h-213l-6 121q-98 -146 -326 -146q-166 0 -264 96t-98 232q0 142 110 217q63 43 151.5 66.5t215.5 38.5l188 20v35q0 97 -52.5 137.5t-150.5 40.5
q-97 0 -153 -43t-64 -123zM741 418v61l-190 -20q-129 -14 -188.5 -51.5t-59.5 -106.5q0 -65 47.5 -106t128.5 -41q110 0 186 66t76 198zM436 1343h201v-210h-201v210z" />
    <glyph glyph-name="uni0232" unicode="&#x232;" horiz-adv-x="1218" 
d="M-12 1360h276l342 -617l352 617h273l-508 -848v-512h-242v516zM897 1454h-586v166h586v-166z" />
    <glyph glyph-name="uni0233" unicode="&#x233;" horiz-adv-x="935" 
d="M182 -354h-102v190h86q79 0 116 25.5t70 120.5l10 24l-370 998h248l231 -715l234 715h231l-361 -1002q-26 -71 -47 -118.5t-46.5 -90.5t-53 -68.5t-64 -44.5t-80.5 -26.5t-102 -7.5zM754 1155h-586v166h586v-166z" />
    <glyph glyph-name="dotlessj" unicode="&#x237;" horiz-adv-x="509" 
d="M156 -35v1039h227v-1039q0 -97 -16.5 -158.5t-55.5 -97.5t-94 -49.5t-143 -13.5h-92v186h47q81 0 104 25t23 108z" />
    <glyph glyph-name="uni0254" unicode="&#x254;" horiz-adv-x="1064" 
d="M506 -25q-171 0 -294 92t-157 248l219 35q18 -87 79 -139.5t159 -52.5q115 0 187.5 88t72.5 252q0 166 -71 255t-185 89q-93 0 -158 -48.5t-84 -148.5l-221 35q38 161 165.5 252.5t301.5 91.5q227 0 356.5 -145t129.5 -379q0 -236 -133.5 -380.5t-366.5 -144.5z" />
    <glyph glyph-name="uni0259" unicode="&#x259;" horiz-adv-x="1103" 
d="M543 1024q159 0 275 -70.5t172.5 -187.5t56.5 -266q0 -231 -138.5 -378t-359.5 -147q-156 0 -270 76t-169.5 209.5t-46.5 304.5h752q-3 123 -78.5 200t-189.5 77q-188 0 -250 -160l-217 31q46 143 171 227t292 84zM549 150q108 0 182.5 62t83.5 185h-520q4 -113 76 -180
t178 -67z" />
    <glyph glyph-name="uni025B" unicode="&#x25b;" horiz-adv-x="983" 
d="M924 176v-176h-478q-395 0 -395 297q0 157 156 233q-54 32 -87.5 90t-33.5 125q0 132 103.5 195.5t295.5 63.5h430v-177h-426q-174 0 -174 -106q0 -115 177 -115h368v-176h-375q-104 0 -152 -31.5t-48 -95.5q0 -127 192 -127h447z" />
    <glyph glyph-name="uni0272" unicode="&#x272;" horiz-adv-x="1120" 
d="M127 -35v1039h227v-130q43 70 123.5 110t184.5 40q171 0 260.5 -102t89.5 -295v-627h-228v578q0 128 -44.5 193t-151.5 65q-234 0 -234 -316v-555q0 -132 -26.5 -199t-88 -93.5t-182.5 -26.5h-75v186h41q69 0 86.5 24.5t17.5 108.5z" />
    <glyph glyph-name="uni0275" unicode="&#x275;" horiz-adv-x="1103" 
d="M59 500q0 130 41.5 232.5t111.5 164.5t157 94.5t184 32.5q76 0 147 -20t134 -62t109.5 -102.5t73.5 -148t27 -191.5q0 -105 -27 -192.5t-73.5 -148t-109.5 -103t-134 -62t-147 -19.5q-97 0 -184 32t-157 94.5t-111.5 165.5t-41.5 233zM553 158q102 0 168 65.5t84 192.5
h-506q17 -127 84 -192.5t170 -65.5zM553 842q-101 0 -168.5 -64.5t-85.5 -187.5h506q-18 122 -85 187t-167 65z" />
    <glyph glyph-name="circumflex" unicode="&#x2c6;" horiz-adv-x="800" 
d="M494 1360l266 -242h-209l-150 113l-153 -113h-207l272 242h181z" />
    <glyph glyph-name="caron" unicode="&#x2c7;" horiz-adv-x="800" 
d="M307 1118l-266 242h209l149 -113l154 113h207l-273 -242h-180z" />
    <glyph glyph-name="breve" unicode="&#x2d8;" horiz-adv-x="710" 
d="M670 1360q-12 -112 -89 -182t-229 -70q-149 0 -225 70.5t-86 181.5h166q7 -57 42.5 -91t104.5 -34q70 0 108 34.5t44 90.5h164z" />
    <glyph glyph-name="dotaccent" unicode="&#x2d9;" horiz-adv-x="282" 
d="M41 1343h201v-210h-201v210z" />
    <glyph glyph-name="ring" unicode="&#x2da;" horiz-adv-x="436" 
d="M217 1442q74 0 126 -47.5t52 -118.5q0 -72 -51 -119t-127 -47q-74 0 -125 47.5t-51 118.5t51.5 118.5t124.5 47.5zM217 1356q-32 0 -55 -23t-23 -57q0 -33 22.5 -55.5t55.5 -22.5t56.5 22.5t23.5 55.5t-23.5 56.5t-56.5 23.5z" />
    <glyph glyph-name="ogonek" unicode="&#x2db;" horiz-adv-x="483" 
d="M180 0h228q-81 -40 -123.5 -75t-42.5 -75q0 -37 27.5 -54t70.5 -17q41 0 102 18v-139q-72 -20 -145 -20q-106 0 -181 44.5t-75 131.5q0 115 139 186z" />
    <glyph glyph-name="tilde" unicode="&#x2dc;" horiz-adv-x="827" 
d="M530 1274q80 0 95 84h161q-11 -71 -38 -121t-63.5 -75t-71.5 -35.5t-72 -10.5q-40 0 -77.5 13.5t-61 29.5t-52.5 29.5t-55 13.5q-77 0 -92 -84h-162q11 69 38 119t63.5 75.5t72 36.5t72.5 11q51 0 94 -21.5t79 -43t70 -21.5z" />
    <glyph glyph-name="hungarumlaut" unicode="&#x2dd;" horiz-adv-x="868" 
d="M485 1360l-268 -242h-176l176 242h268zM827 1360l-270 -242h-174l176 242h268z" />
    <glyph glyph-name="uni032C" unicode="&#x32c;" horiz-adv-x="800" 
d="M328 -262l-287 262h215l143 -113l148 113h213l-293 -262h-139z" />
    <glyph glyph-name="pi" unicode="&#x3c0;" horiz-adv-x="1263" 
d="M428 0h-213v801h-154v203h1135v-203h-154v-492q0 -79 16.5 -102t82.5 -23h61v-184h-94q-86 0 -136 11t-84 43t-46.5 86.5t-12.5 146.5v514h-401v-801z" />
    <glyph glyph-name="Wgrave" unicode="&#x1e80;" horiz-adv-x="1705" 
d="M793 1430l-295 215h290l203 -215h-198zM995 1360l236 -1049l209 1049h254l-322 -1360h-287l-231 1038l-229 -1038h-289l-324 1360h262l222 -1047l219 1047h280z" />
    <glyph glyph-name="wgrave" unicode="&#x1e81;" horiz-adv-x="1378" 
d="M395 297l176 707h234l178 -707l150 707h245l-272 -1004h-215l-203 737l-201 -737h-215l-272 1004h246zM604 1118l-270 242h268l178 -242h-176z" />
    <glyph glyph-name="Wacute" unicode="&#x1e82;" horiz-adv-x="1705" 
d="M995 1360l236 -1049l209 1049h254l-322 -1360h-287l-231 1038l-229 -1038h-289l-324 1360h262l222 -1047l219 1047h280zM1196 1645l-295 -215h-199l201 215h293z" />
    <glyph glyph-name="wacute" unicode="&#x1e83;" horiz-adv-x="1378" 
d="M1038 1360l-270 -242h-174l176 242h268zM395 297l176 707h234l178 -707l150 707h245l-272 -1004h-215l-203 737l-201 -737h-215l-272 1004h246z" />
    <glyph glyph-name="Wdieresis" unicode="&#x1e84;" horiz-adv-x="1705" 
d="M526 1640h201v-204h-201v204zM975 1640h201v-204h-201v204zM995 1360l236 -1049l209 1049h254l-322 -1360h-287l-231 1038l-229 -1038h-289l-324 1360h262l222 -1047l219 1047h280z" />
    <glyph glyph-name="wdieresis" unicode="&#x1e85;" horiz-adv-x="1378" 
d="M365 1133v210h200v-210h-200zM813 1343h201v-210h-201v210zM395 297l176 707h234l178 -707l150 707h245l-272 -1004h-215l-203 737l-201 -737h-215l-272 1004h246z" />
    <glyph glyph-name="uni1EA0" unicode="&#x1ea0;" horiz-adv-x="1286" 
d="M0 0l514 1360h254l518 -1360h-264l-104 287h-568l-102 -287h-248zM633 1079l-211 -592h424zM532 -86h201v-211h-201v211z" />
    <glyph glyph-name="uni1EA1" unicode="&#x1ea1;" horiz-adv-x="1064" 
d="M313 692l-211 6q11 151 128 240.5t313 89.5q221 0 318 -88t97 -297q0 -34 -2 -148.5t-2 -140.5q0 -172 21 -354h-213l-6 121q-98 -146 -326 -146q-166 0 -264 96t-98 232q0 142 110 217q63 43 151.5 66.5t215.5 38.5l188 20v35q0 97 -52.5 137.5t-150.5 40.5
q-97 0 -153 -43t-64 -123zM741 418v61l-190 -20q-129 -14 -188.5 -51.5t-59.5 -106.5q0 -65 47.5 -106t128.5 -41q110 0 186 66t76 198zM428 -86h201v-211h-201v211z" />
    <glyph glyph-name="uni1EB8" unicode="&#x1eb8;" horiz-adv-x="1171" 
d="M139 0v1360h977v-203h-735v-358h694v-201h-694v-395h735v-203h-977zM524 -86h201v-211h-201v211z" />
    <glyph glyph-name="uni1EB9" unicode="&#x1eb9;" horiz-adv-x="1097" 
d="M561 -25q-122 0 -219 40.5t-158 112t-93 166.5t-32 206q0 233 137 378.5t359 145.5q157 0 271 -75.5t169.5 -209t46.5 -307.5h-753q3 -124 77.5 -199t190.5 -75q189 0 250 157l219 -28q-19 -59 -55.5 -112.5t-92 -99.5t-137.5 -73t-180 -27zM557 850q-108 0 -185 -63.5
t-83 -186.5h522q-4 113 -76.5 181.5t-177.5 68.5zM449 -86h200v-211h-200v211z" />
    <glyph glyph-name="uni1ECA" unicode="&#x1eca;" horiz-adv-x="520" 
d="M381 1360v-1360h-242v1360h242zM158 -86h200v-211h-200v211z" />
    <glyph glyph-name="uni1ECB" unicode="&#x1ecb;" horiz-adv-x="479" 
d="M127 1004h227v-1004h-227v1004zM127 1360h227v-230h-227v230zM137 -86h201v-211h-201v211z" />
    <glyph glyph-name="uni1ECC" unicode="&#x1ecc;" horiz-adv-x="1486" 
d="M1153 684q0 244 -114 373t-296 129q-180 0 -294.5 -129t-114.5 -373t114.5 -377t294.5 -133q181 0 295.5 132.5t114.5 377.5zM1403 684q0 -326 -180 -517.5t-480 -191.5q-303 0 -481 193t-178 516q0 319 179.5 509.5t479.5 190.5q302 0 481 -188t179 -512zM639 -86h201
v-211h-201v211z" />
    <glyph glyph-name="uni1ECD" unicode="&#x1ecd;" horiz-adv-x="1103" 
d="M293 500q0 -166 70 -254t188 -88q119 0 188.5 88t69.5 254t-69.5 254t-188.5 88q-118 0 -188 -88t-70 -254zM59 500q0 131 40 233t109.5 164.5t156.5 94.5t186 32t186 -32t156 -94.5t109 -164.5t40 -233q0 -105 -26.5 -192.5t-72 -148t-108 -103t-134 -62t-150.5 -19.5
t-150.5 19.5t-134 62t-108.5 103t-72.5 148t-26.5 192.5zM442 -86h201v-211h-201v211z" />
    <glyph glyph-name="uni1EE4" unicode="&#x1ee4;" horiz-adv-x="1366" 
d="M119 1360h241v-795q0 -202 70 -296.5t254 -94.5q182 0 252 98t70 301v787h241v-778q0 -325 -131 -466t-432 -141q-202 0 -323.5 57t-181.5 188.5t-60 354.5v785zM569 -86h201v-211h-201v211z" />
    <glyph glyph-name="uni1EE5" unicode="&#x1ee5;" horiz-adv-x="1112" 
d="M760 0v125q-98 -150 -303 -150q-177 0 -269 115q-73 94 -73 289v625h227v-574q0 -139 33 -192q47 -74 157 -74q119 0 173.5 86t54.5 233v521h227v-1004h-227zM444 -86h201v-211h-201v211z" />
    <glyph glyph-name="Ygrave" unicode="&#x1ef2;" horiz-adv-x="1218" 
d="M-12 1360h276l342 -617l352 617h273l-508 -848v-512h-242v516zM573 1430l-294 215h290l203 -215h-199z" />
    <glyph glyph-name="ygrave" unicode="&#x1ef3;" horiz-adv-x="935" 
d="M182 -354h-102v190h86q79 0 116 25.5t70 120.5l10 24l-370 998h248l231 -715l234 715h231l-361 -1002q-26 -71 -47 -118.5t-46.5 -90.5t-53 -68.5t-64 -44.5t-80.5 -26.5t-102 -7.5zM406 1118l-271 242h268l179 -242h-176z" />
    <glyph glyph-name="endash" unicode="&#x2013;" horiz-adv-x="966" 
d="M905 412h-844v202h844v-202z" />
    <glyph glyph-name="emdash" unicode="&#x2014;" horiz-adv-x="1382" 
d="M1321 412h-1260v202h1260v-202z" />
    <glyph glyph-name="quoteleft" unicode="&#x2018;" horiz-adv-x="462" 
d="M365 1069v-256h-267v274l142 273h135l-125 -291h115z" />
    <glyph glyph-name="quoteright" unicode="&#x2019;" horiz-adv-x="462" 
d="M98 1104v256h267v-275l-142 -272h-135l125 291h-115z" />
    <glyph glyph-name="quotesinglbase" unicode="&#x201a;" horiz-adv-x="462" 
d="M98 0v258h267v-276l-142 -283h-135l125 301h-115z" />
    <glyph glyph-name="quotedblleft" unicode="&#x201c;" horiz-adv-x="821" 
d="M723 1069v-256h-264v274l141 273h133l-125 -291h115zM365 1069v-256h-267v274l142 273h135l-125 -291h115z" />
    <glyph glyph-name="quotedblright" unicode="&#x201d;" horiz-adv-x="821" 
d="M98 1104v256h267v-275l-142 -272h-135l125 291h-115zM459 1104v256h264v-275l-141 -272h-133l124 291h-114z" />
    <glyph glyph-name="quotedblbase" unicode="&#x201e;" horiz-adv-x="831" 
d="M98 0v258h267v-276l-142 -283h-135l125 301h-115zM469 0v258h264v-276l-141 -283h-135l125 301h-113z" />
    <glyph glyph-name="dagger" unicode="&#x2020;" horiz-adv-x="1114" 
d="M664 0h-211v764h-404v205h404v391h211v-391h401v-205h-401v-764z" />
    <glyph glyph-name="daggerdbl" unicode="&#x2021;" horiz-adv-x="1114" 
d="M664 557h401v-203h-401v-354h-211v354h-404v203h404v248h-404v205h404v350h211v-350h401v-205h-401v-248z" />
    <glyph glyph-name="bullet" unicode="&#x2022;" horiz-adv-x="849" 
d="M82 530q0 139 99 238.5t237 99.5q148 0 249 -98.5t101 -239.5q0 -148 -100.5 -248t-249.5 -100q-139 0 -237.5 100.5t-98.5 247.5z" />
    <glyph glyph-name="ellipsis" unicode="&#x2026;" horiz-adv-x="1724" 
d="M158 0v258h258v-258h-258zM733 0v258h256v-258h-256zM1307 0v258h258v-258h-258z" />
    <glyph glyph-name="perthousand" unicode="&#x2030;" horiz-adv-x="2471" 
d="M365 569q-158 0 -240 108t-82 296q0 187 82 294t240 107q157 0 239 -107t82 -294q0 -188 -82.5 -296t-238.5 -108zM365 696q151 0 151 277q0 274 -151 274q-152 0 -152 -274q0 -277 152 -277zM514 0h-240l953 1360h239zM1376 -14q-158 0 -239.5 107.5t-81.5 295.5
t81.5 295t239.5 107q157 0 239.5 -107.5t82.5 -294.5t-82.5 -295t-239.5 -108zM1376 113q152 0 152 276q0 275 -152 275q-151 0 -151 -275q0 -276 151 -276zM2105 -14q-158 0 -239.5 107.5t-81.5 295.5t81.5 295t239.5 107q157 0 239.5 -107.5t82.5 -294.5t-82.5 -295
t-239.5 -108zM2105 113q152 0 152 276q0 275 -152 275q-151 0 -151 -275q0 -276 151 -276z" />
    <glyph glyph-name="guilsinglleft" unicode="&#x2039;" horiz-adv-x="573" 
d="M315 61l-303 439l303 436h217l-256 -436l256 -439h-217z" />
    <glyph glyph-name="guilsinglright" unicode="&#x203a;" horiz-adv-x="573" 
d="M561 500l-303 -439h-217l256 439l-256 436h217z" />
    <glyph glyph-name="fraction" unicode="&#x2044;" horiz-adv-x="282" 
d="M-215 0h-240l953 1360h239z" />
    <glyph glyph-name="zero.superior" unicode="&#x2070;" horiz-adv-x="763" 
d="M383 819q-158 0 -240 108t-82 296q0 187 82 294t240 107q157 0 239.5 -107t82.5 -294t-83 -295.5t-239 -108.5zM383 946q152 0 152 277q0 274 -152 274t-152 -274q0 -277 152 -277z" />
    <glyph glyph-name="four.superior" unicode="&#x2074;" horiz-adv-x="739" 
d="M414 1401l-209 -254h209v254zM709 1147v-143h-131v-170h-164v170h-381v133l391 473h154v-463h131z" />
    <glyph glyph-name="five.superior" unicode="&#x2075;" horiz-adv-x="716" 
d="M356 946q63 0 100.5 38t37.5 106q0 69 -40 107t-98 38q-49 0 -83.5 -20.5t-47.5 -51.5l-151 11l53 436h500v-142h-363l-20 -153q63 49 162 49q109 0 183.5 -72.5t74.5 -199.5q0 -128 -86 -200.5t-220 -72.5q-132 0 -212 69.5t-93 176.5l158 20q10 -63 45.5 -101t99.5 -38
z" />
    <glyph glyph-name="six.superior" unicode="&#x2076;" horiz-adv-x="714" 
d="M227 1087q0 -65 37.5 -103t97.5 -38q57 0 94.5 38.5t37.5 102.5q0 62 -38 101t-94 39q-59 0 -97 -39t-38 -101zM369 1497q-68 0 -109.5 -58t-42.5 -157q62 72 182 72q110 0 187.5 -71.5t77.5 -195.5q0 -123 -84 -195.5t-218 -72.5q-153 0 -231 103.5t-78 279.5
q0 88 18.5 162t56.5 133.5t102 93t149 33.5q123 0 192 -63.5t76 -153.5l-160 -2q-6 43 -38.5 67.5t-79.5 24.5z" />
    <glyph glyph-name="seven.superior" unicode="&#x2077;" horiz-adv-x="614" 
d="M23 1468v142h589v-137q-162 -144 -237.5 -289t-81.5 -350h-182q4 189 94.5 349.5t234.5 284.5h-417z" />
    <glyph glyph-name="eight.superior" unicode="&#x2078;" horiz-adv-x="720" 
d="M360 1624q128 0 204.5 -58.5t76.5 -146.5q0 -114 -90 -170q115 -64 115 -192q0 -108 -86 -173t-220 -65q-133 0 -218 65t-85 173q0 127 113 192q-42 27 -66 73t-24 97q0 87 76.5 146t203.5 59zM360 1182q-61 0 -98 -32t-37 -85q0 -54 37 -86.5t98 -32.5q63 0 100.5 32.5
t37.5 86.5q0 53 -37.5 85t-100.5 32zM479 1399q0 45 -32 71.5t-87 26.5q-54 0 -85 -26.5t-31 -71.5q0 -44 31.5 -73.5t84.5 -29.5q54 0 86.5 29.5t32.5 73.5z" />
    <glyph glyph-name="nine.superior" unicode="&#x2079;" horiz-adv-x="708" 
d="M485 1356q0 64 -38.5 102.5t-96.5 38.5q-59 0 -96 -37.5t-37 -103.5q0 -62 37.5 -100.5t95.5 -38.5t96.5 38.5t38.5 100.5zM342 946q69 0 110.5 58t41.5 157q-61 -71 -181 -71q-110 0 -188 71t-78 193t82.5 196t214.5 74q158 0 235.5 -102.5t77.5 -280.5q0 -88 -18 -162
t-55.5 -133.5t-101 -93t-148.5 -33.5q-123 0 -193 64t-75 153l157 2q6 -43 39 -67.5t80 -24.5z" />
    <glyph glyph-name="plus.superior" unicode="&#x207a;" horiz-adv-x="720" 
d="M438 834h-155v219h-228v143h228v219h155v-219h228v-143h-228v-219z" />
    <glyph glyph-name="minus.superior" unicode="&#x207b;" horiz-adv-x="706" 
d="M55 1196h598v-143h-598v143z" />
    <glyph glyph-name="equal.superior" unicode="&#x207c;" horiz-adv-x="710" 
d="M639 1169h-567v146h567v-146zM639 934h-567v145h567v-145z" />
    <glyph glyph-name="parenleft.superior" unicode="&#x207d;" horiz-adv-x="358" 
d="M45 1122q0 143 46 272.5t106 215.5h155q-61 -99 -99 -226.5t-38 -261.5t38 -263.5t99 -227.5h-155q-60 85 -106 216t-46 275z" />
    <glyph glyph-name="parenright.superior" unicode="&#x207e;" horiz-adv-x="358" 
d="M311 1122q0 -144 -45 -275.5t-104 -215.5h-156q61 98 99 227.5t38 263.5t-38 261.5t-99 226.5h156q59 -84 104 -214t45 -274z" />
    <glyph glyph-name="n.superior" unicode="&#x207f;" horiz-adv-x="698" 
d="M252 1407v-68q50 80 172 80q108 0 156 -63q43 -49 43 -168v-354h-166v319q0 73 -19 100q-25 31 -76 31q-110 0 -110 -158v-292h-166v573h166z" />
    <glyph glyph-name="zero.inferior" unicode="&#x2080;" horiz-adv-x="763" 
d="M383 -260q-158 0 -240 107.5t-82 295.5t82 295t240 107q157 0 239.5 -107.5t82.5 -294.5t-82.5 -295t-239.5 -108zM383 -133q152 0 152 276q0 275 -152 275t-152 -275q0 -276 152 -276z" />
    <glyph glyph-name="one.inferior" unicode="&#x2081;" horiz-adv-x="454" 
d="M356 -246h-163v557h-173v117q66 2 102 9.5t63.5 30t45.5 64.5h125v-778z" />
    <glyph glyph-name="two.inferior" unicode="&#x2082;" horiz-adv-x="671" 
d="M348 545q121 0 197 -56t76 -159q0 -38 -11.5 -74t-37.5 -72.5t-53.5 -68t-75 -72t-86 -70.5t-101.5 -77h362v-142h-579v133q29 23 77.5 61t76.5 60t68.5 55.5t63.5 55.5t50.5 51t41.5 51.5t24 47.5t10 48q0 49 -32 76t-81 27q-55 0 -92 -38t-37 -116h-162q0 127 82 203
t219 76z" />
    <glyph glyph-name="three.inferior" unicode="&#x2083;" horiz-adv-x="712" 
d="M352 -133q61 0 99 29t38 79q0 113 -184 113h-31v133h27q81 0 124.5 26.5t43.5 78.5q0 44 -34 68t-83 24q-59 0 -96.5 -34t-46.5 -95l-158 18q18 111 98 174.5t216 63.5q115 0 193.5 -54.5t78.5 -154.5q0 -58 -29.5 -103t-77.5 -69q62 -23 95.5 -73.5t33.5 -113.5
q0 -113 -88.5 -175t-220.5 -62q-134 0 -215 71.5t-92 178.5l158 16q11 -64 49 -101.5t102 -37.5z" />
    <glyph glyph-name="four.inferior" unicode="&#x2084;" horiz-adv-x="739" 
d="M414 322l-209 -254h209v254zM709 68v-144h-131v-170h-164v170h-381v133l391 473h154v-462h131z" />
    <glyph glyph-name="five.inferior" unicode="&#x2085;" horiz-adv-x="716" 
d="M356 -133q63 0 100.5 37.5t37.5 105.5q0 69 -40.5 107.5t-97.5 38.5q-49 0 -83.5 -20.5t-47.5 -51.5l-151 10l53 436h500v-141h-363l-20 -153q63 49 162 49q109 0 183.5 -73t74.5 -200q0 -128 -86 -200t-220 -72q-132 0 -212 69.5t-93 176.5l158 20q10 -63 45.5 -101
t99.5 -38z" />
    <glyph glyph-name="six.inferior" unicode="&#x2086;" horiz-adv-x="714" 
d="M227 8q0 -65 37.5 -103t97.5 -38q57 0 94.5 38.5t37.5 102.5q0 62 -37.5 100.5t-94.5 38.5q-59 0 -97 -38.5t-38 -100.5zM369 418q-68 0 -109.5 -58t-42.5 -157q61 71 182 71q110 0 187.5 -71.5t77.5 -194.5t-84 -195.5t-218 -72.5q-153 0 -231 103.5t-78 279.5
q0 88 18.5 162t56.5 133.5t102 93t149 33.5q123 0 192 -63.5t76 -153.5l-160 -2q-6 43 -38.5 67.5t-79.5 24.5z" />
    <glyph glyph-name="seven.inferior" unicode="&#x2087;" horiz-adv-x="614" 
d="M23 389v141h589v-137q-162 -144 -237.5 -289t-81.5 -350h-182q4 189 94.5 350t234.5 285h-417z" />
    <glyph glyph-name="eight.inferior" unicode="&#x2088;" horiz-adv-x="720" 
d="M360 545q128 0 204.5 -58.5t76.5 -146.5q0 -114 -90 -170q115 -64 115 -193q0 -108 -86 -172.5t-220 -64.5q-133 0 -218 64.5t-85 172.5q0 128 113 193q-42 27 -66 73t-24 97q0 87 76.5 146t203.5 59zM360 102q-61 0 -98 -31.5t-37 -84.5q0 -54 37 -86.5t98 -32.5
q63 0 100.5 32.5t37.5 86.5q0 53 -37.5 84.5t-100.5 31.5zM479 319q0 45 -32 72t-87 27q-53 0 -84.5 -27t-31.5 -72q0 -44 31.5 -73t84.5 -29q54 0 86.5 29t32.5 73z" />
    <glyph glyph-name="nine.inferior" unicode="&#x2089;" horiz-adv-x="708" 
d="M485 276q0 65 -38.5 103.5t-96.5 38.5q-59 0 -96 -38t-37 -104q0 -62 37.5 -100.5t95.5 -38.5t96.5 38.5t38.5 100.5zM342 -133q69 0 110.5 58t41.5 157q-62 -72 -181 -72q-110 0 -188 71t-78 193t82.5 196.5t214.5 74.5q158 0 235.5 -102.5t77.5 -280.5q0 -88 -18 -162
t-55.5 -133.5t-101 -93t-148.5 -33.5q-123 0 -193 64t-75 153l157 2q6 -43 39 -67.5t80 -24.5z" />
    <glyph glyph-name="parenleft.inferior" unicode="&#x208d;" horiz-adv-x="358" 
d="M45 43q0 143 46 272t106 215h155q-61 -99 -99 -226t-38 -261t38 -264t99 -228h-155q-60 85 -106 216.5t-46 275.5z" />
    <glyph glyph-name="parenright.inferior" unicode="&#x208e;" horiz-adv-x="358" 
d="M311 43q0 -144 -45 -276t-104 -216h-156q61 98 99 228t38 264t-38 261t-99 226h156q59 -84 104 -213.5t45 -273.5z" />
    <glyph glyph-name="Euro" unicode="&#x20ac;" horiz-adv-x="1392" 
d="M698 475h-270q32 -148 120 -232.5t236 -84.5q134 0 225.5 68t116.5 218l213 -4q-29 -219 -180.5 -342t-372.5 -123q-231 0 -381 130.5t-196 369.5h-234l95 141h123q-3 34 -3 68t3 72h-218l95 141h141q49 231 202.5 359t381.5 128q217 0 363.5 -124.5t174.5 -339.5
l-213 -5q-24 146 -112.5 216.5t-223.5 70.5q-142 0 -230.5 -79.5t-123.5 -225.5h522l-94 -141h-448q-2 -25 -2 -72q0 -48 2 -68h383z" />
    <glyph glyph-name="afii61289" unicode="&#x2113;" horiz-adv-x="919" 
d="M217 330v32l-137 -104l-92 139l229 174v430q0 189 84 286t250 97q134 0 213.5 -80.5t79.5 -220.5q0 -50 -9.5 -95.5t-24.5 -82.5t-43 -76t-54.5 -69t-71 -68.5t-79.5 -66.5t-93 -72l-25 -18v-205q0 -94 33.5 -133t100.5 -39q90 0 178 71l88 -139q-127 -115 -305 -115
q-168 0 -245 82t-77 273zM444 1040v-295l13 11q94 72 137 146t43 179q0 67 -25 101.5t-69 34.5q-54 0 -76.5 -40t-22.5 -137z" />
    <glyph glyph-name="afii61352" unicode="&#x2116;" horiz-adv-x="2072" 
d="M1282 0h-336l-565 1075v-1075h-242v1360h334l567 -1075v1075h242v-1360zM2007 1038q0 -166 -86 -259t-235 -93t-235.5 93t-86.5 259q0 163 91 254.5t231 91.5q143 0 232 -89t89 -257zM1808 1038q0 89 -31 140t-91 51q-125 0 -125 -191q0 -194 125 -194q61 0 91.5 52.5
t30.5 141.5zM1997 412h-621v202h621v-202z" />
    <glyph glyph-name="trademark" unicode="&#x2122;" horiz-adv-x="1755" 
d="M262 600v596h-246v164h686v-164h-245v-596h-195zM1315 600h-178l-187 541v-541h-194v760h309l164 -520l170 520h295v-760h-195v543z" />
    <glyph glyph-name="Omega" unicode="&#x2126;" horiz-adv-x="1513" 
d="M758 1384q131 0 251.5 -40t215 -113.5t151 -189t56.5 -255.5q0 -177 -103.5 -319.5t-267.5 -200.5v-63h369v-203h-582v391q161 24 259.5 137.5t98.5 264.5q0 179 -124 294t-324 115q-202 0 -326.5 -115t-124.5 -294q0 -150 98.5 -264t260.5 -138v-391h-582v203h369v63
q-165 57 -268 200t-103 320q0 140 56.5 255.5t151.5 189t215.5 113.5t252.5 40z" />
    <glyph glyph-name="estimated" unicode="&#x212e;" horiz-adv-x="1103" 
d="M948 281h76q-49 -137 -165 -221.5t-294 -84.5q-124 0 -222.5 41t-161.5 113t-96.5 167t-33.5 206q0 232 138.5 378t365.5 146q116 0 211 -42t156 -114t94 -166t35 -200h-781v-361q45 -46 130 -75t180 -29q133 0 227 63.5t141 178.5zM270 864v-299h559v297
q-44 44 -116.5 72.5t-159.5 28.5q-88 0 -162.5 -26t-120.5 -73z" />
    <glyph glyph-name="onethird" unicode="&#x2153;" horiz-adv-x="1740" 
d="M1378 113q61 0 98 29t37 79q0 113 -184 113h-31v133h27q168 0 168 104q0 44 -34 68.5t-83 24.5q-60 0 -96.5 -34.5t-44.5 -94.5l-160 18q18 111 98 174.5t216 63.5q115 0 193.5 -54.5t78.5 -154.5q0 -58 -29.5 -103t-77.5 -69q62 -23 95.5 -73.5t33.5 -113.5
q0 -113 -88 -175t-221 -62q-134 0 -215 71.5t-92 178.5l160 16q9 -64 47.5 -101.5t103.5 -37.5zM514 0h-240l953 1360h239zM532 584h-165v557h-172v116q96 3 140 23t71 82h126v-778z" />
    <glyph glyph-name="twothirds" unicode="&#x2154;" horiz-adv-x="1740" 
d="M1378 113q61 0 98 29t37 79q0 113 -184 113h-31v133h27q168 0 168 104q0 44 -34 68.5t-83 24.5q-60 0 -96.5 -34.5t-44.5 -94.5l-160 18q18 111 98 174.5t216 63.5q115 0 193.5 -54.5t78.5 -154.5q0 -58 -29.5 -103t-77.5 -69q62 -23 95.5 -73.5t33.5 -113.5
q0 -113 -88 -175t-221 -62q-134 0 -215 71.5t-92 178.5l160 16q9 -64 47.5 -101.5t103.5 -37.5zM381 1374q120 0 195 -56t75 -159q0 -45 -19 -90t-47 -82.5t-80.5 -86t-97 -83.5t-120.5 -92h346v-141h-563v133q26 21 88 69t88.5 69t74 61t69 63.5t47.5 55.5t36 59t10 53
q0 49 -32 75.5t-80 26.5q-56 0 -93.5 -37.5t-37.5 -115.5h-162q0 127 82.5 202.5t220.5 75.5zM514 0h-240l953 1360h239z" />
    <glyph glyph-name="uni2155" unicode="&#x2155;" horiz-adv-x="1740" 
d="M1372 113q63 0 101 37.5t38 105.5q0 69 -40 107t-99 38q-47 0 -82 -20t-49 -51l-149 10l53 436h497v-141h-360l-20 -154q59 49 161 49q108 0 183 -72.5t75 -199.5q0 -128 -86 -200t-219 -72q-132 0 -212 69t-93 176l156 21q10 -63 46 -101t99 -38zM514 0h-240l953 1360
h239zM532 584h-165v557h-172v116q96 3 140 23t71 82h126v-778z" />
    <glyph glyph-name="uni2156" unicode="&#x2156;" horiz-adv-x="1740" 
d="M381 1374q120 0 195 -56t75 -159q0 -45 -19 -90t-47 -82.5t-80.5 -86t-97 -83.5t-120.5 -92h346v-141h-563v133q26 21 88 69t88.5 69t74 61t69 63.5t47.5 55.5t36 59t10 53q0 49 -32 75.5t-80 26.5q-56 0 -93.5 -37.5t-37.5 -115.5h-162q0 127 82.5 202.5t220.5 75.5z
M514 0h-240l953 1360h239zM1372 113q63 0 101 37.5t38 105.5q0 69 -40 107t-99 38q-47 0 -82 -20t-49 -51l-149 10l53 436h497v-141h-360l-20 -154q59 49 161 49q108 0 183 -72.5t75 -199.5q0 -128 -86 -200t-219 -72q-132 0 -212 69t-93 176l156 21q10 -63 46 -101t99 -38z
" />
    <glyph glyph-name="uni2157" unicode="&#x2157;" horiz-adv-x="1740" 
d="M1372 113q63 0 101 37.5t38 105.5q0 69 -40 107t-99 38q-47 0 -82 -20t-49 -51l-149 10l53 436h497v-141h-360l-20 -154q59 49 161 49q108 0 183 -72.5t75 -199.5q0 -128 -86 -200t-219 -72q-132 0 -212 69t-93 176l156 21q10 -63 46 -101t99 -38zM367 696q61 0 98 29.5
t37 79.5q0 113 -185 113h-30v133h26q168 0 168 104q0 44 -33.5 68t-82.5 24q-60 0 -97 -34.5t-45 -94.5l-160 19q18 110 98 173.5t216 63.5q115 0 193.5 -54.5t78.5 -154.5q0 -58 -29 -103t-77 -69q62 -23 95.5 -73t33.5 -113q0 -114 -88.5 -176t-221.5 -62
q-134 0 -215 71.5t-92 178.5l160 17q9 -64 48 -102t104 -38zM514 0h-240l953 1360h239z" />
    <glyph glyph-name="uni2158" unicode="&#x2158;" horiz-adv-x="1740" 
d="M406 1151l-207 -254h207v254zM702 897v-143h-131v-170h-165v170h-381v133l393 473h153v-463h131zM1372 113q63 0 101 37.5t38 105.5q0 69 -40 107t-99 38q-47 0 -82 -20t-49 -51l-149 10l53 436h497v-141h-360l-20 -154q59 49 161 49q108 0 183 -72.5t75 -199.5
q0 -128 -86 -200t-219 -72q-132 0 -212 69t-93 176l156 21q10 -63 46 -101t99 -38zM514 0h-240l953 1360h239z" />
    <glyph glyph-name="uni2159" unicode="&#x2159;" horiz-adv-x="1740" 
d="M514 0h-240l953 1360h239zM1245 254q0 -64 38.5 -102.5t96.5 -38.5q57 0 95 38.5t38 102.5q0 62 -37.5 100.5t-95.5 38.5t-96.5 -38.5t-38.5 -100.5zM1389 664q-69 0 -110.5 -58t-41.5 -157q58 71 182 71q109 0 185.5 -71.5t76.5 -194.5t-83.5 -195.5t-217.5 -72.5
q-152 0 -230.5 104t-78.5 279q0 70 11.5 131.5t37 115t63 92.5t93 61t123.5 22q122 0 190.5 -64t75.5 -154l-160 -2q-6 44 -37.5 68.5t-78.5 24.5zM532 584h-165v557h-172v116q96 3 140 23t71 82h126v-778z" />
    <glyph glyph-name="uni215A" unicode="&#x215a;" horiz-adv-x="1740" 
d="M360 696q63 0 101.5 38t38.5 106q0 69 -40.5 107t-99.5 38q-47 0 -82 -20.5t-49 -51.5l-149 11l53 436h498v-141h-361l-20 -154q59 49 162 49q108 0 183 -72.5t75 -199.5q0 -128 -86.5 -200.5t-218.5 -72.5t-212.5 69.5t-93.5 176.5l156 21q10 -63 46 -101.5t99 -38.5z
M514 0h-240l953 1360h239zM1245 254q0 -64 38.5 -102.5t96.5 -38.5q57 0 95 38.5t38 102.5q0 62 -37.5 100.5t-95.5 38.5t-96.5 -38.5t-38.5 -100.5zM1389 664q-69 0 -110.5 -58t-41.5 -157q58 71 182 71q109 0 185.5 -71.5t76.5 -194.5t-83.5 -195.5t-217.5 -72.5
q-152 0 -230.5 104t-78.5 279q0 70 11.5 131.5t37 115t63 92.5t93 61t123.5 22q122 0 190.5 -64t75.5 -154l-160 -2q-6 44 -37.5 68.5t-78.5 24.5z" />
    <glyph glyph-name="oneeighth" unicode="&#x215b;" horiz-adv-x="1740" 
d="M1376 791q127 0 204 -59t77 -146q0 -112 -90 -170q114 -65 114 -193q0 -108 -86 -172.5t-219 -64.5q-134 0 -219.5 64.5t-85.5 172.5q0 127 115 193q-43 27 -66.5 72.5t-23.5 97.5q0 88 76 146.5t204 58.5zM1376 348q-63 0 -100 -32t-37 -85q0 -54 37 -86t100 -32
q62 0 98.5 32t36.5 86q0 53 -37 85t-98 32zM1493 565q0 45 -31.5 72t-85.5 27q-55 0 -87 -27t-32 -72q0 -44 32.5 -73t86.5 -29q53 0 85 29t32 73zM514 0h-240l953 1360h239zM532 584h-165v557h-172v116q96 3 140 23t71 82h126v-778z" />
    <glyph glyph-name="threeeighths" unicode="&#x215c;" horiz-adv-x="1740" 
d="M367 696q61 0 98 29.5t37 79.5q0 113 -185 113h-30v133h26q168 0 168 104q0 44 -33.5 68t-82.5 24q-60 0 -97 -34.5t-45 -94.5l-160 19q18 110 98 173.5t216 63.5q115 0 193.5 -54.5t78.5 -154.5q0 -58 -29 -103t-77 -69q62 -23 95.5 -73t33.5 -113q0 -114 -88.5 -176
t-221.5 -62q-134 0 -215 71.5t-92 178.5l160 17q9 -64 48 -102t104 -38zM514 0h-240l953 1360h239zM1376 791q127 0 204 -59t77 -146q0 -112 -90 -170q114 -65 114 -193q0 -108 -86 -172.5t-219 -64.5q-134 0 -219.5 64.5t-85.5 172.5q0 127 115 193q-43 27 -66.5 72.5
t-23.5 97.5q0 88 76 146.5t204 58.5zM1376 348q-63 0 -100 -32t-37 -85q0 -54 37 -86t100 -32q62 0 98.5 32t36.5 86q0 53 -37 85t-98 32zM1493 565q0 45 -31.5 72t-85.5 27q-55 0 -87 -27t-32 -72q0 -44 32.5 -73t86.5 -29q53 0 85 29t32 73z" />
    <glyph glyph-name="fiveeighths" unicode="&#x215d;" horiz-adv-x="1740" 
d="M360 696q63 0 101.5 38t38.5 106q0 69 -40.5 107t-99.5 38q-47 0 -82 -20.5t-49 -51.5l-149 11l53 436h498v-141h-361l-20 -154q59 49 162 49q108 0 183 -72.5t75 -199.5q0 -128 -86.5 -200.5t-218.5 -72.5t-212.5 69.5t-93.5 176.5l156 21q10 -63 46 -101.5t99 -38.5z
M1376 791q127 0 204 -59t77 -146q0 -112 -90 -170q114 -65 114 -193q0 -108 -86 -172.5t-219 -64.5q-134 0 -219.5 64.5t-85.5 172.5q0 127 115 193q-43 27 -66.5 72.5t-23.5 97.5q0 88 76 146.5t204 58.5zM1376 348q-63 0 -100 -32t-37 -85q0 -54 37 -86t100 -32
q62 0 98.5 32t36.5 86q0 53 -37 85t-98 32zM1493 565q0 45 -31.5 72t-85.5 27q-55 0 -87 -27t-32 -72q0 -44 32.5 -73t86.5 -29q53 0 85 29t32 73zM514 0h-240l953 1360h239z" />
    <glyph glyph-name="seveneighths" unicode="&#x215e;" horiz-adv-x="1740" 
d="M70 1219v141h589v-137q-162 -144 -237.5 -289t-81.5 -350h-182q4 189 94.5 350t234.5 285h-417zM1376 791q127 0 204 -59t77 -146q0 -112 -90 -170q114 -65 114 -193q0 -108 -86 -172.5t-219 -64.5q-134 0 -219.5 64.5t-85.5 172.5q0 127 115 193q-43 27 -66.5 72.5
t-23.5 97.5q0 88 76 146.5t204 58.5zM1376 348q-63 0 -100 -32t-37 -85q0 -54 37 -86t100 -32q62 0 98.5 32t36.5 86q0 53 -37 85t-98 32zM1493 565q0 45 -31.5 72t-85.5 27q-55 0 -87 -27t-32 -72q0 -44 32.5 -73t86.5 -29q53 0 85 29t32 73zM514 0h-240l953 1360h239z" />
    <glyph glyph-name="uni215F" unicode="&#x215f;" horiz-adv-x="1011" 
d="M514 0h-240l953 1360h239zM532 584h-165v557h-172v116q96 3 140 23t71 82h126v-778z" />
    <glyph glyph-name="uni2190" unicode="&#x2190;" horiz-adv-x="1542" 
d="M41 512l588 590l137 -146l-352 -346h1067v-202h-1063l348 -342l-137 -144z" />
    <glyph glyph-name="uni2191" unicode="&#x2191;" horiz-adv-x="1261" 
d="M631 1401l590 -590l-140 -137l-350 352v-1026h-203v1024l-348 -350l-139 137z" />
    <glyph glyph-name="uni2192" unicode="&#x2192;" horiz-adv-x="1542" 
d="M913 1102l588 -590l-588 -590l-137 144l346 342h-1061v202h1067l-352 346z" />
    <glyph glyph-name="uni2193" unicode="&#x2193;" horiz-adv-x="1261" 
d="M1221 549l-590 -590l-590 590l139 137l348 -350v1024h203v-1026l350 352z" />
    <glyph glyph-name="uni2196" unicode="&#x2196;" horiz-adv-x="1257" 
d="M127 1061h834v-197h-492l748 -753l-140 -140l-753 746v-490h-197v834z" />
    <glyph glyph-name="uni2197" unicode="&#x2197;" horiz-adv-x="1257" 
d="M297 1061h833v-834h-194v492l-754 -748l-141 140l747 753h-491v197z" />
    <glyph glyph-name="uni2198" unicode="&#x2198;" horiz-adv-x="1257" 
d="M1130 834v-834h-833v195h494l-750 753l141 142l754 -750v494h194z" />
    <glyph glyph-name="uni2199" unicode="&#x2199;" horiz-adv-x="1257" 
d="M127 0v834h197v-492l753 748l140 -142l-750 -753h494v-195h-834z" />
    <glyph glyph-name="uni219E" unicode="&#x219e;" horiz-adv-x="1542" 
d="M41 512l588 590l137 -146l-352 -346h166l491 492l137 -146l-352 -346h625v-202h-621l348 -342l-137 -144l-485 486h-168l348 -342l-137 -144z" />
    <glyph glyph-name="uni219F" unicode="&#x219f;" horiz-adv-x="1261" 
d="M631 1401l590 -590l-140 -137l-350 352v-178l490 -490l-140 -137l-350 352v-573h-203v571l-348 -350l-139 137l487 488v178l-348 -350l-139 137z" />
    <glyph glyph-name="uni21A0" unicode="&#x21a0;" horiz-adv-x="1542" 
d="M913 1102l588 -590l-588 -590l-137 144l346 342h-166l-485 -486l-137 144l346 342h-619v202h625l-352 346l137 146l492 -492h165l-352 346z" />
    <glyph glyph-name="uni21A1" unicode="&#x21a1;" horiz-adv-x="1261" 
d="M1221 549l-590 -590l-590 590l139 137l348 -350v178l-487 487l139 138l348 -351v572h203v-574l350 353l140 -138l-490 -489v-178l350 352z" />
    <glyph glyph-name="uni21A2" unicode="&#x21a2;" horiz-adv-x="1828" 
d="M41 512l590 590l137 -146l-352 -346h745l492 492l135 -146l-447 -444l447 -446l-135 -144l-486 486h-747l348 -342l-137 -144z" />
    <glyph glyph-name="uni21A3" unicode="&#x21a3;" horiz-adv-x="1828" 
d="M1198 1102l590 -590l-590 -590l-137 144l346 342h-745l-486 -486l-135 144l446 446l-446 444l135 146l492 -492h745l-352 346z" />
    <glyph glyph-name="uni21A4" unicode="&#x21a4;" horiz-adv-x="1607" 
d="M1481 1004v-1004h-213v408h-850l348 -342l-137 -144l-588 590l588 590l137 -146l-352 -346h854v394h213z" />
    <glyph glyph-name="uni21A5" unicode="&#x21a5;" horiz-adv-x="1302" 
d="M651 1401l590 -590l-145 -137l-344 350v-817h391v-207h-1004v207h410v815l-342 -348l-146 137z" />
    <glyph glyph-name="uni21A6" unicode="&#x21a6;" horiz-adv-x="1607" 
d="M127 0v1004h213v-394h854l-352 346l137 146l588 -590l-588 -590l-137 144l346 342h-848v-408h-213z" />
    <glyph glyph-name="uni21A7" unicode="&#x21a7;" horiz-adv-x="1302" 
d="M1241 549l-590 -590l-590 590l146 137l342 -348v815h-410v207h1004v-207h-391v-817l344 350z" />
    <glyph glyph-name="partialdiff" unicode="&#x2202;" horiz-adv-x="1128" 
d="M817 463q0 144 -74.5 223.5t-191.5 79.5q-119 0 -189.5 -82t-70.5 -221q0 -142 70 -223.5t190 -81.5q118 0 192 79.5t74 225.5zM551 -25q-220 0 -357 135.5t-137 356.5q0 148 62 259t165.5 166.5t233.5 55.5q98 0 175.5 -37t125.5 -100l2 2q-29 171 -172 278.5
t-356 114.5v185q177 -3 323 -64.5t242 -165t148.5 -241.5t52.5 -295q0 -304 -130.5 -477t-377.5 -173z" />
    <glyph glyph-name="Delta" unicode="&#x2206;" horiz-adv-x="1323" 
d="M-4 0l666 1397l665 -1397h-1331zM1018 197l-356 745l-357 -745h713z" />
    <glyph glyph-name="product" unicode="&#x220f;" horiz-adv-x="1310" 
d="M338 -354h-211v1714h1057v-1714h-213v1511h-633v-1511z" />
    <glyph glyph-name="summation" unicode="&#x2211;" horiz-adv-x="1134" 
d="M49 -168l518 670l-514 672v184h1032v-203h-757l506 -653l-512 -654h763v-202h-1036v186z" />
    <glyph glyph-name="minus" unicode="&#x2212;" horiz-adv-x="1146" 
d="M61 610h1024v-202h-1024v202z" />
    <glyph glyph-name="radical" unicode="&#x221a;" horiz-adv-x="1040" 
d="M0 328l315 155l236 -526l266 1403h223l-342 -1714h-213l-268 565l-131 -66z" />
    <glyph glyph-name="infinity" unicode="&#x221e;" horiz-adv-x="1482" 
d="M1073 811q153 0 250.5 -89.5t97.5 -229.5q0 -143 -95 -233.5t-249 -90.5q-98 0 -178 47t-156 131q-80 -83 -160 -129.5t-177 -46.5q-154 0 -249.5 90t-95.5 232q0 140 97.5 229.5t253.5 89.5q177 0 329 -166q74 81 152.5 123.5t179.5 42.5zM410 365q58 0 106 32.5
t100 96.5q-48 57 -96 89.5t-106 32.5q-63 0 -104.5 -34t-41.5 -90q0 -53 40.5 -90t101.5 -37zM1069 616q-101 0 -201 -124q103 -127 207 -127q60 0 99.5 36.5t39.5 90.5q0 53 -40 88.5t-105 35.5z" />
    <glyph glyph-name="integral" unicode="&#x222b;" horiz-adv-x="651" 
d="M211 342v477q0 561 317 561q77 0 131 -39t54 -110q0 -48 -29 -79.5t-78 -31.5q-41 0 -70.5 28t-29.5 79q0 26 6 47q-50 -6 -68 -64t-18 -168q0 -36 6 -160t6 -259v-439q0 -127 -16 -224t-43 -158t-67 -99t-84.5 -53t-98.5 -15q-78 0 -134 38.5t-56 109.5q0 48 29.5 79.5
t76.5 31.5q41 0 70.5 -27.5t29.5 -77.5q0 -25 -6 -49q50 6 66 62.5t16 168.5q0 31 -5 156t-5 215z" />
    <glyph glyph-name="approxequal" unicode="&#x2248;" horiz-adv-x="1099" 
d="M750 752q116 0 122 131h187q-6 -154 -82.5 -241t-220.5 -87q-52 0 -110 20.5t-101.5 45t-97.5 45t-97 20.5q-117 0 -123 -131h-186q6 153 82.5 240.5t220.5 87.5q59 0 121 -20.5t105 -45t92.5 -45t87.5 -20.5zM750 375q116 0 122 131h187q-6 -154 -82.5 -241t-220.5 -87
q-52 0 -110 20.5t-101.5 45t-97.5 45t-97 20.5q-117 0 -123 -131h-186q6 154 82.5 241t220.5 87q59 0 121 -20.5t105 -45t92.5 -45t87.5 -20.5z" />
    <glyph glyph-name="notequal" unicode="&#x2260;" horiz-adv-x="1167" 
d="M311 211h-209v205h318l98 190h-416v205h525l135 258l172 -88l-90 -170h221v-205h-328l-100 -190h428v-205h-537l-149 -287l-172 86z" />
    <glyph glyph-name="lessequal" unicode="&#x2264;" horiz-adv-x="1212" 
d="M391 633l715 -182v-215l-1002 303v188l1002 307v-217zM102 0v203h1008v-203h-1008z" />
    <glyph glyph-name="greaterequal" unicode="&#x2265;" horiz-adv-x="1212" 
d="M821 633l-715 184v217l1002 -307v-188l-1002 -303v215zM1110 0h-1008v203h1008v-203z" />
    <glyph glyph-name="uni25A0" unicode="&#x25a0;" horiz-adv-x="1257" 
d="M127 0v1004h1003v-1004h-1003z" />
    <glyph glyph-name="uni25A1" unicode="&#x25a1;" horiz-adv-x="1257" 
d="M127 0v1004h1003v-1004h-1003zM252 881v-756h756v756h-756z" />
    <glyph glyph-name="lozenge" unicode="&#x25ca;" horiz-adv-x="1044" 
d="M530 1094l-278 -451l278 -450l277 450zM10 643l518 821l506 -821l-506 -821z" />
    <glyph glyph-name="uni25CB" unicode="&#x25cb;" horiz-adv-x="1163" 
d="M59 498q0 142 70 262.5t190.5 190t262.5 69.5q106 0 203 -41t167 -111t111 -167t41 -203q0 -142 -69.5 -262.5t-190 -190.5t-262.5 -70t-262.5 70t-190.5 190.5t-70 262.5zM582 94q166 0 280.5 117t114.5 287t-114.5 286.5t-280.5 116.5t-281 -116.5t-115 -286.5
q0 -167 115.5 -285.5t280.5 -118.5z" />
    <glyph glyph-name="uni25CF" unicode="&#x25cf;" horiz-adv-x="1163" 
d="M59 498q0 142 70 262.5t190.5 190t262.5 69.5q106 0 203 -41t167 -111t111 -167t41 -203q0 -142 -69.5 -262.5t-190 -190.5t-262.5 -70t-262.5 70t-190.5 190.5t-70 262.5z" />
    <glyph glyph-name="onesuperior" horiz-adv-x="454" 
d="M356 834h-163v557h-173v116q96 3 140 23t71 82h125v-778z" />
    <glyph glyph-name="threesuperior" horiz-adv-x="712" 
d="M352 946q61 0 99 29.5t38 79.5q0 112 -184 112h-31v133h27q81 0 124.5 26.5t43.5 78.5q0 44 -34 68t-83 24q-59 0 -96.5 -34t-46.5 -95l-158 18q18 111 98 174.5t216 63.5q115 0 193.5 -54.5t78.5 -154.5q0 -58 -29.5 -103t-77.5 -69q62 -23 95.5 -73t33.5 -113
q0 -113 -88.5 -175.5t-220.5 -62.5q-134 0 -215 71.5t-92 178.5l158 16q11 -64 49 -101.5t102 -37.5z" />
    <glyph glyph-name="twosuperior" horiz-adv-x="671" 
d="M348 1624q121 0 197 -56t76 -159q0 -38 -11.5 -74t-37.5 -72.5t-53.5 -68t-75 -72t-86 -70.5t-101.5 -77h362v-141h-579v133q29 23 77.5 61t76.5 60t68.5 55.5t63.5 55.5t50.5 51t41.5 51.5t24 47.5t10 48q0 49 -31.5 75.5t-81.5 26.5q-55 0 -92 -37.5t-37 -115.5h-162
q0 127 82 202.5t219 75.5z" />
    <glyph glyph-name="commaaccent" horiz-adv-x="280" 
d="M47 -250v182h193v-194l-84 -170h-115l74 182h-68z" />
    <glyph glyph-name="a.alt" horiz-adv-x="1136" 
d="M1010 1004v-1004h-217l-5 119q-101 -144 -299 -144q-191 0 -310.5 142t-119.5 385q0 237 125.5 379.5t321.5 142.5q180 0 276 -129v109h228zM537 158q116 0 186 89.5t70 254.5q0 162 -69.5 251t-186.5 89t-180.5 -92t-63.5 -250t63.5 -250t180.5 -92z" />
    <glyph glyph-name="aacute.alt" horiz-adv-x="1136" 
d="M860 1360l-270 -242h-174l176 242h268zM1010 1004v-1004h-217l-5 119q-101 -144 -299 -144q-191 0 -310.5 142t-119.5 385q0 237 125.5 379.5t321.5 142.5q180 0 276 -129v109h228zM537 158q116 0 186 89.5t70 254.5q0 162 -69.5 251t-186.5 89t-180.5 -92t-63.5 -250
t63.5 -250t180.5 -92z" />
    <glyph glyph-name="abreve.alt" horiz-adv-x="1136" 
d="M1010 1004v-1004h-217l-5 119q-101 -144 -299 -144q-191 0 -310.5 142t-119.5 385q0 237 125.5 379.5t321.5 142.5q180 0 276 -129v109h228zM537 158q116 0 186 89.5t70 254.5q0 162 -69.5 251t-186.5 89t-180.5 -92t-63.5 -250t63.5 -250t180.5 -92zM883 1360
q-12 -112 -89 -182t-229 -70q-149 0 -225 70.5t-86 181.5h166q7 -57 42.5 -91t104.5 -34q70 0 108 34.5t44 90.5h164z" />
    <glyph glyph-name="acircumflex.alt" horiz-adv-x="1136" 
d="M662 1360l266 -242h-209l-150 113l-153 -113h-207l272 242h181zM1010 1004v-1004h-217l-5 119q-101 -144 -299 -144q-191 0 -310.5 142t-119.5 385q0 237 125.5 379.5t321.5 142.5q180 0 276 -129v109h228zM537 158q116 0 186 89.5t70 254.5q0 162 -69.5 251t-186.5 89
t-180.5 -92t-63.5 -250t63.5 -250t180.5 -92z" />
    <glyph glyph-name="adieresis.alt" horiz-adv-x="1136" 
d="M264 1133v210h201v-210h-201zM713 1343h200v-210h-200v210zM1010 1004v-1004h-217l-5 119q-101 -144 -299 -144q-191 0 -310.5 142t-119.5 385q0 237 125.5 379.5t321.5 142.5q180 0 276 -129v109h228zM537 158q116 0 186 89.5t70 254.5q0 162 -69.5 251t-186.5 89
t-180.5 -92t-63.5 -250t63.5 -250t180.5 -92z" />
    <glyph glyph-name="ae.alt" horiz-adv-x="1818" 
d="M989 119l-4 -119h-192l-5 119q-101 -144 -299 -144q-191 0 -310.5 142t-119.5 385q0 237 125.5 379.5t321.5 142.5q180 0 276 -129v109h213v-109q44 59 115.5 94t165.5 35q157 0 271 -75.5t169.5 -209t46.5 -307.5h-753q3 -124 77.5 -199t190.5 -75q189 0 250 157
l219 -28q-19 -60 -54.5 -113t-90 -99t-135.5 -73t-179 -27q-198 0 -299 144zM537 158q116 0 186 89.5t70 254.5q0 162 -69.5 251t-186.5 89t-180.5 -92t-63.5 -250t63.5 -250t180.5 -92zM1010 600h522q-4 113 -76.5 181.5t-177.5 68.5q-108 0 -185 -63.5t-83 -186.5z" />
    <glyph glyph-name="aeacute.alt" horiz-adv-x="1818" 
d="M989 119l-4 -119h-192l-5 119q-101 -144 -299 -144q-191 0 -310.5 142t-119.5 385q0 237 125.5 379.5t321.5 142.5q180 0 276 -129v109h213v-109q44 59 115.5 94t165.5 35q157 0 271 -75.5t169.5 -209t46.5 -307.5h-753q3 -124 77.5 -199t190.5 -75q189 0 250 157
l219 -28q-19 -60 -54.5 -113t-90 -99t-135.5 -73t-179 -27q-198 0 -299 144zM537 158q116 0 186 89.5t70 254.5q0 162 -69.5 251t-186.5 89t-180.5 -92t-63.5 -250t63.5 -250t180.5 -92zM1010 600h522q-4 113 -76.5 181.5t-177.5 68.5q-108 0 -185 -63.5t-83 -186.5z
M1241 1360l-270 -242h-174l176 242h268z" />
    <glyph glyph-name="agrave.alt" horiz-adv-x="1136" 
d="M1010 1004v-1004h-217l-5 119q-101 -144 -299 -144q-191 0 -310.5 142t-119.5 385q0 237 125.5 379.5t321.5 142.5q180 0 276 -129v109h228zM537 158q116 0 186 89.5t70 254.5q0 162 -69.5 251t-186.5 89t-180.5 -92t-63.5 -250t63.5 -250t180.5 -92zM580 1118l-271 242
h269l178 -242h-176z" />
    <glyph glyph-name="amacron.alt" horiz-adv-x="1136" 
d="M1010 1004v-1004h-217l-5 119q-101 -144 -299 -144q-191 0 -310.5 142t-119.5 385q0 237 125.5 379.5t321.5 142.5q180 0 276 -129v109h228zM537 158q116 0 186 89.5t70 254.5q0 162 -69.5 251t-186.5 89t-180.5 -92t-63.5 -250t63.5 -250t180.5 -92zM870 1155h-585v166
h585v-166z" />
    <glyph glyph-name="aogonek.alt" horiz-adv-x="1136" 
d="M537 158q116 0 186 89.5t70 254.5q0 162 -69.5 251t-186.5 89t-180.5 -92t-63.5 -250t63.5 -250t180.5 -92zM1010 1004v-1004q-81 -40 -123.5 -75t-42.5 -75q0 -37 27.5 -54t70.5 -17q41 0 102 18v-139q-72 -20 -145 -20q-106 0 -181 44.5t-75 131.5q0 55 40.5 103
t109.5 83l-5 119q-101 -144 -299 -144q-191 0 -310.5 142t-119.5 385q0 237 125.5 379.5t321.5 142.5q180 0 276 -129v109h228z" />
    <glyph glyph-name="aring.alt" horiz-adv-x="1136" 
d="M549 1442q74 0 126 -47.5t52 -118.5q0 -72 -51 -119t-127 -47q-74 0 -125 47.5t-51 118.5t51.5 118.5t124.5 47.5zM549 1356q-32 0 -55 -23t-23 -57q0 -33 22.5 -55.5t55.5 -22.5t56.5 22.5t23.5 55.5t-23.5 56.5t-56.5 23.5zM1010 1004v-1004h-217l-5 119
q-101 -144 -299 -144q-191 0 -310.5 142t-119.5 385q0 237 125.5 379.5t321.5 142.5q180 0 276 -129v109h228zM537 158q116 0 186 89.5t70 254.5q0 162 -69.5 251t-186.5 89t-180.5 -92t-63.5 -250t63.5 -250t180.5 -92z" />
    <glyph glyph-name="aringacute.alt" horiz-adv-x="1136" 
d="M834 1581l-207 -201q42 -21 67 -59t25 -86q0 -72 -51 -119t-127 -47q-74 0 -125 47.5t-51 118.5q0 52 38 111l162 235h269zM541 1315q-32 0 -55 -23t-23 -57q0 -33 22.5 -55.5t55.5 -22.5t56.5 22.5t23.5 55.5t-23.5 56.5t-56.5 23.5zM1010 1004v-1004h-217l-5 119
q-101 -144 -299 -144q-191 0 -310.5 142t-119.5 385q0 237 125.5 379.5t321.5 142.5q180 0 276 -129v109h228zM537 158q116 0 186 89.5t70 254.5q0 162 -69.5 251t-186.5 89t-180.5 -92t-63.5 -250t63.5 -250t180.5 -92z" />
    <glyph glyph-name="atilde.alt" horiz-adv-x="1136" 
d="M1010 1004v-1004h-217l-5 119q-101 -144 -299 -144q-191 0 -310.5 142t-119.5 385q0 237 125.5 379.5t321.5 142.5q180 0 276 -129v109h228zM537 158q116 0 186 89.5t70 254.5q0 162 -69.5 251t-186.5 89t-180.5 -92t-63.5 -250t63.5 -250t180.5 -92zM678 1274
q79 0 94 84h162q-11 -71 -38.5 -121.5t-64 -75t-71.5 -35t-72 -10.5q-40 0 -77.5 13.5t-61 29.5t-52.5 29.5t-55 13.5q-77 0 -92 -84h-162q11 69 38 119t63.5 75.5t72 36.5t72.5 11q51 0 94.5 -21.5t79.5 -43t70 -21.5z" />
    <glyph glyph-name="uni0227.alt" horiz-adv-x="1136" 
d="M1010 1004v-1004h-217l-5 119q-101 -144 -299 -144q-191 0 -310.5 142t-119.5 385q0 237 125.5 379.5t321.5 142.5q180 0 276 -129v109h228zM537 158q116 0 186 89.5t70 254.5q0 162 -69.5 251t-186.5 89t-180.5 -92t-63.5 -250t63.5 -250t180.5 -92zM467 1343h201v-210
h-201v210z" />
    <glyph glyph-name="uni1EA1.alt" horiz-adv-x="1136" 
d="M1010 1004v-1004h-217l-5 119q-101 -144 -299 -144q-191 0 -310.5 142t-119.5 385q0 237 125.5 379.5t321.5 142.5q180 0 276 -129v109h228zM537 158q116 0 186 89.5t70 254.5q0 162 -69.5 251t-186.5 89t-180.5 -92t-63.5 -250t63.5 -250t180.5 -92zM457 -86h200v-211
h-200v211z" />
    <glyph glyph-name="l.alt" horiz-adv-x="499" 
d="M113 268v1092h227v-1051q0 -79 21.5 -104t91.5 -25h39v-180h-121q-84 0 -133 11.5t-78 44.5t-38 81t-9 131z" />
    <glyph glyph-name="lacute.alt" horiz-adv-x="499" 
d="M113 268v1092h227v-1051q0 -79 21.5 -104t91.5 -25h39v-180h-121q-84 0 -133 11.5t-78 44.5t-38 81t-9 131zM608 1645l-295 -215h-198l200 215h293z" />
    <glyph glyph-name="lcaron.alt" horiz-adv-x="610" 
d="M680 1360l-133 -324h-148l58 324h223zM113 268v1092h227v-1051q0 -79 21.5 -104t91.5 -25h39v-180h-121q-84 0 -133 11.5t-78 44.5t-38 81t-9 131z" />
    <glyph glyph-name="lcommaaccent.alt" horiz-adv-x="499" 
d="M141 -250v182h193v-194l-84 -170h-115l74 182h-68zM113 268v1092h227v-1051q0 -79 21.5 -104t91.5 -25h39v-180h-121q-84 0 -133 11.5t-78 44.5t-38 81t-9 131z" />
    <glyph glyph-name="ldot.alt" horiz-adv-x="499" 
d="M113 1430v210h227v-210h-227zM113 268v1092h227v-1051q0 -79 21.5 -104t91.5 -25h39v-180h-121q-84 0 -133 11.5t-78 44.5t-38 81t-9 131z" />
    <glyph glyph-name="lslash.alt" horiz-adv-x="524" 
d="M-14 487v187l137 84v602h227v-465l139 86v-186l-139 -86v-400q0 -79 21.5 -104t91.5 -25h39v-180h-121q-84 0 -133 11.5t-78 44.5t-38 81t-9 131v303z" />
    <glyph glyph-name="zero.plf" horiz-adv-x="1249" 
d="M625 -25q-269 0 -409 190.5t-140 518.5q0 214 59.5 369t184 243t305.5 88q180 0 304.5 -87.5t184.5 -243t60 -369.5q0 -327 -140.5 -518t-408.5 -191zM625 158q151 0 232 133.5t81 392.5q0 258 -81 388t-232 130t-232.5 -130.5t-81.5 -387.5q0 -258 81.5 -392t232.5 -134
z" />
    <glyph glyph-name="zeroslashed.plf" horiz-adv-x="1249" 
d="M625 -25q-269 0 -409 190.5t-140 518.5q0 214 59.5 369t184 243t305.5 88q180 0 304.5 -87.5t184.5 -243t60 -369.5q0 -327 -140.5 -518t-408.5 -191zM625 158q151 0 232 133.5t81 392.5q0 7 -1 22.5t-1 22.5l-608 -256q29 -156 105 -235.5t192 -79.5zM311 684v-37
l607 254q-58 301 -293 301q-151 0 -232.5 -130.5t-81.5 -387.5z" />
    <glyph glyph-name="one.plf" horiz-adv-x="677" 
d="M535 0h-228v1030h-307v156q85 3 134 8.5t97 23.5t79 52t57 90h168v-1360z" />
    <glyph glyph-name="two.plf" horiz-adv-x="1093" 
d="M567 1384q197 0 323 -97t126 -269q0 -53 -12.5 -104.5t-41 -103.5t-60.5 -98.5t-84.5 -101.5t-98 -98.5t-117.5 -102.5t-126 -102t-138 -108h711v-199h-1006v186q90 71 147.5 116t131 105t118.5 100t99 90.5t86 87.5t65.5 80.5t50.5 80.5t28 76t11 77q0 96 -60.5 151.5
t-162.5 55.5q-52 0 -96 -15.5t-81.5 -47.5t-59 -89.5t-21.5 -135.5l-225 2q-3 209 133.5 336.5t359.5 127.5z" />
    <glyph glyph-name="three.plf" horiz-adv-x="1144" 
d="M555 158q124 0 202.5 59.5t78.5 165.5q0 84 -50.5 137.5t-129.5 74.5t-187 21h-45v187h37q164 0 252 52.5t88 156.5q0 92 -69 141t-171 49q-122 0 -194 -67.5t-88 -180.5l-222 23q27 187 160 297t356 110q90 0 169.5 -20.5t146 -62t105 -112.5t38.5 -163
q0 -100 -54.5 -181t-146.5 -124q119 -44 178.5 -133.5t59.5 -200.5q0 -100 -42 -180t-114 -130t-164.5 -76t-197.5 -26q-116 0 -210 35t-155.5 94.5t-98 134.5t-46.5 160l221 23q18 -120 91 -192t202 -72z" />
    <glyph glyph-name="four.plf" horiz-adv-x="1179" 
d="M696 1065l-434 -545h434v545zM1165 520v-196h-241v-324h-228v324h-682v188l684 848h226v-840h241z" />
    <glyph glyph-name="five.plf" horiz-adv-x="1148" 
d="M567 158q120 0 196.5 75.5t76.5 210.5q0 74 -24 132t-64.5 92t-89 51.5t-101.5 17.5q-90 0 -157 -40t-91 -95l-213 10l90 748h828v-201h-641l-43 -325q107 86 284 86q90 0 171.5 -31t145 -89t101 -149.5t37.5 -204.5q0 -112 -41 -202.5t-111.5 -148.5t-162 -89
t-195.5 -31q-116 0 -210 36t-154 97t-94.5 134.5t-43.5 154.5l220 25q44 -264 286 -264z" />
    <glyph glyph-name="six.plf" horiz-adv-x="1173" 
d="M324 438q0 -128 75 -204t195 -76t195 76t75 204q0 125 -75 203t-193 78q-119 0 -195.5 -78t-76.5 -203zM608 1202q-140 0 -220 -120.5t-83 -331.5q49 69 134.5 111t199.5 42q197 0 328 -127t131 -336q0 -203 -140 -334t-362 -131q-132 0 -232.5 47.5t-163 136t-93.5 209
t-31 271.5q0 122 18 229t59.5 203t104 164.5t157 108.5t212.5 40q104 0 188 -31.5t136.5 -84.5t82.5 -115.5t37 -130.5l-229 -2q-12 86 -75.5 134t-158.5 48z" />
    <glyph glyph-name="seven.plf" horiz-adv-x="948" 
d="M-6 1159v201h991v-201q-183 -173 -299.5 -337.5t-186.5 -368.5t-85 -453h-256q34 656 587 1159h-751z" />
    <glyph glyph-name="eight.plf" horiz-adv-x="1206" 
d="M602 1384q214 0 343.5 -98t129.5 -252q0 -93 -43.5 -174.5t-132.5 -132.5q219 -112 219 -342q0 -193 -145 -301.5t-371 -108.5q-225 0 -369.5 108.5t-144.5 301.5q0 233 219 342q-88 47 -133 130.5t-45 176.5q0 154 129.5 252t343.5 98zM602 629q-127 0 -202.5 -65
t-75.5 -171q0 -107 75.5 -171t202.5 -64q129 0 205 64t76 171q0 106 -76.5 171t-204.5 65zM852 1008q0 89 -68 141.5t-182 52.5q-113 0 -181.5 -52.5t-68.5 -141.5q0 -90 69.5 -148.5t180.5 -58.5q113 0 181.5 58.5t68.5 148.5z" />
    <glyph glyph-name="nine.plf" horiz-adv-x="1159" 
d="M838 924q0 127 -75.5 202.5t-197.5 75.5q-119 0 -193.5 -75.5t-74.5 -202.5q0 -126 74.5 -204.5t193.5 -78.5t196 79t77 204zM551 158q141 0 221.5 120.5t83.5 331.5q-49 -69 -133 -111t-197 -42q-200 0 -331.5 127t-131.5 336q0 202 138.5 333t361.5 131
q135 0 235.5 -46t162.5 -133t92 -207.5t30 -276.5q0 -121 -17.5 -227.5t-59 -203t-103 -165.5t-155.5 -109.5t-211 -40.5q-104 0 -188.5 32t-137.5 85t-84 115.5t-39 130.5l229 2q13 -86 76.5 -134t157.5 -48z" />
    <glyph glyph-name="zero.pof" horiz-adv-x="1198" 
d="M598 -23q-256 0 -389 173t-133 473q0 299 132.5 469t389.5 170t390.5 -170t133.5 -469q0 -300 -134 -473t-390 -173zM598 160q140 0 214.5 117t74.5 346q0 230 -74.5 344t-214.5 114q-139 0 -214 -114.5t-75 -343.5t75 -346t214 -117z" />
    <glyph glyph-name="zeroslashed.pof" horiz-adv-x="1198" 
d="M598 -23q-256 0 -389 173t-133 473q0 299 132.5 469t389.5 170t390.5 -170t133.5 -469q0 -300 -134 -473t-390 -173zM598 160q140 0 214.5 117t74.5 346q0 6 -1 18t-1 18l-557 -235q56 -264 270 -264zM309 623v-25l555 233q-58 250 -266 250q-139 0 -214 -114.5
t-75 -343.5z" />
    <glyph glyph-name="one.pof" horiz-adv-x="659" 
d="M516 0h-227v915h-289v158q155 5 229 37.5t119 132.5h168v-1243z" />
    <glyph glyph-name="two.pof" horiz-adv-x="1046" 
d="M543 1262q190 0 311 -90t121 -250q0 -74 -33 -149t-84 -140.5t-138 -143.5t-169 -141t-203 -149h653v-199h-958v188q136 100 201 148.5t164 126t144.5 124t97 106.5t70.5 110t19 100q0 85 -56 132.5t-151 47.5q-101 0 -169 -61.5t-68 -196.5l-225 2q-3 197 128 316
t345 119z" />
    <glyph glyph-name="three.pof" horiz-adv-x="1097" 
d="M535 160q111 0 182 50t71 140q0 201 -335 201h-50v186h43q150 0 231 45.5t81 135.5q0 79 -62.5 121t-156.5 42q-112 0 -180 -56t-83 -155l-221 23q25 171 155.5 270t338.5 99q86 0 163 -18.5t140.5 -56.5t101 -102.5t37.5 -148.5q0 -91 -52 -165.5t-138 -113.5
q111 -39 166 -121t55 -182q0 -122 -70 -209.5t-179 -127.5t-243 -40q-212 0 -340 109t-149 279l221 22q16 -103 86.5 -165t186.5 -62z" />
    <glyph glyph-name="four.pof" horiz-adv-x="1118" 
d="M655 946l-391 -457h391v457zM1104 489v-202h-221v-287h-228v287h-641v188l648 766h221v-752h221z" />
    <glyph glyph-name="five.pof" horiz-adv-x="1110" 
d="M547 160q112 0 183 65t71 183q0 121 -76.5 185t-181.5 64q-84 0 -146.5 -33t-85.5 -83l-213 14l86 686h797v-199h-610l-37 -276q100 76 266 76q86 0 163 -28t138 -80.5t97 -136.5t36 -187t-39 -186.5t-106.5 -136.5t-155.5 -81.5t-188 -28.5q-108 0 -196.5 31.5
t-147.5 85t-94.5 121.5t-45.5 145l222 27q18 -105 83.5 -166t180.5 -61z" />
    <glyph glyph-name="six.pof" horiz-adv-x="1126" 
d="M322 401q0 -110 68 -175.5t179 -65.5q110 0 179 66.5t69 174.5q0 107 -69.5 175.5t-176.5 68.5q-110 0 -179.5 -67.5t-69.5 -176.5zM584 1081q-129 0 -202.5 -100.5t-74.5 -280.5q46 58 125 93.5t184 35.5q184 0 309.5 -118.5t125.5 -309.5q0 -188 -133.5 -306
t-346.5 -118q-247 0 -371 164.5t-124 444.5q0 110 17.5 207.5t57.5 184t100 149t149.5 99t201.5 36.5q100 0 180 -28.5t130.5 -77t79.5 -107.5t36 -125l-229 -2q-10 77 -68 118t-147 41z" />
    <glyph glyph-name="seven.pof" horiz-adv-x="856" 
d="M-6 1042v199h940v-194q-176 -157 -286 -304t-175.5 -331t-77.5 -412h-254q27 597 549 1042h-696z" />
    <glyph glyph-name="eight.pof" horiz-adv-x="1155" 
d="M578 1262q203 0 326.5 -91.5t123.5 -230.5q0 -83 -40 -156t-122 -120q201 -103 201 -310q0 -176 -137.5 -276.5t-351.5 -100.5t-352 100.5t-138 276.5q0 207 201 310q-80 46 -121 119t-41 157q0 139 124 230.5t327 91.5zM578 565q-118 0 -187 -55t-69 -148
q0 -91 69 -146.5t187 -55.5q117 0 186.5 55.5t69.5 146.5q0 92 -69.5 147.5t-186.5 55.5zM805 915q0 75 -62 120.5t-165 45.5t-165.5 -45.5t-62.5 -120.5q0 -76 63.5 -126t164.5 -50t164 50t63 126z" />
    <glyph glyph-name="nine.pof" horiz-adv-x="1112" 
d="M793 838q0 110 -69.5 176.5t-180.5 66.5q-109 0 -177.5 -66.5t-68.5 -176.5q0 -106 69 -174t177 -68q109 0 179.5 67.5t70.5 174.5zM528 158q129 0 203.5 100.5t75.5 280.5q-46 -57 -123.5 -92t-181.5 -35q-187 0 -313 116.5t-126 305.5q0 188 131 308t343 120
q130 0 227 -44t156 -126t87.5 -191.5t28.5 -247.5q0 -110 -17 -207t-56.5 -184.5t-98.5 -149.5t-148 -98.5t-200 -36.5q-101 0 -182 29t-132 78t-80 108t-36 125l227 2q12 -79 69.5 -120t145.5 -41z" />
    <glyph glyph-name="zero.tlf" horiz-adv-x="1290" 
d="M645 -25q-269 0 -409 190.5t-140 518.5q0 214 59.5 369t184 243t305.5 88q180 0 304.5 -87.5t184.5 -243t60 -369.5q0 -327 -140.5 -518t-408.5 -191zM645 158q151 0 232 133.5t81 392.5q0 258 -81 388t-232 130t-232 -130t-81 -388q0 -259 81 -392.5t232 -133.5z" />
    <glyph glyph-name="zeroslashed.tlf" horiz-adv-x="1290" 
d="M645 -25q-269 0 -409 190.5t-140 518.5q0 214 59.5 369t184 243t305.5 88q180 0 304.5 -87.5t184.5 -243t60 -369.5q0 -327 -140.5 -518t-408.5 -191zM645 158q151 0 232 133.5t81 392.5q0 7 -1 22.5t-1 22.5l-608 -256q29 -156 105 -235.5t192 -79.5zM332 684v-37
l606 254q-58 301 -293 301q-151 0 -232 -130t-81 -388z" />
    <glyph glyph-name="one.tlf" horiz-adv-x="1290" 
d="M770 193h317v-193h-886v193h342v837h-340v156q70 2 115 6t94 14.5t81 28.5t61 49t48 76h168v-1167z" />
    <glyph glyph-name="two.tlf" horiz-adv-x="1290" 
d="M666 1384q197 0 322.5 -97t125.5 -269q0 -53 -12.5 -104.5t-41 -103.5t-60.5 -98.5t-84.5 -101.5t-98 -98.5t-117.5 -102.5t-126 -102t-138 -108h711v-199h-1006v186q91 71 147.5 116t130.5 105t119 99.5t99.5 90.5t86.5 88t65.5 81t50.5 80.5t28 75.5t11 77
q0 96 -61 151.5t-163 55.5q-52 0 -96 -15.5t-81.5 -47.5t-59 -89.5t-21.5 -135.5l-225 2q-3 209 134 336.5t360 127.5z" />
    <glyph glyph-name="three.tlf" horiz-adv-x="1290" 
d="M645 158q124 0 202.5 59.5t78.5 165.5q0 84 -50.5 137.5t-129.5 74.5t-187 21h-45v187h37q164 0 252 52.5t88 156.5q0 92 -69 141t-171 49q-122 0 -194 -67.5t-88 -180.5l-222 23q27 187 160.5 297t356.5 110q90 0 169.5 -20.5t145.5 -62t104.5 -112.5t38.5 -163
q0 -100 -54 -181t-146 -124q119 -44 178 -133.5t59 -200.5q0 -100 -42 -180t-114 -130t-164.5 -76t-197.5 -26q-116 0 -210 35t-155.5 94.5t-98 134.5t-46.5 160l221 23q18 -120 91 -192t202 -72z" />
    <glyph glyph-name="four.tlf" horiz-adv-x="1290" 
d="M752 1065l-435 -545h435v545zM1221 520v-196h-242v-324h-227v324h-682v188l684 848h225v-840h242z" />
    <glyph glyph-name="five.tlf" horiz-adv-x="1290" 
d="M645 158q120 0 196.5 75.5t76.5 210.5q0 74 -24 132t-64.5 92t-89 51.5t-101.5 17.5q-90 0 -157 -40t-91 -95l-213 10l90 748h828v-201h-641l-43 -325q107 86 284 86q90 0 171.5 -31t145 -89t101 -149.5t37.5 -204.5q0 -112 -41 -202.5t-111.5 -148.5t-162 -89
t-195.5 -31q-116 0 -210 36t-154 97t-94.5 134.5t-43.5 154.5l219 25q20 -122 89.5 -193t197.5 -71z" />
    <glyph glyph-name="six.tlf" horiz-adv-x="1290" 
d="M381 438q0 -128 75 -204t195 -76t195.5 76.5t75.5 203.5q0 125 -75.5 203t-193.5 78q-119 0 -195.5 -78t-76.5 -203zM666 1202q-140 0 -220.5 -121t-83.5 -331q49 69 134.5 111t199.5 42q197 0 328 -127t131 -336q0 -203 -140 -334t-362 -131q-132 0 -232.5 47.5
t-163 136t-93.5 209t-31 271.5q0 122 18 229t59.5 203t104 164.5t157 108.5t212.5 40q104 0 188 -31.5t136.5 -84.5t82.5 -115.5t37 -130.5l-229 -2q-12 86 -75 134t-158 48z" />
    <glyph glyph-name="seven.tlf" horiz-adv-x="1290" 
d="M150 1159v201h991v-201q-183 -173 -299.5 -337t-187 -368.5t-85.5 -453.5h-256q34 655 588 1159h-751z" />
    <glyph glyph-name="eight.tlf" horiz-adv-x="1290" 
d="M643 1384q214 0 343.5 -98t129.5 -252q0 -93 -43.5 -174.5t-132.5 -132.5q219 -112 219 -342q0 -193 -145 -301.5t-371 -108.5q-225 0 -369.5 108.5t-144.5 301.5q0 233 219 342q-88 47 -133 130.5t-45 176.5q0 154 129.5 252t343.5 98zM643 629q-127 0 -202.5 -65
t-75.5 -171q0 -107 75.5 -171t202.5 -64q129 0 205 64t76 171q0 106 -76.5 171t-204.5 65zM893 1008q0 89 -68 141.5t-182 52.5q-113 0 -181.5 -52.5t-68.5 -141.5q0 -90 69.5 -148.5t180.5 -58.5q113 0 181.5 58.5t68.5 148.5z" />
    <glyph glyph-name="nine.tlf" horiz-adv-x="1290" 
d="M909 924q0 128 -75.5 203t-196.5 75q-119 0 -193.5 -75.5t-74.5 -202.5q0 -126 74.5 -204.5t193.5 -78.5t195.5 79t76.5 204zM623 158q141 0 221.5 120.5t83.5 331.5q-49 -69 -133 -111t-197 -42q-200 0 -331.5 127t-131.5 336q0 202 138.5 333t361.5 131
q135 0 235.5 -46t162.5 -133t92 -207.5t30 -276.5q0 -121 -18 -227.5t-59 -203t-103 -165.5t-156 -109.5t-211 -40.5q-104 0 -188.5 32t-137.5 85t-83.5 115.5t-38.5 130.5l229 2q13 -86 76.5 -134t157.5 -48z" />
    <glyph glyph-name="zeroslashed.superior" horiz-adv-x="763" 
d="M383 819q-158 0 -240 108t-82 296q0 187 82 294t240 107q157 0 239.5 -107t82.5 -294t-83 -295.5t-239 -108.5zM383 1497q-146 0 -152 -250l297 70q-23 180 -145 180zM383 946q143 0 152 246l-297 -70q23 -176 145 -176z" />
    <glyph glyph-name="zeroslashed.inferior" horiz-adv-x="763" 
d="M383 -260q-158 0 -240 107.5t-82 295.5t82 295t240 107q157 0 239.5 -107.5t82.5 -294.5t-82.5 -295t-239.5 -108zM383 418q-146 0 -152 -250l297 70q-23 180 -145 180zM383 -133q143 0 152 244l-297 -70q23 -174 145 -174z" />
    <glyph glyph-name="zero.denominator" horiz-adv-x="763" 
d="M383 -14q-158 0 -240 107.5t-82 295.5t82 295t240 107q157 0 239.5 -107.5t82.5 -294.5t-82.5 -295t-239.5 -108zM383 113q152 0 152 276q0 275 -152 275t-152 -275q0 -276 152 -276z" />
    <glyph glyph-name="zeroslashed.denominator" horiz-adv-x="763" 
d="M383 -14q-158 0 -240 107.5t-82 295.5t82 295t240 107q157 0 239.5 -107.5t82.5 -294.5t-82.5 -295t-239.5 -108zM383 664q-146 0 -152 -250l297 69q-24 181 -145 181zM383 113q143 0 152 243l-297 -69q23 -174 145 -174z" />
    <glyph glyph-name="one.denominator" horiz-adv-x="454" 
d="M356 0h-163v557h-173v117q66 2 102 9.5t63.5 30t45.5 64.5h125v-778z" />
    <glyph glyph-name="two.denominator" horiz-adv-x="671" 
d="M348 791q121 0 197 -56.5t76 -159.5q0 -38 -11.5 -74t-37.5 -72.5t-53.5 -68t-75 -72t-86 -70.5t-101.5 -77h362v-141h-579v133q29 23 77.5 61t76.5 60t68.5 55.5t63.5 55.5t50.5 51t41.5 51.5t24 47.5t10 48q0 49 -32 76t-81 27q-55 0 -92 -38t-37 -116h-162
q0 127 82 203t219 76z" />
    <glyph glyph-name="three.denominator" horiz-adv-x="712" 
d="M352 113q61 0 99 29t38 79q0 113 -184 113h-31v133h27q168 0 168 104q0 44 -34 68.5t-83 24.5q-59 0 -96.5 -34t-46.5 -95l-158 18q18 111 98 174.5t216 63.5q115 0 193.5 -54.5t78.5 -154.5q0 -58 -29.5 -103t-77.5 -69q62 -23 95.5 -73.5t33.5 -113.5
q0 -113 -88.5 -175t-220.5 -62q-134 0 -215 71.5t-92 178.5l158 16q11 -64 49 -101.5t102 -37.5z" />
    <glyph glyph-name="four.denominator" horiz-adv-x="739" 
d="M414 567l-209 -254h209v254zM709 313v-143h-131v-170h-164v170h-381v133l391 473h154v-463h131z" />
    <glyph glyph-name="five.denominator" horiz-adv-x="716" 
d="M356 113q63 0 100.5 37.5t37.5 105.5q0 69 -40 107t-98 38q-49 0 -83.5 -20t-47.5 -51l-151 10l53 436h500v-141h-363l-20 -154q63 49 162 49q109 0 183.5 -72.5t74.5 -199.5q0 -128 -86 -200t-220 -72q-132 0 -212 69t-93 176l158 21q10 -63 45.5 -101t99.5 -38z" />
    <glyph glyph-name="six.denominator" horiz-adv-x="714" 
d="M227 254q0 -65 37.5 -103t97.5 -38q57 0 94.5 38.5t37.5 102.5q0 62 -37.5 100.5t-94.5 38.5q-59 0 -97 -38.5t-38 -100.5zM369 664q-68 0 -109.5 -58t-42.5 -157q61 71 182 71q110 0 187.5 -71.5t77.5 -194.5t-84 -195.5t-218 -72.5q-153 0 -231 103.5t-78 279.5
q0 88 18.5 162t56.5 133.5t102 93t149 33.5q123 0 192 -64t76 -154l-160 -2q-6 43 -38.5 68t-79.5 25z" />
    <glyph glyph-name="seven.denominator" horiz-adv-x="614" 
d="M23 635v141h589v-137q-162 -144 -237.5 -289t-81.5 -350h-182q4 189 94.5 350t234.5 285h-417z" />
    <glyph glyph-name="eight.denominator" horiz-adv-x="720" 
d="M360 791q128 0 204.5 -58.5t76.5 -146.5q0 -114 -90 -170q115 -64 115 -193q0 -108 -86 -172.5t-220 -64.5q-133 0 -218 64.5t-85 172.5q0 128 113 193q-42 27 -66 73t-24 97q0 87 76.5 146t203.5 59zM360 348q-61 0 -98 -32t-37 -85q0 -54 36.5 -86t98.5 -32
q63 0 100.5 32t37.5 86q0 53 -37.5 85t-100.5 32zM479 565q0 45 -32 72t-87 27q-53 0 -84.5 -27t-31.5 -72q0 -44 31.5 -73t84.5 -29q54 0 86.5 29t32.5 73z" />
    <glyph glyph-name="nine.denominator" horiz-adv-x="708" 
d="M485 522q0 65 -38.5 103.5t-96.5 38.5q-59 0 -96 -38t-37 -104q0 -62 37.5 -100.5t95.5 -38.5t96.5 38.5t38.5 100.5zM342 113q69 0 110.5 58t41.5 157q-62 -72 -181 -72q-110 0 -188 71t-78 193t82.5 196.5t214.5 74.5q158 0 235.5 -102.5t77.5 -280.5q0 -88 -18 -162
t-55.5 -133.5t-101 -93t-148.5 -33.5q-123 0 -193 64t-75 153l157 2q6 -43 39 -67.5t80 -24.5z" />
    <glyph glyph-name="zero.numerator" horiz-adv-x="763" 
d="M383 569q-158 0 -240 108t-82 296q0 187 82 294t240 107q157 0 239.5 -107t82.5 -294t-83 -295.5t-239 -108.5zM383 696q152 0 152 277q0 274 -152 274t-152 -274q0 -277 152 -277z" />
    <glyph glyph-name="zeroslashed.numerator" horiz-adv-x="763" 
d="M383 569q-158 0 -240 108t-82 296q0 187 82 294t240 107q157 0 239.5 -107t82.5 -294t-83 -295.5t-239 -108.5zM383 1247q-146 0 -152 -250l297 70q-23 180 -145 180zM383 696q143 0 152 244l-297 -70q23 -174 145 -174z" />
    <glyph glyph-name="one.numerator" horiz-adv-x="454" 
d="M356 584h-163v557h-173v116q96 3 140 23t71 82h125v-778z" />
    <glyph glyph-name="two.numerator" horiz-adv-x="671" 
d="M348 1374q121 0 197 -56t76 -159q0 -38 -11.5 -74t-37.5 -72.5t-53.5 -68t-75 -72t-86 -70.5t-101.5 -77h362v-141h-579v133q29 23 77.5 61t76.5 60t68.5 55.5t63.5 55.5t50.5 51t41.5 51.5t24 47.5t10 48q0 49 -31.5 75.5t-81.5 26.5q-55 0 -92 -37.5t-37 -115.5h-162
q0 127 82 202.5t219 75.5z" />
    <glyph glyph-name="three.numerator" horiz-adv-x="712" 
d="M352 696q61 0 99 29.5t38 79.5q0 113 -184 113h-31v133h27q168 0 168 104q0 44 -34 68t-83 24q-59 0 -96.5 -34t-46.5 -95l-158 19q18 110 98 173.5t216 63.5q115 0 193.5 -54.5t78.5 -154.5q0 -58 -29.5 -103t-77.5 -69q62 -23 95.5 -73t33.5 -113q0 -113 -88.5 -175.5
t-220.5 -62.5q-134 0 -215 71.5t-92 178.5l158 17q11 -64 49 -102t102 -38z" />
    <glyph glyph-name="four.numerator" horiz-adv-x="739" 
d="M414 1151l-209 -254h209v254zM709 897v-143h-131v-170h-164v170h-381v133l391 473h154v-463h131z" />
    <glyph glyph-name="five.numerator" horiz-adv-x="716" 
d="M356 696q63 0 100.5 38t37.5 106q0 69 -40 107t-98 38q-49 0 -83.5 -20.5t-47.5 -51.5l-151 11l53 436h500v-141h-363l-20 -154q63 49 162 49q109 0 183.5 -72.5t74.5 -199.5q0 -128 -86 -200.5t-220 -72.5q-132 0 -212 69.5t-93 176.5l158 21q10 -63 45.5 -101.5
t99.5 -38.5z" />
    <glyph glyph-name="six.numerator" horiz-adv-x="714" 
d="M227 838q0 -65 37.5 -103.5t97.5 -38.5q57 0 94.5 38.5t37.5 103.5q0 62 -37.5 100.5t-94.5 38.5q-59 0 -97 -38.5t-38 -100.5zM369 1247q-68 0 -109.5 -58t-42.5 -157q62 72 182 72q110 0 187.5 -71.5t77.5 -194.5t-84 -196t-218 -73q-153 0 -231 103.5t-78 279.5
q0 88 18.5 162t56.5 133.5t102 93t149 33.5q123 0 192 -63.5t76 -153.5l-160 -2q-6 43 -38.5 67.5t-79.5 24.5z" />
    <glyph glyph-name="seven.numerator" horiz-adv-x="614" 
d="M23 1219v141h589v-137q-162 -144 -237.5 -289t-81.5 -350h-182q4 189 94.5 350t234.5 285h-417z" />
    <glyph glyph-name="eight.numerator" horiz-adv-x="720" 
d="M360 1374q128 0 204.5 -58.5t76.5 -146.5q0 -114 -90 -170q115 -64 115 -192q0 -108 -86 -173t-220 -65q-133 0 -218 65t-85 173q0 127 113 192q-42 27 -66 73t-24 97q0 87 76.5 146t203.5 59zM360 932q-61 0 -98 -32t-37 -85q0 -54 37 -86.5t98 -32.5q63 0 100.5 32.5
t37.5 86.5q0 53 -37.5 85t-100.5 32zM479 1149q0 45 -32 71.5t-87 26.5q-54 0 -85 -26.5t-31 -71.5q0 -44 31.5 -73t84.5 -29q54 0 86.5 29t32.5 73z" />
    <glyph glyph-name="nine.numerator" horiz-adv-x="708" 
d="M485 1106q0 64 -38.5 102.5t-96.5 38.5q-59 0 -96 -37.5t-37 -103.5q0 -62 37.5 -100.5t95.5 -38.5t96.5 38.5t38.5 100.5zM342 696q69 0 110.5 58t41.5 157q-61 -71 -181 -71q-110 0 -188 71t-78 193t82.5 196t214.5 74q158 0 235.5 -102.5t77.5 -280.5q0 -88 -18 -162
t-55.5 -133.5t-101 -93t-148.5 -33.5q-123 0 -193 64t-75 153l157 2q6 -43 39 -67.5t80 -24.5z" />
    <glyph glyph-name="a.superior" horiz-adv-x="657" 
d="M221 1227l-153 2q9 90 77.5 141t192.5 51q129 0 189 -53.5t59 -169.5q-4 -78 -4 -158q0 -98 12 -206h-152l-2 63q-56 -78 -180 -78q-96 0 -153.5 56t-57.5 133q0 80 55 122q65 50 226 64l92 10v19q0 82 -96 82q-45 0 -73.5 -20t-31.5 -58zM426 1061v35l-92 -9
q-62 -7 -89.5 -25.5t-27.5 -49.5q0 -30 23 -51t61 -21q54 0 89.5 31t35.5 90z" />
    <glyph glyph-name="b.superior" horiz-adv-x="702" 
d="M86 834v776h166v-262q52 71 158 71q108 0 176.5 -80.5t68.5 -220.5q0 -136 -72 -217.5t-182 -81.5q-98 0 -151 70l-2 -55h-162zM369 1292q-57 0 -90 -47t-33 -127q0 -77 33.5 -124.5t89.5 -47.5t87 48.5t31 125.5q0 76 -30.5 124t-87.5 48z" />
    <glyph glyph-name="c.superior" horiz-adv-x="661" 
d="M342 1419q104 0 177.5 -53t96.5 -149l-155 -25q-8 45 -38 72.5t-79 27.5q-60 0 -93.5 -45t-33.5 -127q0 -83 34 -129.5t93 -46.5q46 0 78.5 25.5t42.5 79.5l156 -23q-24 -98 -100.5 -152.5t-182.5 -54.5q-137 0 -213 82t-76 217t79 218t214 83z" />
    <glyph glyph-name="d.superior" horiz-adv-x="706" 
d="M623 1610v-776h-164v61q-51 -76 -162 -76q-108 0 -177 81t-69 220q0 135 72 217t182 82q99 0 152 -67v258h166zM338 946q57 0 91 47.5t34 126.5q0 77 -33.5 124.5t-91.5 47.5q-57 0 -87 -48t-30 -126q0 -77 30 -124.5t87 -47.5z" />
    <glyph glyph-name="e.superior" horiz-adv-x="679" 
d="M346 819q-142 0 -219.5 84.5t-77.5 218.5q0 132 80.5 214.5t212.5 82.5q144 0 221 -94t68 -252h-418q3 -58 39.5 -93.5t93.5 -35.5q91 0 121 80l156 -20q-24 -75 -92.5 -130t-184.5 -55zM344 1303q-51 0 -89 -29.5t-42 -91.5h254q-3 59 -38.5 90t-84.5 31z" />
    <glyph glyph-name="f.superior" horiz-adv-x="409" 
d="M104 1407v29q0 108 45 141t164 33h72v-129h-45q-44 0 -57 -11t-13 -49v-14h115v-121h-117v-452h-164v452h-79v121h79z" />
    <glyph glyph-name="g.superior" horiz-adv-x="698" 
d="M453 858v57q-50 -71 -158 -71t-177 77.5t-69 211.5q0 129 72 207.5t180 78.5q97 0 154 -67v55h161v-530q0 -137 -73 -195q-68 -59 -207 -59q-238 0 -264 184l155 8q15 -72 111 -72q53 0 82 23q33 26 33 92zM334 969q58 0 91.5 43t33.5 121q0 71 -33.5 115t-91.5 44
q-55 0 -86 -46t-31 -116q0 -75 30 -118t87 -43z" />
    <glyph glyph-name="h.superior" horiz-adv-x="698" 
d="M252 1610v-271q50 80 172 80q108 0 156 -63q43 -49 43 -168v-354h-166v319q0 73 -19 100q-25 31 -76 31q-110 0 -110 -158v-292h-166v776h166z" />
    <glyph glyph-name="i.superior" horiz-adv-x="335" 
d="M86 1407h166v-573h-166v573zM86 1610h166v-146h-166v146z" />
    <glyph glyph-name="j.superior" horiz-adv-x="337" 
d="M86 825v582h166v-584q0 -116 -40 -154t-155 -38h-51v129h25q35 0 45 12.5t10 52.5zM86 1610h166v-146h-166v146z" />
    <glyph glyph-name="k.superior" horiz-adv-x="667" 
d="M86 1610h166v-408l192 205h199l-209 -217l219 -356h-190l-144 237l-67 -72v-165h-166v776z" />
    <glyph glyph-name="l.superior" horiz-adv-x="335" 
d="M252 1610v-776h-166v776h166z" />
    <glyph glyph-name="m.superior" horiz-adv-x="1044" 
d="M86 834v573h166v-68q50 80 166 80q122 0 166 -94q66 94 192 94q102 0 152 -59q43 -55 43 -172v-354h-166v319q0 75 -19 102q-23 29 -69 29q-59 0 -82 -41t-23 -117v-292h-166v319q0 77 -20 102q-23 29 -68 29q-59 0 -82.5 -41t-23.5 -117v-292h-166z" />
    <glyph glyph-name="o.superior" horiz-adv-x="684" 
d="M219 1118q0 -83 33 -127.5t90 -44.5q58 0 92.5 44.5t34.5 127.5q0 84 -34.5 129t-92.5 45q-57 0 -90 -45t-33 -129zM49 1118q0 147 83.5 224t209.5 77q127 0 211 -77t84 -224q0 -146 -84 -222.5t-211 -76.5q-126 0 -209.5 76.5t-83.5 222.5z" />
    <glyph glyph-name="p.superior" horiz-adv-x="702" 
d="M252 889v-258h-166v776h162v-64q51 76 162 76q108 0 176.5 -80.5t68.5 -220.5q0 -136 -72 -217.5t-182 -81.5q-96 0 -149 70zM369 1292q-57 0 -90 -47t-33 -127q0 -77 33.5 -124.5t89.5 -47.5t87 48.5t31 125.5q0 76 -30.5 124t-87.5 48z" />
    <glyph glyph-name="q.superior" horiz-adv-x="702" 
d="M455 1352l2 55h161v-776h-165v262q-52 -74 -158 -74q-108 0 -177 81t-69 220q0 135 72 217t180 82q97 0 154 -67zM334 946q57 0 91 47.5t34 126.5q0 77 -33.5 124.5t-91.5 47.5q-55 0 -86 -48.5t-31 -125.5t30 -124.5t87 -47.5z" />
    <glyph glyph-name="r.superior" horiz-adv-x="450" 
d="M430 1405v-160q-60 6 -63 6q-56 0 -85.5 -28t-29.5 -97v-292h-166v573h162v-90q46 90 153 90q21 0 29 -2z" />
    <glyph glyph-name="s.superior" horiz-adv-x="620" 
d="M571 1280l-114 -61q-42 79 -152 79q-38 0 -62 -12t-24 -33q0 -37 74 -53l69 -14q53 -12 87 -23t67 -30.5t48.5 -49t15.5 -71.5q0 -90 -76.5 -141.5t-186.5 -51.5q-105 0 -179 44.5t-95 113.5l121 61q16 -42 56 -69t99 -27q45 0 72 13.5t27 39.5q0 25 -22 37t-68 21
l-72 16q-93 19 -143 59t-50 117q0 80 72.5 127t179.5 47q92 0 162.5 -36.5t93.5 -102.5z" />
    <glyph glyph-name="t.superior" horiz-adv-x="438" 
d="M106 1407v170h166v-170h119v-121h-119v-264q0 -37 14.5 -50.5t49.5 -13.5h53v-124h-108q-104 0 -139.5 32.5t-35.5 130.5v289h-86v121h86z" />
    <glyph glyph-name="u.superior" horiz-adv-x="694" 
d="M442 834v65q-52 -80 -166 -80q-103 0 -153 62q-45 54 -45 172v354h166v-322q0 -75 18 -98q20 -33 72 -33q108 0 108 162v291h166v-573h-166z" />
    <glyph glyph-name="v.superior" horiz-adv-x="616" 
d="M201 1407l112 -381l111 381h174l-207 -573h-162l-209 573h181z" />
    <glyph glyph-name="w.superior" horiz-adv-x="878" 
d="M270 1022l84 385h172l88 -383l70 383h176l-158 -573h-165l-97 378l-94 -378h-168l-158 573h179z" />
    <glyph glyph-name="x.superior" horiz-adv-x="657" 
d="M627 1407l-205 -277l215 -296h-193l-120 165l-123 -165h-181l216 288l-203 285h188l111 -154l114 154h181z" />
    <glyph glyph-name="y.superior" horiz-adv-x="608" 
d="M135 631h-67v131h59q40 0 58 11t32 50l6 13l-211 571h181l112 -383l115 383h170l-209 -567q-45 -123 -94.5 -166t-151.5 -43z" />
    <glyph glyph-name="z.superior" horiz-adv-x="598" 
d="M37 834v120l289 320h-269v133h486v-123l-289 -317h299v-133h-516z" />
    <glyph glyph-name="a.inferior" horiz-adv-x="657" 
d="M221 147l-153 3q9 90 77.5 141t192.5 51q129 0 189 -53.5t59 -169.5q-4 -78 -4 -158q0 -99 12 -207h-152l-2 64q-56 -78 -180 -78q-96 0 -153.5 55.5t-57.5 132.5q0 81 55 123q65 50 226 64l92 10v18q0 82 -96 82q-45 0 -73.5 -20t-31.5 -58zM426 -18v34l-92 -8
q-117 -14 -117 -76q0 -30 22.5 -50.5t61.5 -20.5q54 0 89.5 31t35.5 90z" />
    <glyph glyph-name="b.inferior" horiz-adv-x="702" 
d="M86 -246v776h166v-262q53 72 158 72q108 0 176.5 -80.5t68.5 -220.5q0 -136 -72 -217.5t-182 -81.5q-98 0 -151 70l-2 -56h-162zM369 213q-57 0 -90 -47t-33 -127q0 -77 33.5 -124.5t89.5 -47.5t87 48.5t31 125.5q0 76 -30.5 124t-87.5 48z" />
    <glyph glyph-name="c.inferior" horiz-adv-x="661" 
d="M342 340q104 0 177.5 -53.5t96.5 -149.5l-155 -24q-8 45 -38 72.5t-79 27.5q-60 0 -93.5 -45t-33.5 -127q0 -83 34 -129.5t93 -46.5q102 0 121 104l156 -22q-24 -98 -100.5 -152.5t-182.5 -54.5q-137 0 -213 82t-76 217t79 218t214 83z" />
    <glyph glyph-name="d.inferior" horiz-adv-x="706" 
d="M623 530v-776h-164v62q-51 -76 -162 -76q-108 0 -177 81t-69 220q0 135 72 217t182 82q98 0 152 -68v258h166zM338 -133q57 0 91 47.5t34 126.5q0 77 -33.5 124.5t-91.5 47.5q-57 0 -87 -48t-30 -126q0 -77 30 -124.5t87 -47.5z" />
    <glyph glyph-name="e.inferior" horiz-adv-x="679" 
d="M346 -260q-142 0 -219.5 84.5t-77.5 218.5q0 132 80.5 214.5t212.5 82.5q144 0 221 -94t68 -252h-418q3 -57 39.5 -93t93.5 -36q91 0 121 80l156 -21q-24 -75 -92.5 -129.5t-184.5 -54.5zM344 223q-51 0 -89 -29.5t-42 -91.5h254q-3 59 -38.5 90t-84.5 31z" />
    <glyph glyph-name="f.inferior" horiz-adv-x="409" 
d="M104 328v28q0 108 45 141t164 33h72v-129h-45q-45 0 -57.5 -10.5t-12.5 -48.5v-14h115v-121h-117v-453h-164v453h-79v121h79z" />
    <glyph glyph-name="g.inferior" horiz-adv-x="698" 
d="M453 -221v57q-51 -72 -158 -72q-108 0 -177 77.5t-69 211.5q0 129 72 208t180 79q96 0 154 -68v56h161v-531q0 -136 -73 -194q-69 -60 -207 -60q-113 0 -182 45.5t-82 139.5l155 8q15 -72 111 -72q53 0 82 23q33 26 33 92zM334 -111q58 0 91.5 43t33.5 121
q0 72 -33.5 116t-91.5 44q-55 0 -86 -46t-31 -116q0 -75 30 -118.5t87 -43.5z" />
    <glyph glyph-name="h.inferior" horiz-adv-x="698" 
d="M252 530v-270q50 80 172 80q107 0 156 -64q43 -49 43 -167v-355h-166v320q0 73 -19 100q-25 31 -76 31q-110 0 -110 -158v-293h-166v776h166z" />
    <glyph glyph-name="i.inferior" horiz-adv-x="335" 
d="M86 328h166v-574h-166v574zM86 530h166v-145h-166v145z" />
    <glyph glyph-name="j.inferior" horiz-adv-x="337" 
d="M86 -254v582h166v-584q0 -117 -40 -155t-155 -38h-51v130h25q35 0 45 12.5t10 52.5zM86 530h166v-145h-166v145z" />
    <glyph glyph-name="k.inferior" horiz-adv-x="667" 
d="M86 530h166v-407l192 205h199l-209 -217l219 -357h-190l-144 238l-67 -72v-166h-166v776z" />
    <glyph glyph-name="l.inferior" horiz-adv-x="335" 
d="M252 530v-776h-166v776h166z" />
    <glyph glyph-name="m.inferior" horiz-adv-x="1044" 
d="M86 -246v574h166v-68q50 80 166 80q122 0 166 -94q66 94 192 94q102 0 152 -59q43 -55 43 -172v-355h-166v320q0 75 -19 102q-23 29 -69 29q-59 0 -82 -41t-23 -117v-293h-166v320q0 77 -20 102q-23 29 -68 29q-59 0 -82.5 -41t-23.5 -117v-293h-166z" />
    <glyph glyph-name="n.inferior" horiz-adv-x="698" 
d="M252 328v-68q50 80 172 80q107 0 156 -64q43 -49 43 -167v-355h-166v320q0 73 -19 100q-25 31 -76 31q-110 0 -110 -158v-293h-166v574h166z" />
    <glyph glyph-name="o.inferior" horiz-adv-x="684" 
d="M219 39q0 -83 33 -127.5t90 -44.5q58 0 92.5 44.5t34.5 127.5q0 84 -34.5 129t-92.5 45q-57 0 -90 -45t-33 -129zM49 39q0 147 83.5 224t209.5 77q127 0 211 -77t84 -224q0 -146 -84 -222.5t-211 -76.5q-126 0 -209.5 76.5t-83.5 222.5z" />
    <glyph glyph-name="p.inferior" horiz-adv-x="702" 
d="M252 -190v-259h-166v777h162v-64q51 76 162 76q108 0 176.5 -80.5t68.5 -220.5q0 -136 -72 -217.5t-182 -81.5q-96 0 -149 70zM369 213q-57 0 -90 -47t-33 -127q0 -77 33.5 -124.5t89.5 -47.5t87 48.5t31 125.5q0 76 -30.5 124t-87.5 48z" />
    <glyph glyph-name="q.inferior" horiz-adv-x="702" 
d="M455 272l2 56h161v-777h-165v263q-52 -74 -158 -74q-108 0 -177 81t-69 220q0 135 72 217t180 82q96 0 154 -68zM334 -133q57 0 91 47.5t34 126.5q0 77 -33.5 124.5t-91.5 47.5q-55 0 -86 -48.5t-31 -125.5t30 -124.5t87 -47.5z" />
    <glyph glyph-name="r.inferior" horiz-adv-x="450" 
d="M430 326v-160q-60 6 -63 6q-56 0 -85.5 -28t-29.5 -97v-293h-166v574h162v-90q46 90 153 90q21 0 29 -2z" />
    <glyph glyph-name="s.inferior" horiz-adv-x="620" 
d="M571 201l-114 -62q-43 80 -152 80q-38 0 -62 -12t-24 -33q0 -37 74 -53l69 -15q53 -12 87 -23t67 -30.5t48.5 -49t15.5 -71.5q0 -90 -76.5 -141t-186.5 -51q-105 0 -179 44.5t-95 113.5l121 61q16 -42 56 -69t99 -27q45 0 72 13.5t27 39.5q0 25 -21.5 36.5t-68.5 20.5
l-72 17q-93 19 -143 59t-50 117q0 80 72.5 127t179.5 47q92 0 162.5 -36.5t93.5 -102.5z" />
    <glyph glyph-name="t.inferior" horiz-adv-x="438" 
d="M106 328v170h166v-170h119v-121h-119v-264q0 -37 14.5 -50.5t49.5 -13.5h53v-125h-108q-103 0 -139 33t-36 131v289h-86v121h86z" />
    <glyph glyph-name="u.inferior" horiz-adv-x="694" 
d="M442 -246v66q-52 -80 -166 -80q-104 0 -153 61q-45 54 -45 172v355h166v-322q0 -75 18 -98q20 -33 72 -33q108 0 108 162v291h166v-574h-166z" />
    <glyph glyph-name="v.inferior" horiz-adv-x="616" 
d="M201 328l112 -381l111 381h174l-207 -574h-162l-209 574h181z" />
    <glyph glyph-name="w.inferior" horiz-adv-x="878" 
d="M270 -57l84 385h172l88 -383l70 383h176l-158 -574h-165l-97 379l-94 -379h-168l-158 574h179z" />
    <glyph glyph-name="x.inferior" horiz-adv-x="657" 
d="M627 328l-205 -277l215 -297h-193l-120 168l-123 -168h-181l216 289l-203 285h188l111 -154l114 154h181z" />
    <glyph glyph-name="y.inferior" horiz-adv-x="608" 
d="M135 -449h-67v132h59q40 0 58 11t32 50l6 12l-211 572h181l112 -383l115 383h170l-209 -568q-45 -123 -94.5 -166t-151.5 -43z" />
    <glyph glyph-name="z.inferior" horiz-adv-x="598" 
d="M37 -246v121l289 320h-269v133h486v-123l-289 -318h299v-133h-516z" />
    <glyph glyph-name="a.denominator" horiz-adv-x="657" 
d="M221 393l-153 2q9 90 77.5 141.5t192.5 51.5q129 0 189 -53.5t59 -169.5q-4 -78 -4 -158q0 -99 12 -207h-152l-2 63q-55 -77 -180 -77q-96 0 -153.5 55.5t-57.5 132.5q0 81 55 123q64 49 226 63l92 11v18q0 82 -96 82q-45 0 -73.5 -20t-31.5 -58zM426 227v35l-92 -8
q-117 -14 -117 -76q0 -30 23 -51t61 -21q54 0 89.5 31t35.5 90z" />
    <glyph glyph-name="b.denominator" horiz-adv-x="702" 
d="M86 0v776h166v-262q53 72 158 72q108 0 176.5 -80.5t68.5 -220.5q0 -136 -72 -217.5t-182 -81.5q-99 0 -151 69l-2 -55h-162zM369 459q-57 0 -90 -47t-33 -127q0 -77 33.5 -124.5t89.5 -47.5t87 48.5t31 125.5q0 76 -30.5 124t-87.5 48z" />
    <glyph glyph-name="c.denominator" horiz-adv-x="661" 
d="M342 586q104 0 177.5 -53.5t96.5 -149.5l-155 -25q-8 45 -38 73t-79 28q-60 0 -93.5 -45t-33.5 -127q0 -83 34 -129.5t93 -46.5q102 0 121 104l156 -22q-24 -98 -100.5 -152.5t-182.5 -54.5q-137 0 -213 82t-76 217t79 218t214 83z" />
    <glyph glyph-name="d.denominator" horiz-adv-x="706" 
d="M623 776v-776h-164v61q-51 -75 -162 -75q-108 0 -177 81t-69 220q0 135 72 217t182 82q98 0 152 -68v258h166zM338 113q57 0 91 47.5t34 126.5q0 77 -33.5 124.5t-91.5 47.5q-57 0 -87 -48t-30 -126q0 -77 30 -124.5t87 -47.5z" />
    <glyph glyph-name="e.denominator" horiz-adv-x="679" 
d="M346 -14q-142 0 -219.5 84.5t-77.5 218.5q0 132 80.5 214.5t212.5 82.5q144 0 221 -94t68 -252h-418q3 -58 39.5 -93.5t93.5 -35.5q92 0 121 79l156 -20q-24 -75 -92.5 -129.5t-184.5 -54.5zM344 469q-51 0 -89 -29.5t-42 -91.5h254q-3 59 -38.5 90t-84.5 31z" />
    <glyph glyph-name="f.denominator" horiz-adv-x="409" 
d="M104 573v29q0 108 45 141t164 33h72v-129h-45q-45 0 -57.5 -10.5t-12.5 -48.5v-15h115v-120h-117v-453h-164v453h-79v120h79z" />
    <glyph glyph-name="g.denominator" horiz-adv-x="698" 
d="M453 25v57q-51 -72 -158 -72q-108 0 -177 77.5t-69 211.5q0 129 72 208t180 79q96 0 154 -68v55h161v-530q0 -137 -73 -195q-68 -59 -207 -59q-238 0 -264 184l155 9q15 -72 111 -72q54 0 82 22q33 26 33 93zM334 135q58 0 91.5 43t33.5 121q0 72 -33.5 116t-91.5 44
q-55 0 -86 -46t-31 -116q0 -75 30 -118.5t87 -43.5z" />
    <glyph glyph-name="h.denominator" horiz-adv-x="698" 
d="M252 776v-270q50 80 172 80q107 0 156 -64q43 -49 43 -168v-354h-166v319q0 74 -19 101q-25 31 -76 31q-110 0 -110 -158v-293h-166v776h166z" />
    <glyph glyph-name="i.denominator" horiz-adv-x="335" 
d="M86 573h166v-573h-166v573zM86 776h166v-145h-166v145z" />
    <glyph glyph-name="j.denominator" horiz-adv-x="337" 
d="M86 -8v581h166v-583q0 -117 -40 -155t-155 -38h-51v129h25q35 0 45 13t10 53zM86 776h166v-145h-166v145z" />
    <glyph glyph-name="k.denominator" horiz-adv-x="667" 
d="M86 776h166v-407l192 204h199l-209 -217l219 -356h-190l-144 238l-67 -72v-166h-166v776z" />
    <glyph glyph-name="l.denominator" horiz-adv-x="335" 
d="M252 776v-776h-166v776h166z" />
    <glyph glyph-name="m.denominator" horiz-adv-x="1044" 
d="M86 0v573h166v-67q50 80 166 80q122 0 166 -94q66 94 192 94q101 0 152 -60q43 -55 43 -172v-354h-166v319q0 76 -19 103q-23 29 -69 29q-59 0 -82 -41t-23 -117v-293h-166v319q0 78 -20 103q-23 29 -68 29q-59 0 -82.5 -41t-23.5 -117v-293h-166z" />
    <glyph glyph-name="n.denominator" horiz-adv-x="698" 
d="M252 573v-67q50 80 172 80q107 0 156 -64q43 -49 43 -168v-354h-166v319q0 74 -19 101q-25 31 -76 31q-110 0 -110 -158v-293h-166v573h166z" />
    <glyph glyph-name="o.denominator" horiz-adv-x="684" 
d="M219 285q0 -83 33 -127.5t90 -44.5q58 0 92.5 44.5t34.5 127.5q0 84 -34.5 129t-92.5 45q-57 0 -90 -45t-33 -129zM49 285q0 147 83.5 224t209.5 77q127 0 211 -77t84 -224q0 -146 -84 -222.5t-211 -76.5q-126 0 -209.5 76.5t-83.5 222.5z" />
    <glyph glyph-name="p.denominator" horiz-adv-x="702" 
d="M252 55v-258h-166v776h162v-63q51 76 162 76q108 0 176.5 -80.5t68.5 -220.5q0 -136 -72 -217.5t-182 -81.5q-97 0 -149 69zM369 459q-57 0 -90 -47t-33 -127q0 -77 33.5 -124.5t89.5 -47.5t87 48.5t31 125.5q0 76 -30.5 124t-87.5 48z" />
    <glyph glyph-name="q.denominator" horiz-adv-x="702" 
d="M455 518l2 55h161v-776h-165v262q-51 -73 -158 -73q-108 0 -177 81t-69 220q0 135 72 217t180 82q96 0 154 -68zM334 113q57 0 91 47.5t34 126.5q0 77 -33.5 124.5t-91.5 47.5q-55 0 -86 -48.5t-31 -125.5t30 -124.5t87 -47.5z" />
    <glyph glyph-name="r.denominator" horiz-adv-x="450" 
d="M430 571v-159q-60 6 -63 6q-56 0 -85.5 -28t-29.5 -97v-293h-166v573h162v-90q46 90 153 90q21 0 29 -2z" />
    <glyph glyph-name="s.denominator" horiz-adv-x="620" 
d="M571 446l-114 -61q-43 80 -152 80q-38 0 -62 -12t-24 -33q0 -37 74 -53l69 -15q53 -12 87 -23t67 -30.5t48.5 -49t15.5 -71.5q0 -90 -76.5 -141t-186.5 -51q-105 0 -179 44t-95 113l121 62q16 -42 56 -69t99 -27q45 0 72 13.5t27 39.5q0 25 -21.5 36.5t-68.5 20.5l-72 17
q-93 19 -143 59t-50 117q0 80 72.5 127t179.5 47q92 0 162.5 -37t93.5 -103z" />
    <glyph glyph-name="t.denominator" horiz-adv-x="438" 
d="M106 573v170h166v-170h119v-120h-119v-265q0 -37 14.5 -50t49.5 -13h53v-125h-108q-103 0 -139 33t-36 131v289h-86v120h86z" />
    <glyph glyph-name="u.denominator" horiz-adv-x="694" 
d="M442 0v66q-52 -80 -166 -80q-104 0 -153 61q-45 54 -45 172v354h166v-321q0 -75 18 -98q20 -33 72 -33q108 0 108 162v290h166v-573h-166z" />
    <glyph glyph-name="v.denominator" horiz-adv-x="616" 
d="M201 573l112 -380l111 380h174l-207 -573h-162l-209 573h181z" />
    <glyph glyph-name="w.denominator" horiz-adv-x="878" 
d="M270 188l84 385h172l88 -383l70 383h176l-158 -573h-165l-97 379l-94 -379h-168l-158 573h179z" />
    <glyph glyph-name="x.denominator" horiz-adv-x="657" 
d="M627 573l-205 -276l215 -297h-193l-120 166l-123 -166h-181l216 289l-203 284h188l111 -153l114 153h181z" />
    <glyph glyph-name="y.denominator" horiz-adv-x="608" 
d="M135 -203h-67v131h59q39 0 57.5 11.5t32.5 50.5l6 12l-211 571h181l112 -383l115 383h170l-209 -567q-45 -123 -94.5 -166t-151.5 -43z" />
    <glyph glyph-name="z.denominator" horiz-adv-x="598" 
d="M37 0v121l289 319h-269v133h486v-122l-289 -318h299v-133h-516z" />
    <glyph glyph-name="a.numerator" horiz-adv-x="657" 
d="M221 977l-153 2q9 90 77.5 141t192.5 51q129 0 189 -53.5t59 -169.5q-4 -78 -4 -157q0 -99 12 -207h-152l-2 63q-56 -78 -180 -78q-96 0 -153.5 56t-57.5 133q0 81 55 123q64 49 226 63l92 10v19q0 82 -96 82q-45 0 -73.5 -20t-31.5 -58zM426 811v35l-92 -8
q-117 -14 -117 -76q0 -30 23 -51t61 -21q54 0 89.5 31t35.5 90z" />
    <glyph glyph-name="b.numerator" horiz-adv-x="702" 
d="M86 584v776h166v-262q52 71 158 71q108 0 176.5 -80.5t68.5 -220.5q0 -136 -72 -217.5t-182 -81.5q-98 0 -151 70l-2 -55h-162zM369 1042q-57 0 -90 -47t-33 -127q0 -77 33.5 -124.5t89.5 -47.5t87 48.5t31 125.5q0 76 -30.5 124t-87.5 48z" />
    <glyph glyph-name="c.numerator" horiz-adv-x="661" 
d="M342 1169q104 0 177.5 -53t96.5 -149l-155 -25q-8 45 -38 72.5t-79 27.5q-60 0 -93.5 -45t-33.5 -127q0 -83 34 -129.5t93 -46.5q46 0 78.5 25.5t42.5 79.5l156 -23q-24 -98 -100.5 -152.5t-182.5 -54.5q-137 0 -213 82t-76 217t79 218t214 83z" />
    <glyph glyph-name="d.numerator" horiz-adv-x="706" 
d="M623 1360v-776h-164v61q-51 -76 -162 -76q-108 0 -177 81t-69 220q0 135 72 217t182 82q99 0 152 -67v258h166zM338 696q57 0 91 47.5t34 126.5q0 77 -33.5 124.5t-91.5 47.5q-57 0 -87 -48t-30 -126q0 -77 30 -124.5t87 -47.5z" />
    <glyph glyph-name="e.numerator" horiz-adv-x="679" 
d="M346 569q-142 0 -219.5 84.5t-77.5 218.5q0 132 80.5 214.5t212.5 82.5q144 0 221 -94t68 -252h-418q3 -58 39.5 -93.5t93.5 -35.5q91 0 121 80l156 -20q-24 -75 -92.5 -130t-184.5 -55zM344 1053q-51 0 -89 -29.5t-42 -91.5h254q-3 59 -38.5 90t-84.5 31z" />
    <glyph glyph-name="f.numerator" horiz-adv-x="409" 
d="M104 1157v29q0 108 45 141t164 33h72v-129h-45q-44 0 -57 -11t-13 -49v-14h115v-121h-117v-452h-164v452h-79v121h79z" />
    <glyph glyph-name="g.numerator" horiz-adv-x="698" 
d="M453 608v58q-51 -72 -158 -72q-108 0 -177 77.5t-69 211.5q0 129 72 207.5t180 78.5q97 0 154 -67v55h161v-530q0 -137 -73 -195q-68 -59 -207 -59q-238 0 -264 184l155 8q15 -71 111 -71q54 0 82 22q33 26 33 92zM334 719q58 0 91.5 43t33.5 121q0 71 -33.5 115
t-91.5 44q-55 0 -86 -45.5t-31 -115.5q0 -75 30 -118.5t87 -43.5z" />
    <glyph glyph-name="h.numerator" horiz-adv-x="698" 
d="M252 1360v-270q49 79 172 79q108 0 156 -63q43 -49 43 -168v-354h-166v319q0 74 -19 101q-24 30 -76 30q-110 0 -110 -157v-293h-166v776h166z" />
    <glyph glyph-name="i.numerator" horiz-adv-x="335" 
d="M86 1157h166v-573h-166v573zM86 1360h166v-146h-166v146z" />
    <glyph glyph-name="j.numerator" horiz-adv-x="337" 
d="M86 575v582h166v-584q0 -116 -40 -154t-155 -38h-51v129h25q35 0 45 12.5t10 52.5zM86 1360h166v-146h-166v146z" />
    <glyph glyph-name="k.numerator" horiz-adv-x="667" 
d="M86 1360h166v-408l192 205h199l-209 -217l219 -356h-190l-144 237l-67 -71v-166h-166v776z" />
    <glyph glyph-name="l.numerator" horiz-adv-x="335" 
d="M252 1360v-776h-166v776h166z" />
    <glyph glyph-name="m.numerator" horiz-adv-x="1044" 
d="M86 584v573h166v-67q49 79 166 79q122 0 166 -94q66 94 192 94q102 0 152 -59q43 -55 43 -172v-354h-166v319q0 76 -19 103q-22 28 -69 28q-59 0 -82 -40.5t-23 -116.5v-293h-166v319q0 78 -20 103q-22 28 -68 28q-59 0 -82.5 -40.5t-23.5 -116.5v-293h-166z" />
    <glyph glyph-name="n.numerator" horiz-adv-x="698" 
d="M252 1157v-67q49 79 172 79q108 0 156 -63q43 -49 43 -168v-354h-166v319q0 74 -19 101q-24 30 -76 30q-110 0 -110 -157v-293h-166v573h166z" />
    <glyph glyph-name="o.numerator" horiz-adv-x="684" 
d="M219 868q0 -83 33 -127.5t90 -44.5q58 0 92.5 44.5t34.5 127.5q0 84 -34.5 129t-92.5 45q-57 0 -90 -45t-33 -129zM49 868q0 147 83.5 224t209.5 77q127 0 211 -77t84 -224q0 -146 -84 -222.5t-211 -76.5q-126 0 -209.5 76.5t-83.5 222.5z" />
    </font>
</defs>
</svg>
